<?xml version="1.0" standalone="no"?>
<!DOCTYPE svg PUBLIC "-//W3C//DTD SVG 1.1//EN" "http://www.w3.org/Graphics/SVG/1.1/DTD/svg11.dtd" >
<svg xmlns="http://www.w3.org/2000/svg" xmlns:xlink="http://www.w3.org/1999/xlink" version="1.1">
<metadata>
Created by FontForge 20170731 at Mon Jun 28 22:30:05 2021
 By Aleksey,,,
Copyright (c) 2020 by Artem Nevsky. All rights reserved.
</metadata>
<defs>
<font id="NewYork" horiz-adv-x="1142" >
  <font-face 
    font-family="NewYork"
    font-weight="400"
    font-stretch="normal"
    units-per-em="2048"
    panose-1="2 0 5 3 0 0 0 2 0 4"
    ascent="1638"
    descent="-410"
    x-height="985"
    cap-height="1434"
    bbox="-119 -547 3056 1941.78"
    underline-thickness="102"
    underline-position="-307"
    unicode-range="U+0020-F6C3"
  />
<missing-glyph horiz-adv-x="471" 
 />
    <glyph glyph-name=".notdef" horiz-adv-x="471" 
 />
    <glyph glyph-name=".null" horiz-adv-x="0" 
 />
    <glyph glyph-name="nonmarkingreturn" horiz-adv-x="682" 
 />
    <glyph glyph-name="space" unicode=" " horiz-adv-x="471" 
 />
    <glyph glyph-name="exclam" unicode="!" horiz-adv-x="409" 
d="M213 375h-14l-117 1059h246zM205 211q46 0 79 -32.5t33 -78.5t-33 -79t-79 -33t-78.5 33t-32.5 79t32.5 78.5t78.5 32.5z" />
    <glyph glyph-name="quotedbl" unicode="&#x22;" horiz-adv-x="477" 
d="M141 1477q27 0 44 -19t16 -59q-4 -101 -13 -169.5t-21 -99t-26 -30.5q-13 0 -24 30t-20 99t-13 170q-1 40 15 59t42 19zM336 1477q26 0 42 -19t15 -59q-3 -100 -12 -169.5t-20.5 -99.5t-24.5 -30q-48 0 -57 299q-3 78 57 78z" />
    <glyph glyph-name="numbersign" unicode="#" horiz-adv-x="2463" 
d="M2382 1092h-670l-180 -752h663v-14h-667l-160 -668h-14l159 668h-751l-160 -668h-16l159 668h-663v14h668l180 752h-664v16h668l160 666h16l-160 -666h752l160 666h14l-160 -666h666v-16zM1518 340l180 752h-752l-180 -752h752z" />
    <glyph glyph-name="dollar" unicode="$" horiz-adv-x="1228" 
d="M1147 403q0 -173 -134.5 -288.5t-340.5 -124.5v-209h-17v209h-18q-117 0 -217.5 26.5t-174.5 66.5t-163 107l61 236h15q78 -157 205 -264.5t292 -126.5v614q-55 22 -90.5 37.5t-85 40.5t-81 47.5t-66.5 56t-55 69t-33 82t-13 99.5q0 63 25 124t73.5 115.5t133 90.5
t192.5 41v201h17v-199h20q109 0 227.5 -55t223.5 -137l-62 -213h-14q-150 355 -395 378v-575q186 -70 261 -114q177 -102 207 -260q7 -36 7 -75zM307 1190q-3 -39 5 -73.5t22.5 -61t42.5 -51.5t54.5 -43.5t68 -38t74 -33t81.5 -31.5v569h-14q-146 0 -235 -69.5t-99 -167.5z
M723 31q128 0 225 71t109 168q8 61 -11.5 112.5t-46 84.5t-89.5 68.5t-101.5 52t-121.5 49.5l-15 6v-610q16 -2 51 -2z" />
    <glyph glyph-name="percent" unicode="%" horiz-adv-x="2140" 
d="M1499 1522h14l-835 -1592h-14zM922 1053q0 -110 -58 -202.5t-154.5 -145t-207.5 -52.5q-110 0 -206.5 52.5t-155 145t-58.5 202.5q0 111 58.5 203.5t154.5 145t207 52.5q171 0 295.5 -116.5t124.5 -284.5zM502 672q130 0 209.5 110.5t79.5 270.5q0 162 -79.5 272.5
t-209.5 110.5t-209.5 -110.5t-79.5 -272.5q0 -160 79.5 -270.5t209.5 -110.5zM1638 791q171 0 295.5 -117t124.5 -285q0 -110 -58 -202.5t-154.5 -144.5t-207.5 -52q-110 0 -206.5 52t-154.5 144.5t-58 202.5q0 111 58 204t154 145.5t207 52.5zM1638 8q130 0 209.5 110.5
t79.5 270.5q0 162 -79.5 272.5t-209.5 110.5t-209 -110.5t-79 -272.5q0 -160 79 -270.5t209 -110.5z" />
    <glyph glyph-name="ampersand" unicode="&#x26;" horiz-adv-x="1683" 
d="M1575 1192q56 -97 -2.5 -226t-173.5 -202q-119 -76 -254 -37q33 -27 55.5 -74t32.5 -103.5t3.5 -120.5t-27.5 -126.5t-65.5 -119.5t-105 -100.5t-151.5 -69t-201 -25.5q-123 0 -232.5 34t-184.5 89t-122.5 121.5t-58.5 134.5q-12 78 1.5 148t48 123t86.5 94t117 60.5
t138 23.5t150 -17q-154 49 -212 77q-220 103 -217 287q0 8 1 17q7 105 73 171.5t187 104.5q115 39 246 27t305 -78l-39 -211h-15q-98 164 -231 231.5t-240 22.5q-62 -26 -96.5 -95t-34.5 -163q0 -135 99 -247t282 -177q-2 -6 -6 -14q-166 58 -278 16.5t-165.5 -152
t-39.5 -260.5q13 -141 135 -243.5t313 -102.5q123 0 222 35t158.5 92.5t98 128.5t45.5 145.5t-3 141t-43 118.5t-80 74q-47 -92 -90 -155t-97 -103q-66 -48 -136 -47.5t-93 52.5q-7 16 -8 32.5t5.5 32.5t14.5 30.5t24.5 31t30 29t37 29t39 27t42 26t41 23.5t40.5 23l4 -12
q-226 -126 -192 -221q14 -42 62 -43t97 30q15 9 31 23.5t28.5 28t28.5 38.5t25.5 40t27 48t25 47.5t27 53.5l25.5 51q20 40 53.5 113t53 112.5t49 83t59.5 64.5q71 47 131.5 33.5t95.5 -74.5zM1393 772q63 42 99 107.5t35 127.5t-32 115q-38 56 -86 66.5t-88 -21.5
q-15 -10 -32 -32.5t-35.5 -57.5t-33.5 -66t-37.5 -79.5t-35.5 -75.5q-8 -18 -25.5 -53l-21.5 -43q158 -75 293 12z" />
    <glyph glyph-name="quotesingle" unicode="'" horiz-adv-x="284" 
d="M141 1477q27 0 44 -19t16 -59q-4 -101 -13 -169.5t-21 -99t-26 -30.5q-13 0 -24 30t-20 99t-13 170q-1 40 15 59t42 19z" />
    <glyph glyph-name="parenleft" unicode="(" horiz-adv-x="673" 
d="M98 616q0 -364 131 -609t363 -316l-4 -15q-157 47 -271.5 175t-174.5 324t-60 441q0 371 134 621t372 322l4 -17q-232 -70 -363 -316t-131 -610z" />
    <glyph glyph-name="parenright" unicode=")" horiz-adv-x="673" 
d="M575 616q0 241 -58.5 433.5t-170 319t-264.5 173.5l4 17q238 -72 372 -322t134 -621q0 -245 -60 -441t-174.5 -324t-271.5 -175l-4 15q232 70 362.5 315.5t130.5 609.5z" />
    <glyph glyph-name="asterisk" unicode="*" horiz-adv-x="659" 
d="M573 1300q7 -27 -6 -50t-51 -29q-131 -15 -141 -15q22 -15 106 -96q28 -30 24.5 -55.5t-26.5 -40.5q-14 -10 -29.5 -12.5t-33 7t-29.5 33.5q-48 103 -57 132q-4 -12 -11.5 -29t-21.5 -48t-25 -55q-12 -24 -29.5 -33.5t-33.5 -7t-31 12.5q-22 16 -25 41t25 55
q81 78 107 96q-9 0 -144 15q-38 6 -51 29t-4 50q9 26 31.5 36.5t60.5 -5.5q120 -69 123 -71q-12 41 -29 139q-7 38 11.5 58t46.5 20q27 0 45.5 -20t11.5 -58q-14 -82 -31 -139q18 12 125 71q38 16 60.5 5.5t31.5 -36.5z" />
    <glyph glyph-name="plus" unicode="+" horiz-adv-x="952" 
d="M870 725v-16h-387v-387h-16v387h-385v16h385v385h16v-385h387z" />
    <glyph glyph-name="comma" unicode="," horiz-adv-x="385" 
d="M193 211q46 0 78 -32.5t32 -78.5q0 -155 -182 -303l-12 10q126 107 159 211q-33 -30 -75 -30q-46 0 -78.5 33t-32.5 79t32.5 78.5t78.5 32.5z" />
    <glyph glyph-name="hyphen" unicode="-" horiz-adv-x="952" 
d="M82 725h788v-16h-788v16z" />
    <glyph glyph-name="period" unicode="." horiz-adv-x="387" 
d="M195 211q46 0 78 -32.5t32 -78.5t-32 -79t-78 -33t-79.5 33t-33.5 79t33.5 78.5t79.5 32.5z" />
    <glyph glyph-name="slash" unicode="/" horiz-adv-x="909" 
d="M811 1774h16l-729 -2116h-16z" />
    <glyph glyph-name="zero" unicode="0" horiz-adv-x="1241" 
d="M621 1454q144 0 272.5 -97.5t207.5 -267.5t79 -368q0 -159 -44.5 -297t-120 -233t-178 -149t-216.5 -54q-107 0 -209.5 58.5t-179.5 156.5t-124 234.5t-47 283.5q0 158 44 295.5t119 233t178.5 150t218.5 54.5zM770 37q93 36 154 123t85 204.5t20.5 251.5t-34.5 273
q-30 137 -80.5 246t-118 183t-150 97.5t-177.5 -10.5q-92 -36 -153 -123t-84.5 -204.5t-20 -251t34.5 -271.5q30 -137 80.5 -247t118.5 -183.5t150 -98t175 10.5z" />
    <glyph glyph-name="one" unicode="1" horiz-adv-x="442" 
d="M313 135q0 -94 47 -121v-14h-249v14q25 14 36 41t11 80v1030q0 97 -29 110t-123 -32l-6 12l313 179v-1299z" />
    <glyph glyph-name="two" unicode="2" horiz-adv-x="1071" 
d="M993 242h17l-33 -242h-916v14q106 81 205 171t200.5 206t174.5 231.5t116 246t36 249.5q-4 65 -20 120t-46 99t-78.5 70t-111.5 27q-114 2 -218 -115.5t-133 -314.5h-14l-84 235q101 87 217.5 147.5t222.5 67.5q162 10 281 -74t149 -221q11 -53 11.5 -104.5t-11.5 -102.5
t-30 -97.5t-51.5 -97.5t-67 -95.5t-85.5 -97.5t-98 -97t-113.5 -101.5t-123.5 -103.5t-135 -110h575q66 0 104.5 20t59.5 70z" />
    <glyph glyph-name="three" unicode="3" horiz-adv-x="1140" 
d="M524 795q78 23 151.5 20t139.5 -22t118.5 -60t88.5 -93.5t49.5 -123t1.5 -149.5q-10 -68 -50 -134.5t-103.5 -121.5t-157 -89t-199.5 -34q-141 0 -275.5 57.5t-226.5 147.5l82 256h17q28 -197 142.5 -316.5t250.5 -122.5q89 -3 157.5 25t109.5 79t64 111.5t29 130.5
q15 150 -38.5 261t-165.5 152t-279 -17l-6 14q187 67 287 176.5t94 247.5q-4 118 -59 181t-150 63q-137 0 -240 -100t-131 -296h-14l-84 213q90 89 221 146t258 57q164 0 259.5 -73.5t95.5 -200.5q0 -57 -17.5 -105.5t-49 -84t-69 -63.5t-84.5 -49.5t-88.5 -37.5t-86.5 -31
q-29 -9 -42 -14z" />
    <glyph glyph-name="four" unicode="4" horiz-adv-x="1218" 
d="M1157 324h-213v-189q0 -53 11 -80t36 -41v-14h-250v14q47 27 47 121v189h-706v14l706 915v181h156v-1096h213v-14zM102 338h686v893z" />
    <glyph glyph-name="five" unicode="5" horiz-adv-x="1161" 
d="M264 815q97 50 200.5 68t195.5 6.5t173.5 -50t138 -98t85 -142.5t18.5 -177q-10 -85 -50 -162t-106 -138.5t-163.5 -97.5t-212.5 -36q-139 0 -263.5 56.5t-218.5 148.5l84 256h15q28 -199 133 -316.5t239 -122.5q95 -4 169.5 31t118.5 95.5t67.5 130.5t27.5 145
q9 175 -70 292.5t-229 146.5t-362 -54l-6 14l106 623h512q66 0 104.5 19.5t59.5 70.5h14l-32 -244h-668z" />
    <glyph glyph-name="six" unicode="6" horiz-adv-x="1155" 
d="M203 666q121 86 243.5 126t222.5 34t186 -44t141 -101t80.5 -145t10.5 -169q-12 -68 -52.5 -134.5t-104 -121.5t-156.5 -89t-199 -34q-65 0 -131.5 16.5t-131 50t-118 92.5t-81.5 136q-49 132 -50 260t42.5 238.5t117.5 211t177.5 185t219 152.5t246.5 122l6 -14
q-70 -30 -126.5 -58t-127.5 -70.5t-125.5 -86t-109.5 -104t-92 -126t-61 -150t-27 -177.5zM948 356q4 66 -8.5 128.5t-43 116t-75 94.5t-108.5 62t-139 20.5t-171 -31.5t-200 -93q0 -118 21.5 -226.5t63.5 -200.5t113.5 -150.5t163.5 -65.5q89 -7 161.5 19.5t119 76.5
t72.5 114t30 136z" />
    <glyph glyph-name="seven" unicode="7" horiz-adv-x="1052" 
d="M74 1454h958v-14q-72 -42 -144 -96t-154.5 -136.5t-146.5 -174t-109.5 -210.5t-56 -243.5t27.5 -275.5t129 -304h-242q-44 138 -50.5 274.5t21 257t75.5 231.5t119.5 209.5t147 179t162.5 151.5h-590q-66 0 -105.5 -20.5t-60.5 -70.5h-14z" />
    <glyph glyph-name="eight" unicode="8" horiz-adv-x="1146" 
d="M651 805q178 -88 242 -131q166 -111 188 -249q4 -23 4 -48q0 -164 -146 -276.5t-361 -112.5q-146 0 -262 40t-185.5 121t-69.5 191q0 77 33 146.5t90 122t117 90t131 69.5q-119 70 -184 153t-62 199q3 137 125.5 235.5t296.5 98.5q157 0 265 -84t108 -225
q0 -54 -23 -103.5t-57 -84.5t-81.5 -66.5t-86.5 -50t-82 -35.5zM299 1188q-3 -53 15 -101t46 -83.5t77 -72t91.5 -61.5t106.5 -57q107 48 165 137t52 217q-2 68 -29.5 121.5t-68.5 84t-85 46t-85 15.5q-35 0 -72 -8.5t-74 -28t-67 -47.5t-49.5 -70t-22.5 -92zM598 10
q30 0 68 5t92.5 22t98 44.5t77 79t37.5 118.5q4 63 -18.5 117.5t-57.5 92.5t-95 78t-111 66t-126 64t-121 65q-115 -53 -182 -140.5t-67 -209.5q0 -88 23.5 -158t62.5 -115t92.5 -74.5t109.5 -42t117 -12.5z" />
    <glyph glyph-name="nine" unicode="9" horiz-adv-x="1153" 
d="M950 774q-121 -86 -243.5 -126t-222.5 -34.5t-186 43.5t-140.5 101t-79.5 145.5t-10 169.5q11 68 51 134t103.5 122t156.5 90.5t199 34.5q89 0 176.5 -28.5t168.5 -98t119 -170.5q49 -132 49.5 -260t-43 -238.5t-117.5 -211t-177.5 -185t-219.5 -152.5t-247 -122l-6 14
q70 30 126.5 58t127.5 70.5t125.5 86t109.5 104t92 126t61 150t27 177.5zM205 1083q-5 -77 14 -148.5t59 -130.5t105.5 -95.5t147 -46t191 20.5t230.5 101q0 118 -22 227.5t-64.5 202t-114 151t-163.5 65.5q-89 7 -161.5 -19.5t-118.5 -77t-72 -114.5t-31 -136z" />
    <glyph glyph-name="colon" unicode=":" horiz-adv-x="385" 
d="M193 211q46 0 78 -32.5t32 -78.5t-32 -79t-78 -33t-78.5 33t-32.5 79t32.5 78.5t78.5 32.5zM193 764q-46 0 -78.5 32t-32.5 78t32.5 78.5t78.5 32.5t78 -32.5t32 -78.5t-32 -78t-78 -32z" />
    <glyph glyph-name="semicolon" unicode=";" horiz-adv-x="385" 
d="M193 764q-46 0 -78.5 32t-32.5 78t32.5 78.5t78.5 32.5t78 -32.5t32 -78.5t-32 -78t-78 -32zM193 211q46 0 78 -32.5t32 -78.5q0 -156 -184 -303l-10 10q126 107 159 211q-33 -30 -75 -30q-46 0 -78.5 33t-32.5 79t32.5 78.5t78.5 32.5z" />
    <glyph glyph-name="less" unicode="&#x3c;" horiz-adv-x="782" 
d="M700 864v-18l-598 -262l598 -265v-16l-618 272v17z" />
    <glyph glyph-name="equal" unicode="=" horiz-adv-x="952" 
d="M82 901h788v-14h-788v14zM82 530v17h788v-17h-788z" />
    <glyph glyph-name="greater" unicode="&#x3e;" horiz-adv-x="784" 
d="M82 864l620 -272v-17l-620 -272v16l600 265l-600 262v18z" />
    <glyph glyph-name="question" unicode="?" horiz-adv-x="1058" 
d="M440 211q46 0 78.5 -32.5t32.5 -78.5t-32.5 -79t-78.5 -33t-78 33t-32 79t32 78.5t78 32.5zM973 1159q11 -82 -13.5 -159t-73.5 -138.5t-121 -117.5t-149.5 -97.5t-166.5 -77.5v-194h-17v209q102 47 175.5 103.5t113 108.5t61 112.5t25.5 107.5t0 102q-9 133 -86.5 224
t-202.5 92q-113 2 -211.5 -114.5t-126.5 -313.5h-14l-84 233q102 88 217.5 148t222.5 67q166 11 299 -74.5t152 -220.5z" />
    <glyph glyph-name="at" unicode="@" horiz-adv-x="2127" 
d="M1640 -12q-50 -4 -95.5 9t-86 44.5t-64.5 93.5t-24 148v266q-10 -65 -25 -124.5t-38.5 -126t-57 -120t-76.5 -97.5t-102.5 -68.5t-128.5 -24.5q-64 0 -129.5 27.5t-120.5 77t-91 128.5t-38 172q-3 105 22 192t67.5 147t103 106.5t122.5 73.5t132.5 44t127 23t111.5 6
q131 0 283 -72v-667q0 -111 36 -168t115 -53q54 5 112.5 44.5t110 106t84.5 168.5t33 217q0 170 -69.5 321t-186 257.5t-274 169t-330.5 65.5q-98 2 -199 -13.5t-201.5 -51t-193 -87.5t-173 -126t-141.5 -162.5t-99.5 -202t-46.5 -239.5q-10 -158 20.5 -293.5t89 -232
t140 -174t169.5 -126t183.5 -80.5t175.5 -45.5t151 -13.5q128 -1 251 25.5t202.5 61t149.5 77t93.5 62t32.5 28.5l17 -14q-9 -9 -36 -30t-97.5 -63t-152 -77t-206 -63t-254.5 -30q-60 -1 -135 9.5t-172.5 40.5t-190 76.5t-181.5 125t-152.5 178t-97.5 244t-23 314.5
q12 181 83 334t179.5 257t245.5 177t281.5 106t287.5 31q142 -2 275 -43t242.5 -117t192 -177t128 -230t45.5 -269q0 -121 -36 -228.5t-94 -179.5t-130 -116t-146 -49zM1032 25q81 16 148.5 94.5t107 181.5t61 201t21.5 168v282q-58 23 -123 23q-47 -1 -93 -7.5t-102 -24.5
t-104 -46t-93.5 -76t-76.5 -109.5t-47 -151.5t-10 -198q5 -91 45 -173.5t111.5 -131t154.5 -32.5z" />
    <glyph glyph-name="A" unicode="A" horiz-adv-x="1271" 
d="M1251 14v-14h-315v14q26 26 30 63.5t-8 83.5t-43 128l-100 260h-508l-55 -156q-52 -147 -52 -230t62 -149v-14h-242v14q69 72 118 156t98 223l307 864l-68 177h162l399 -1041q60 -146 106 -225.5t109 -153.5zM313 565h496l-258 670z" />
    <glyph glyph-name="B" unicode="B" horiz-adv-x="1310" 
d="M748 764q76 -7 145.5 -24t135.5 -47.5t114 -72.5t77 -102.5t29 -132.5q0 -83 -38 -150.5t-98.5 -110.5t-141 -71.5t-162 -40.5t-164.5 -12h-563v14q24 14 34.5 41t10.5 80v1161q0 53 -10.5 80t-34.5 41v17h475q72 0 137 -5.5t136.5 -18.5t128.5 -38.5t103.5 -62t72.5 -92
t26 -125.5q0 -276 -413 -328zM289 1417v-647h268q442 0 442 322q0 325 -442 325h-268zM645 14q97 0 174.5 21.5t127.5 56.5t83 84t46.5 100.5t13.5 108.5t-13.5 108t-46.5 99.5t-83 83.5t-127.5 56.5t-174.5 21.5h-356v-740h356z" />
    <glyph glyph-name="C" unicode="C" horiz-adv-x="1546" 
d="M1470 412l15 -6q-203 -418 -670 -418q-149 0 -287.5 58t-241 155.5t-164 234t-61.5 285.5t64 285.5t170 234t247.5 155.5t291.5 58q158 0 273.5 -40t254.5 -132l-62 -233h-14q-78 123 -177.5 211t-227 130t-256.5 15q-102 -22 -183 -82.5t-130 -146t-73.5 -188.5
t-19 -215t38.5 -220q83 -270 289.5 -402.5t476.5 -91.5q139 20 254 110t192 243z" />
    <glyph glyph-name="D" unicode="D" horiz-adv-x="1476" 
d="M594 1434q175 0 328 -55.5t261 -151.5t170 -228.5t62 -281.5q0 -150 -62 -283t-170 -228t-261 -150.5t-328 -55.5h-512v14q24 14 34.5 41t10.5 80v1161q0 53 -10.5 80t-34.5 41v17h512zM594 14q150 0 275.5 56.5t208.5 153t129 224t46 269.5q0 190 -78 348t-230 255
t-351 97h-305v-1403h305z" />
    <glyph glyph-name="E" unicode="E" horiz-adv-x="1019" 
d="M946 256l12 -8l-45 -248h-831v14q24 14 34.5 41t10.5 80v1161q0 53 -10.5 80t-34.5 41v17h766l43 -228l-10 -8q-41 46 -79.5 80t-93.5 68.5t-125 52.5t-151 18h-143v-604l516 45v-104l-516 43v-783h166q157 0 284 69t207 173z" />
    <glyph glyph-name="F" unicode="F" horiz-adv-x="960" 
d="M854 1434l66 -250l-11 -6q-44 50 -79 83t-92 73.5t-126.5 61.5t-150.5 21h-172v-669l471 43v-105l-471 45v-596q0 -53 10.5 -80t34.5 -41v-14h-252v14q24 14 34.5 41t10.5 80v1161q0 53 -10.5 80t-34.5 41v17h772z" />
    <glyph glyph-name="G" unicode="G" horiz-adv-x="1562" 
d="M1126 682h365v-16q-24 -14 -34.5 -40.5t-10.5 -80.5v-221q-18 -40 -50 -81t-88.5 -88t-126.5 -83t-171.5 -60t-216.5 -24q-198 0 -366.5 98t-267 266.5t-98.5 368.5q0 149 64 285.5t170 234t247.5 155.5t291.5 58q158 0 273.5 -40t254.5 -132l-62 -233h-14
q-78 123 -177.5 211t-227 130t-256.5 15q-102 -22 -183 -82.5t-130 -146t-73.5 -188.5t-19 -215t38.5 -220q85 -274 279 -412.5t464 -103.5q168 22 283 147v273q0 94 -41.5 149.5t-116.5 59.5v16z" />
    <glyph glyph-name="H" unicode="H" horiz-adv-x="1292" 
d="M1210 1417q-24 -14 -34.5 -41t-10.5 -80v-1161q0 -53 10.5 -80t34.5 -41v-14h-254v14q25 14 36.5 41t11.5 80v707h-713v-707q0 -53 10.5 -80t34.5 -41v-14h-254v14q25 14 36 41t11 80v1161q0 53 -11 80t-36 41v17h254v-17q-24 -14 -34.5 -41t-10.5 -80v-440h713v440
q0 53 -11.5 80t-36.5 41v17h254v-17z" />
    <glyph glyph-name="I" unicode="I" horiz-adv-x="417" 
d="M336 1417q-25 -14 -36 -41t-11 -80v-1161q0 -53 11 -80t36 -41v-14h-254v14q24 14 34.5 41t10.5 80v1161q0 53 -10.5 80t-34.5 41v17h254v-17z" />
    <glyph glyph-name="J" unicode="J" horiz-adv-x="501" 
d="M100 1434h320v-17q-25 -14 -36 -40.5t-11 -80.5v-964q0 -102 -28.5 -185.5t-70 -137.5t-106 -99t-118.5 -69.5t-126 -49.5l-6 19q75 34 123.5 69.5t90 94t60.5 146.5t19 212v944q0 63 -28 100t-83 41v17z" />
    <glyph glyph-name="K" unicode="K" horiz-adv-x="1261" 
d="M1241 14v-14h-326v14q19 19 23 42.5t-9.5 60t-31 70t-53.5 94.5l-320 563l-233 -240v-469q0 -53 10.5 -80t34.5 -41v-14h-254v14q25 14 36 41t11 80v1161q0 54 -11 80.5t-36 40.5v17h254v-17q-24 -14 -34.5 -40.5t-10.5 -80.5v-671l428 442q143 149 177.5 226t-22.5 124
v17h269v-17q-73 -38 -163.5 -117.5t-234.5 -226.5l-112 -119l346 -606q78 -137 135 -206.5t127 -127.5z" />
    <glyph glyph-name="L" unicode="L" horiz-adv-x="1021" 
d="M969 256l12 -8l-45 -248h-854v14q25 14 36 41t11 80v1161q0 54 -11 80.5t-36 40.5v17h254v-17q-24 -14 -34.5 -40.5t-10.5 -80.5v-1282h186q159 0 285.5 68.5t206.5 173.5z" />
    <glyph glyph-name="M" unicode="M" horiz-adv-x="1685" 
d="M1604 1417q-26 -14 -37 -40.5t-11 -80.5v-1161q0 -53 11.5 -80t36.5 -41v-14h-254v14q47 27 47 121v1237l-566 -979h-18l-586 893v-1040q0 -66 39 -136t90 -96v-14h-274v14q51 26 90 96t39 136v1061l-92 127h184l588 -908l522 908h191v-17z" />
    <glyph glyph-name="N" unicode="N" horiz-adv-x="1443" 
d="M1087 1434h275v-17q-51 -26 -90 -94.5t-39 -134.5v-1188h-31l-975 1247v-1001q0 -66 39.5 -136t91.5 -96v-14h-276v14q52 26 91.5 96t39.5 136v1020l-131 168h207l928 -1176v930q0 65 -39.5 134t-90.5 95v17z" />
    <glyph glyph-name="O" unicode="O" horiz-adv-x="1609" 
d="M805 1454q150 0 287 -58t237 -156t159.5 -234t59.5 -285q0 -198 -100.5 -367t-271.5 -267.5t-371 -98.5q-150 0 -287.5 58.5t-237.5 156.5t-159.5 234t-59.5 284q0 149 59.5 285t159.5 234t237.5 156t287.5 58zM1014 37q125 38 212.5 126t127 203.5t40 251t-41.5 271.5
t-117 247.5t-174.5 184.5t-218 97.5t-246.5 -13.5q-125 -38 -212.5 -126t-127 -203.5t-40 -250.5t41.5 -270q42 -136 117 -248t174.5 -185.5t218 -98.5t246.5 14z" />
    <glyph glyph-name="P" unicode="P" horiz-adv-x="1124" 
d="M391 1434q314 0 493 -104.5t179 -315.5q0 -141 -85 -236t-233 -138.5t-354 -43.5h-100v-461q0 -53 10.5 -80t34.5 -41v-14h-254v14q25 14 36 41t11 80v1161q0 54 -11 80.5t-36 40.5v17h309zM391 612q265 0 387.5 106t122.5 296q0 403 -510 403h-100v-805h100z" />
    <glyph glyph-name="Q" unicode="Q" horiz-adv-x="1609" 
d="M1548 721q0 -212 -113 -387t-300 -268l303 -107l-43 -94l-318 176q-127 -53 -272 -53q-150 0 -287.5 58.5t-237.5 156.5t-159.5 234t-59.5 284q0 149 59.5 285t159.5 234t237.5 156t287.5 58q149 0 286 -58t237 -156t160 -234t60 -285zM1014 37q17 5 43 16l-115 64l6 14
l158 -55q98 52 165 140.5t96 196.5t25.5 230.5t-40.5 245.5q-42 136 -117 247.5t-174.5 184.5t-218 97.5t-246.5 -13.5q-125 -38 -212.5 -126t-127 -203.5t-40 -250.5t41.5 -270q42 -136 117 -248t174.5 -185.5t218 -98.5t246.5 14z" />
    <glyph glyph-name="R" unicode="R" horiz-adv-x="1196" 
d="M909 367q83 -146 140.5 -218.5t126.5 -134.5v-14h-316v14q13 13 19.5 27.5t3.5 35.5t-7.5 37.5t-20 48.5t-27.5 54t-37 66l-220 383q-62 -4 -92 -4h-190v-527q0 -53 10.5 -80t34.5 -41v-14h-252v14q24 14 34.5 41t10.5 80v1161q0 54 -10.5 80.5t-34.5 40.5v17h397
q122 0 228.5 -23.5t191.5 -69t134.5 -121.5t49.5 -173q0 -139 -97.5 -229.5t-260.5 -127.5zM479 678q111 0 194 24t129.5 60t74.5 88t36.5 97.5t8.5 99.5q0 55 -8.5 100.5t-36 98t-74 88t-129.5 59.5t-195 24h-190v-739h190z" />
    <glyph glyph-name="S" unicode="S" horiz-adv-x="1187" 
d="M672 1454q109 0 227 -55t223 -137l-61 -213h-14q-161 378 -429 378q-145 0 -233 -69.5t-98 -167.5q-6 -65 18.5 -117.5t71.5 -88.5t110 -66t134 -56.5t142.5 -54t136.5 -64t115.5 -81.5t80.5 -111t30 -148q0 -182 -145 -298.5t-365 -116.5q-170 0 -295.5 50t-259.5 152
l62 234h14q41 -82 95 -150.5t124 -124.5t158.5 -88t185.5 -32q129 0 226.5 71.5t109.5 169.5q8 70 -14.5 125.5t-68.5 94t-108 70t-132.5 59t-141.5 56t-136 65t-115.5 81.5t-80.5 111.5t-30 148.5q0 52 16 103t52.5 100t88.5 86.5t131.5 60.5t174.5 23z" />
    <glyph glyph-name="T" unicode="T" horiz-adv-x="1253" 
d="M1147 1434l65 -250l-12 -6q-44 50 -79 83t-92 73.5t-126.5 61.5t-150.5 21h-45v-1282q0 -94 47 -121v-14h-254v14q47 27 47 121v1282h-45q-65 0 -125.5 -16t-103.5 -37.5t-88 -57.5t-71 -62.5t-61 -65.5l-12 6l65 250h1041z" />
    <glyph glyph-name="U" unicode="U" horiz-adv-x="1349" 
d="M1014 1434h254v-17q-45 -24 -65.5 -88t-20.5 -141v-707q0 -215 -138 -354t-354 -139q-117 0 -217 33t-177.5 97.5t-122 170t-44.5 241.5v766q0 54 -11 80.5t-36 40.5v17h254v-17q-24 -14 -34.5 -40.5t-10.5 -80.5v-766q0 -256 125 -396.5t346 -121.5q92 7 169.5 49.5
t128 107t79 145.5t28.5 167v684q0 92 -41 167t-112 85v17z" />
    <glyph glyph-name="V" unicode="V" horiz-adv-x="1271" 
d="M1251 1417q-68 -72 -117 -155.5t-98 -221.5l-307 -864l68 -176h-162q-341 880 -402 1040q-86 224 -213 377v17h314v-17q-25 -26 -29 -63t8 -83.5t43 -127.5l365 -946l299 843q52 135 51.5 223t-63.5 154v17h243v-17z" />
    <glyph glyph-name="W" unicode="W" horiz-adv-x="2078" 
d="M2058 1417q-69 -72 -116 -154.5t-95 -222.5l-291 -862l70 -178h-162l-401 1040q-17 38 -25 56l-309 -918l68 -178h-160l-401 1040q-60 144 -106.5 223t-109.5 154v17h316v-17q-26 -26 -30.5 -63t7.5 -83.5t43 -127.5l365 -942l285 839q12 40 24 78q-47 105 -87.5 170
t-94.5 129v17h315v-17q-26 -26 -30 -63t8 -83t43 -128l364 -942l285 839q50 137 48 223.5t-66 153.5v17h243v-17z" />
    <glyph glyph-name="X" unicode="X" horiz-adv-x="1396" 
d="M1217 135q26 -37 67 -71.5t72 -49.5v-14h-338v14q77 35 18 121l-391 565l-248 -340q-112 -154 -129.5 -227t43.5 -119v-14h-270v14q78 41 152.5 117.5t183.5 226.5l260 355q-361 519 -404 585q-54 75 -139 119v17h336v-17q-17 -8 -29 -22.5t-15 -35.5t13 -44l342 -494
l181 246q110 152 129 228.5t-41 121.5v17h270v-17q-76 -40 -152 -118t-184 -226l-194 -266z" />
    <glyph glyph-name="Y" unicode="Y" horiz-adv-x="1273" 
d="M1012 1434h241v-17q-55 -47 -84 -77.5t-68.5 -95t-90.5 -171.5l-262 -563v-375q0 -53 11 -80t36 -41v-14h-254v14q24 14 34.5 41t10.5 80v352q-344 646 -387 730q-50 92 -179 200v17h359v-17q-84 -84 24 -284l328 -617l279 592q43 96 55 153t-1 90.5t-52 65.5v17z" />
    <glyph glyph-name="Z" unicode="Z" 
d="M1069 256l12 -8l-45 -248h-846h-170l838 1417h-319q-80 0 -149.5 -21t-126.5 -61.5t-92 -73t-81 -83.5l-10 6l65 250h893l-839 -1420h379q157 0 284 69t207 173z" />
    <glyph glyph-name="bracketleft" unicode="[" horiz-adv-x="598" 
d="M516 1759h-420v-2085h420v-16h-434v2116h434v-15z" />
    <glyph glyph-name="backslash" unicode="\" horiz-adv-x="907" 
d="M96 1774l729 -2116h-14l-729 2116h14z" />
    <glyph glyph-name="bracketright" unicode="]" horiz-adv-x="598" 
d="M82 1774h434v-2116h-434v16h420v2085h-420v15z" />
    <glyph glyph-name="asciicircum" unicode="^" horiz-adv-x="733" 
d="M367 1454l284 -328l-12 -10l-272 318l-273 -318l-12 10z" />
    <glyph glyph-name="underscore" unicode="_" horiz-adv-x="952" 
d="M82 -41h788v-14h-788v14z" />
    <glyph glyph-name="grave" unicode="`" horiz-adv-x="522" 
d="M190 1483q122 -108 250 -230l-12 -18q-112 41 -305 154q-34 20 -39.5 47.5t10.5 44.5q15 22 39.5 25t56.5 -23z" />
    <glyph glyph-name="a" unicode="a" horiz-adv-x="1056" 
d="M995 14v-14h-207v287q-88 -299 -362 -299q-86 0 -161.5 25.5t-129.5 78t-67 123.5q-13 76 1 140.5t50.5 112.5t85 83t110.5 61q-16 37 -17.5 84.5t16.5 98t51.5 93t95 70t139.5 27.5q53 0 102 -11t94.5 -37t79.5 -64.5t54 -97.5t20 -132v-508q0 -53 10.5 -80t34.5 -41z
M582 965q-67 0 -124.5 -30.5t-90.5 -79.5t-44.5 -110.5t13.5 -123.5q149 55 330 55q56 0 122 -19v15q0 81 -20.5 145.5t-68 106t-117.5 41.5zM475 14q64 4 117.5 31.5t91 73t63 96t41.5 109.5v315q-45 18 -122 18q-59 0 -116 -10t-116.5 -32t-104 -58.5t-77.5 -88.5
t-38.5 -122t13.5 -160q19 -80 93.5 -128.5t154.5 -43.5z" />
    <glyph glyph-name="b" unicode="b" horiz-adv-x="1161" 
d="M719 985q64 0 129.5 -27t120.5 -76t91 -128t38 -172q3 -105 -22 -192.5t-67.5 -147.5t-103 -106.5t-122.5 -74t-132.5 -44.5t-127 -23t-111.5 -6q-60 0 -137 22t-91 21q-31 -2 -43 -43h-12v1331q0 56 -8.5 75t-38.5 23v17l194 43h15v-1053q10 65 25 124.5t38.5 126
t57 120t76.5 97.5t102.5 68.5t128.5 24.5zM414 0q47 0 93 6.5t102 24.5t104 45.5t93.5 75t76.5 109t47 151.5t10 198q-5 91 -45 174t-111.5 132t-154.5 32q-81 -16 -149 -94.5t-107.5 -181.5t-60.5 -201t-21 -168v-285q50 -20 123 -18z" />
    <glyph glyph-name="c" unicode="c" horiz-adv-x="1126" 
d="M270 334q57 -160 179 -242t278 -67q209 21 346 258l12 -7q-149 -272 -428 -288q-108 -5 -208 22t-181 84t-131 153t-53 218q-3 102 30.5 189.5t89.5 147t128 102t145.5 62t143.5 19.5q83 0 192.5 -32t194.5 -76l-31 -170h-12q-19 48 -62.5 98t-101 91.5t-131 61
t-142.5 3.5q-73 -17 -131.5 -63.5t-93.5 -111.5t-52 -141t-12 -157t31 -154z" />
    <glyph glyph-name="d" unicode="d" horiz-adv-x="1161" 
d="M1100 14v-14h-207v549q-11 -65 -26 -124.5t-38.5 -126t-57.5 -120t-77 -97.5t-102.5 -68.5t-128.5 -24.5q-64 0 -128.5 27t-120 76.5t-91.5 128.5t-39 173q-2 105 23 192t68 147t103 106.5t122.5 73.5t132.5 44t126.5 23t110.5 6q60 0 123 -18v352q0 56 -8.5 75t-38.5 23
v17l194 43h15v-1342q0 -53 10.5 -80t34.5 -41zM555 25q81 16 148.5 94.5t107 181.5t61 201t21.5 168v286q-1 0 -14 3.5t-26.5 6.5t-36.5 6t-46 3q-48 -1 -94 -7.5t-102 -24.5t-104 -46t-93.5 -76t-76 -109.5t-46.5 -151.5t-10 -198q4 -67 28.5 -132t64 -115.5t97.5 -76
t121 -13.5z" />
    <glyph glyph-name="e" unicode="e" 
d="M872 662q95 -25 156.5 -114.5t50.5 -221.5q-5 -58 -32.5 -114.5t-78 -108t-134 -83.5t-187.5 -32q-87 0 -166.5 17t-151.5 54t-125 91.5t-85.5 135.5t-34.5 179q-3 102 30.5 188.5t89 144.5t128.5 100t145.5 62.5t143.5 24.5q69 3 139 -13t135.5 -52t111.5 -102.5
t56 -155.5h-145h-46zM528 961q-100 -19 -168.5 -96t-97.5 -187h653q-21 139 -131 225t-256 58zM1061 322q9 77 -10 142.5t-58.5 108t-92.5 66t-112 23.5h-530q-42 -171 14 -328q111 -314 439 -301q133 6 234 88t116 201z" />
    <glyph glyph-name="f" unicode="f" horiz-adv-x="759" 
d="M760 969h-395v-834q0 -53 10.5 -80t34.5 -41v-14h-252v14q24 14 34.5 41t10.5 80v670q0 164 -121 164v16h301q-101 5 -197 76.5t-96 167.5q0 108 84 178t232 70q160 0 266 -76l-31 -215h-14q-16 40 -39 81.5t-55.5 83t-68 68.5t-76.5 38t-81 -9q-51 -22 -70.5 -92.5
t-5.5 -157.5q6 -36 21.5 -71t43.5 -68t75 -53.5t106 -20.5h283v-16z" />
    <glyph glyph-name="g" unicode="g" horiz-adv-x="1312" 
d="M1143 55q88 1 129 -41.5t41 -115.5q0 -77 -59 -140t-145 -95t-175 -32q-52 0 -96 12.5t-76 36.5t-53 46t-43 53q-181 -110 -293 -117q-85 -6 -138.5 25.5t-54.5 99.5q-1 45 30.5 83t83 62.5t108.5 40t114 21.5q-188 23 -311 141.5t-123 306.5q0 122 48.5 226.5
t127.5 172.5t178 106t203 38q120 0 229 -45l351 102l12 -102l-330 -14q115 -56 182.5 -158.5t67.5 -237.5q0 -96 -31.5 -182t-85.5 -151t-124.5 -112.5t-151.5 -72t-164 -24.5q-13 0 -21 2q-74 -3 -136 -20t-106.5 -57.5t-39.5 -98.5q3 -54 31.5 -85.5t83.5 -31.5
q17 0 34.5 2t37.5 8.5t36 11.5t40 17l38 19t42 23.5t40 23.5t43.5 26.5t42.5 26.5q41 24 107 67t104.5 67t86.5 44.5t85 21.5zM256 377q57 -194 193.5 -298t304.5 -54q84 25 142.5 83t84 135.5t25.5 168t-27 184.5q-57 193 -193.5 297t-304.5 55q-85 -25 -143.5 -83
t-84 -135.5t-25 -168t27.5 -184.5zM1188 -137q3 77 -21 118t-82 33q-13 -2 -30 -8t-39.5 -17t-42 -21.5t-48.5 -28.5t-49 -30t-53 -33t-51 -32q-15 -9 -46 -27.5t-46 -27.5q19 -28 36 -47t47.5 -44t73.5 -38t97 -14q117 -1 182.5 56.5t71.5 160.5z" />
    <glyph glyph-name="h" unicode="h" horiz-adv-x="1134" 
d="M1036 135q6 -53 19.5 -80t38.5 -41v-14h-252v14q43 25 35 121q-4 30 -13.5 134t-20.5 227t-14 159q-5 49 -17 93.5t-34 86t-51 70t-72 41t-94 2.5q-65 -13 -115.5 -68.5t-79 -127.5t-46.5 -161.5t-23.5 -158t-5.5 -129.5v-168q0 -53 10.5 -80t34.5 -41v-14h-254v14
q25 14 36 41t11 80v1184q0 56 -8.5 75t-38.5 23v17l192 43h17v-1000q8 77 21.5 141.5t40.5 135.5t64.5 119t98 80t137.5 32q132 0 224 -91.5t110 -268.5q10 -88 20.5 -191.5t18.5 -189t10 -109.5z" />
    <glyph glyph-name="i" unicode="i" horiz-adv-x="397" 
d="M289 135q0 -53 11 -80t36 -41v-14h-254v14q24 14 34.5 41t10.5 80v692q0 56 -8.5 75.5t-36.5 23.5v14l192 45h15v-850zM203 1151q-40 0 -68.5 28t-28.5 68t28.5 68t68.5 28t68 -28t28 -68t-28 -68t-68 -28z" />
    <glyph glyph-name="j" unicode="j" horiz-adv-x="417" 
d="M293 985h14v-991q0 -74 -12 -137.5t-30.5 -110.5t-49 -88.5t-60.5 -69.5t-72.5 -54.5t-77 -43.5t-81.5 -37l-6 21q97 46 142 95t65 139.5t20 262.5v856q0 56 -8.5 75.5t-36.5 23.5v14zM219 1151q-38 0 -66 28t-28 68t28 68t66 28q40 0 68 -28t28 -68t-28 -68t-68 -28z
" />
    <glyph glyph-name="k" unicode="k" horiz-adv-x="1054" 
d="M745 375q118 -192 171.5 -261.5t117.5 -99.5v-14h-311v14q23 18 24 45t-13 58.5t-48 89.5l-231 377l-166 -146v-293q0 -105 47 -131v-14h-254v14q45 26 45 131v1186q0 53 -7.5 67t-37.5 19v17l192 43h15v-1020l217 190q81 72 128.5 122t70 89t16.5 65t-37 46v16h270v-16
q-78 -31 -158 -92t-239 -201z" />
    <glyph glyph-name="l" unicode="l" horiz-adv-x="395" 
d="M289 135q0 -53 10.5 -80t34.5 -41v-14h-252v14q24 14 34.5 41t10.5 80v1184q0 56 -8 75t-37 23v17l192 43h15v-1342z" />
    <glyph glyph-name="m" unicode="m" horiz-adv-x="1677" 
d="M1579 135q6 -53 19.5 -80t37.5 -41v-14h-252v14q43 25 35 121q-3 30 -12.5 134.5t-20 225.5t-14.5 160q-7 63 -22 116.5t-41 100t-70.5 68t-101.5 8.5q-210 -46 -215 -573v-240q0 -53 10.5 -80t34.5 -41v-14h-252v14q24 14 34.5 41t10.5 80v520q0 83 -23.5 152.5
t-78 112.5t-130.5 28q-239 -45 -239 -645v-168q0 -94 47 -121v-14h-254v14q47 27 47 121v692q0 56 -8.5 75.5t-38.5 23.5v14l192 45h15v-455q8 73 19.5 131.5t35.5 121.5t58 105t89.5 69.5t126.5 27.5q123 0 209.5 -98t92.5 -262l2 -23q48 383 307 383q124 0 203.5 -91.5
t97.5 -268.5q10 -88 20.5 -191.5t18.5 -189t10 -109.5z" />
    <glyph glyph-name="n" unicode="n" horiz-adv-x="1134" 
d="M1036 135q6 -53 19.5 -80t38.5 -41v-14h-254v14q24 13 31.5 40.5t2.5 80.5q-30 337 -47 520q-4 48 -15.5 93t-33.5 86.5t-51 70t-72 41t-94 2.5q-65 -13 -116 -68.5t-79.5 -127.5t-46.5 -161t-24 -158.5t-6 -129.5v-168q0 -53 11 -80t36 -41v-14h-254v14q24 14 34.5 41
t10.5 80v692q0 56 -8.5 75.5t-36.5 23.5v14l192 45h15v-508q9 78 22 141.5t40.5 135t65 119.5t97.5 80t137 32q133 0 225.5 -91.5t110.5 -268.5q8 -78 19 -191.5t19 -189.5t11 -109z" />
    <glyph glyph-name="o" unicode="o" horiz-adv-x="1210" 
d="M637 985q138 0 253.5 -53.5t187 -159t71.5 -242.5q0 -96 -31.5 -182t-85.5 -151t-124.5 -112.5t-151 -72t-162.5 -24.5q-140 0 -255 52.5t-186 157.5t-71 244q0 122 48 226.5t127 172.5t177.5 106t202.5 38zM752 25q85 25 143.5 83t84 135.5t25 168t-27.5 184.5
q-57 193 -193.5 297t-304.5 55q-85 -25 -143.5 -83t-84 -135.5t-25 -168t27.5 -184.5q57 -194 193.5 -298t304.5 -54z" />
    <glyph glyph-name="p" unicode="p" horiz-adv-x="1161" 
d="M717 985q51 0 103.5 -16.5t101 -50.5t87 -81.5t63 -113.5t26.5 -141q2 -105 -23 -192.5t-68 -147.5t-103 -106.5t-122.5 -74t-133 -44.5t-127 -23t-111.5 -6q-58 0 -121 18v-352q0 -56 8 -75t37 -23v-15l-193 -45h-14v1331q0 56 -8.5 75.5t-36.5 23.5v14l192 45h15v-561
q10 65 25 124.5t38.5 126t57 120t76.5 97.5t102.5 68.5t128.5 24.5zM412 0q47 0 93 6.5t102 24.5t104 45.5t93.5 75t76.5 109t47 151.5t10 198q-5 91 -44.5 174t-111 132t-155.5 32q-81 -16 -148.5 -94.5t-107 -181.5t-61 -201t-21.5 -168v-285q50 -20 123 -18z" />
    <glyph glyph-name="q" unicode="q" horiz-adv-x="1161" 
d="M1053 -346q0 -56 8.5 -75t38.5 -23v-15l-193 -45h-16v1053q-10 -65 -25 -124.5t-38.5 -126t-57 -120t-76.5 -97.5t-102.5 -68.5t-128.5 -24.5q-64 0 -129.5 27t-120.5 76.5t-91 128.5t-38 173q-3 105 22 192t67.5 147t103 106.5t122.5 73.5t132.5 44t127 23t111.5 6
q60 0 136.5 -22t90.5 -21q31 2 43 43h13v-1331zM891 670v286q-1 0 -14 3.5t-26.5 6.5t-36.5 6t-46 3q-47 -1 -93 -7.5t-102 -24.5t-104 -46t-93.5 -76t-76.5 -109.5t-47 -151.5t-10 -198q5 -91 45 -173.5t111.5 -131t154.5 -32.5q81 16 149 94.5t107.5 181.5t60.5 201
t21 168z" />
    <glyph glyph-name="r" unicode="r" horiz-adv-x="829" 
d="M586 985q80 0 134 -28.5t109 -92.5l-124 -176l-15 8q-2 63 -21 121.5t-59 98.5t-92 32q-48 -7 -86.5 -52t-62 -114.5t-40 -145.5t-24.5 -161.5t-11 -146t-3 -113.5v-80q0 -53 10.5 -80t34.5 -41v-14h-254v14q25 14 36 41t11 80v692q0 56 -8.5 75.5t-38.5 23.5v14l192 45
h17v-549q44 549 295 549z" />
    <glyph glyph-name="s" unicode="s" horiz-adv-x="937" 
d="M498 985q74 0 166.5 -39.5t160.5 -91.5l-41 -188h-10q-47 131 -135 216t-176 85q-99 0 -159 -47t-68 -115q-6 -55 27 -97.5t90.5 -70.5t128.5 -52t141.5 -51t128.5 -59.5t92.5 -84.5t29.5 -120q-9 -124 -116.5 -203t-276.5 -79q-214 0 -399 137l43 205h10
q28 -56 68.5 -109.5t92 -100.5t116 -75.5t129.5 -28.5q108 0 184.5 48t85.5 116q6 43 -13 76t-56 55.5t-87 41t-105.5 35.5t-111 36t-105 45.5t-85.5 60.5t-54 85.5t-10 115.5q31 254 314 254z" />
    <glyph glyph-name="t" unicode="t" horiz-adv-x="776" 
d="M807 362l10 -4q-13 -62 -30 -113t-45 -100t-63.5 -82.5t-87 -54t-114.5 -20.5q-140 0 -217.5 91t-77.5 269v621h-121v16q189 0 189 281h162q0 -112 -89.5 -194t-189.5 -87h453v-16h-242v-652q0 -71 10.5 -124.5t35 -96t69.5 -61t108 -10.5q166 22 240 337z" />
    <glyph glyph-name="u" unicode="u" horiz-adv-x="1097" 
d="M1036 14v-14h-209v498q-9 -79 -22 -143t-40.5 -135.5t-65 -119.5t-97.5 -80t-137 -32q-148 0 -243 93t-95 267v479q0 56 -8.5 75.5t-36.5 23.5v14l192 45h15v-668q0 -91 29.5 -162t91.5 -108.5t147 -21.5q65 13 115.5 68.5t79 127.5t46.5 161.5t23.5 158t5.5 129.5v157
q0 56 -8.5 75.5t-36.5 23.5v14l193 45h14v-850q0 -53 11 -80t36 -41z" />
    <glyph glyph-name="v" unicode="v" horiz-adv-x="1048" 
d="M1028 969q-71 -72 -126 -158.5t-109 -220.5l-175 -434l66 -156h-162l-254 598q-70 164 -114 238.5t-113 132.5v16h313v-16q-26 -27 -30 -60t6 -66t37 -100l243 -569l168 418q41 101 56.5 166t5.5 119.5t-54 91.5v16h242v-16z" />
    <glyph glyph-name="w" unicode="w" horiz-adv-x="1558" 
d="M1296 985h242v-16q-62 -59 -109 -132.5t-96 -189.5l-182 -477l66 -170h-162q-252 659 -262 686l-168 -541l61 -145h-162l-254 598q-70 165 -114 239t-115 132v16h315v-16q-26 -27 -30 -60t6 -66t37 -100l245 -577l170 541q-41 102 -76 158.5t-92 103.5v16h316v-16
q-15 -16 -24 -31t-9.5 -37.5t-0.5 -37t11 -50t17.5 -54t25.5 -69.5l193 -500l151 402q40 102 54 167.5t2.5 119.5t-56.5 90v16z" />
    <glyph glyph-name="x" unicode="x" horiz-adv-x="1107" 
d="M938 156q87 -115 170 -142v-14h-344v14q18 8 29 21.5t9 39t-24 56.5l-272 358l-105 -135q-73 -96 -109.5 -162.5t-36 -112t41.5 -65.5v-14h-256v14q86 37 151 103.5t187 228.5l119 154l-252 329q-84 111 -168 140v16h344v-16q-14 -6 -23 -15.5t-14 -23.5t1 -35t24 -45
l213 -281l47 62q73 94 109.5 161t36.5 112.5t-40 64.5v16h254v-16q-86 -35 -150 -101t-188 -229l-61 -80z" />
    <glyph glyph-name="y" unicode="y" horiz-adv-x="1062" 
d="M1042 969q-71 -72 -126 -158.5t-109 -220.5q-164 -408 -238 -590q-24 -60 -47 -106.5t-53.5 -91.5t-63 -74.5t-74.5 -47.5t-89 -18q-163 0 -242 145l160 146l12 -10q-10 -43 -6.5 -90.5t14 -87t39 -63t68.5 -19.5q131 15 258 299l-262 616q-70 163 -114.5 238t-113.5 133
v16h314v-16q-25 -27 -29.5 -59.5t5.5 -67t36 -99.5l244 -569l168 418q41 102 57 166.5t6 119t-55 91.5v16h241v-16z" />
    <glyph glyph-name="z" unicode="z" horiz-adv-x="964" 
d="M911 256l13 -8l-45 -248h-818l656 971h-187q-66 0 -123.5 -13.5t-97.5 -32t-81.5 -51.5t-65.5 -57.5t-58 -64.5l-12 8l68 225h737l-655 -971h243q58 0 107 9t89.5 28t69.5 37t61 51t50 54.5t49 62.5z" />
    <glyph glyph-name="braceleft" unicode="{" horiz-adv-x="598" 
d="M270 -238q52 -41 120.5 -48t117.5 24l8 -14q-52 -33 -126.5 -25.5t-129.5 51.5t-69.5 113t14.5 151q66 179 76 326.5t-39 218.5q-34 49 -92 49h-68v19h68q57 0 92 47q49 71 39 219.5t-76 325.5q-29 82 -14.5 151t69.5 113q56 44 129.5 52t126.5 -26l-8 -14
q-50 31 -117.5 23.5t-120.5 -48.5q-107 -90 -49 -245q67 -181 76.5 -333.5t-41.5 -225.5q-25 -38 -61 -50q36 -12 61 -47q51 -73 41.5 -226.5t-76.5 -334.5q-58 -156 49 -246z" />
    <glyph glyph-name="bar" unicode="|" horiz-adv-x="178" 
d="M82 1774h14v-2116h-14v2116z" />
    <glyph glyph-name="braceright" unicode="}" horiz-adv-x="595" 
d="M328 -238q107 90 49 246q-67 181 -76.5 334.5t41.5 226.5q25 35 61 47q-36 12 -61 50q-51 73 -41.5 225.5t76.5 333.5q58 155 -49 245q-53 41 -120.5 48.5t-117.5 -23.5l-8 14q53 34 126.5 26t129.5 -52t70 -113t-15 -151q-66 -177 -76 -325.5t39 -219.5q35 -47 93 -47
h65v-19h-65q-59 0 -93 -49q-49 -71 -39 -218.5t76 -326.5q29 -82 15 -151t-70 -113q-55 -44 -129.5 -51.5t-126.5 25.5l8 14q49 -31 117.5 -24t120.5 48z" />
    <glyph glyph-name="asciitilde" unicode="~" horiz-adv-x="1177" 
d="M834 432q-42 0 -79 9.5t-74 31.5t-58 37t-60 47q-46 36 -69 52t-63.5 33t-78.5 17q-182 0 -254 -219l-16 6q37 113 105.5 171.5t164.5 58.5q40 0 82.5 -17.5t67 -35t71.5 -54.5q37 -30 58 -45t56.5 -36t71 -30t75.5 -9q88 0 152 51t95 145l15 -4q-32 -100 -101 -154.5
t-161 -54.5z" />
    <glyph glyph-name="exclamdown" unicode="&#xa1;" horiz-adv-x="409" 
d="M211 600l117 -1061h-246l115 1061h14zM205 764q-46 0 -78.5 32t-32.5 78t32.5 78.5t78.5 32.5t78 -32.5t32 -78.5t-32 -78t-78 -32z" />
    <glyph glyph-name="cent" unicode="&#xa2;" horiz-adv-x="1167" 
d="M1073 512l12 -6q-148 -271 -428 -287h-65v-217h-14v217q-97 6 -183.5 38.5t-155.5 90t-110.5 146.5t-44.5 200q-3 96 26.5 179t79.5 141.5t116 102t134.5 66.5t137.5 29v220h14v-220q10 2 29 2q83 0 192.5 -32t194.5 -76l-31 -170h-12q-38 92 -146.5 176.5t-226.5 85.5
v-938q64 -12 135 -6q209 21 346 258zM270 563q42 -120 122 -196t186 -103v932q-26 0 -50 -6q-73 -17 -131.5 -63.5t-93.5 -111.5t-52 -141t-12 -157t31 -154z" />
    <glyph glyph-name="sterling" unicode="&#xa3;" horiz-adv-x="1271" 
d="M1174 242h16l-33 -242h-991v14q61 46 103 95.5t63.5 96t29 97.5t3 97.5t-18.5 99.5t-31 99.5t-39 101.5q-1 3 -2 4h-192v16h186q-18 45 -28.5 72.5t-25 70t-21 75t-12 71t-4.5 76t9 73.5q19 88 90 158.5t173 107t210 29.5q107 -7 223 -67t218 -148l-84 -233h-15
q-28 196 -131 313t-217 115q-137 -2 -222.5 -86t-78.5 -230q3 -51 10 -109t13 -95.5t17.5 -102.5t15.5 -90h417v-16h-415q14 -85 18 -148.5t-2 -135.5t-33 -138.5t-74 -130.5h691q66 0 104.5 20t59.5 70z" />
    <glyph glyph-name="currency" unicode="&#xa4;" horiz-adv-x="1230" 
d="M1149 760q0 -232 -174 -393l151 -150l-10 -12l-153 151q-76 -66 -172.5 -101.5t-196.5 -35.5q-212 0 -352 113l-127 -127l-11 12l125 125q-147 127 -147 330q0 121 46 222t126 173l-150 150l11 10l151 -150q76 66 173.5 101.5t197.5 35.5q207 0 352 -114l127 127l10 -10
l-127 -127q150 -127 150 -330zM752 254q85 25 143.5 83t84 136t25 168.5t-27.5 183.5q-37 125 -108.5 216.5t-174 131.5t-215.5 7q-85 -25 -143.5 -84t-84 -136.5t-25 -168t27.5 -183.5q56 -195 193 -299t305 -55z" />
    <glyph glyph-name="yen" unicode="&#xa5;" horiz-adv-x="1396" 
d="M1073 1434h242v-17q-55 -47 -84 -77.5t-69.5 -95t-90.5 -171.5l-262 -563v-10h315v-17h-315v-151h315v-17h-315v-180q0 -52 11 -78.5t36 -42.5v-14h-254v14q25 15 36 41.5t11 79.5v180h-313v17h313v151h-313v17h307q-27 49 -198 370.5t-185 346.5q-30 56 -74 102.5
t-104 97.5v17h358v-17q-82 -85 25 -284l328 -617l278 592q43 96 55 153t-1 90.5t-52 65.5v17z" />
    <glyph glyph-name="brokenbar" unicode="&#xa6;" horiz-adv-x="180" 
d="M82 1774h16v-789h-16v789zM82 -342v788h16v-788h-16z" />
    <glyph glyph-name="section" unicode="&#xa7;" horiz-adv-x="1161" 
d="M1079 668q0 -94 -41.5 -174t-117.5 -136q77 -90 77 -225q0 -66 -26.5 -129t-79 -119t-144.5 -90.5t-210 -34.5q-197 0 -451 193l61 213h15q162 -379 428 -379q145 0 233.5 70t98.5 168q6 65 -18.5 117.5t-72 88.5t-110 66t-133.5 56.5t-142.5 54t-137 64t-116 81
t-80.5 110.5t-30 148q0 93 42.5 172.5t117.5 136.5q-78 95 -78 226q0 51 16 102t52 100t88.5 86.5t131 60.5t173.5 23q200 0 450 -194l-61 -211h-15q-162 379 -426 379q-146 0 -234.5 -70t-96.5 -168q-6 -65 18.5 -117.5t71.5 -88.5t109.5 -66t133.5 -56.5t142 -54t136 -64
t115.5 -81t80.5 -110.5t30 -148zM172 944q-8 -71 15.5 -127.5t71.5 -95.5t110 -70t136 -60t143 -56.5t137.5 -67.5t113.5 -86q81 68 90 154q9 71 -14.5 127t-71.5 95t-110 70.5t-136.5 60t-143.5 56.5t-137.5 68t-113.5 86q-78 -68 -90 -154z" />
    <glyph glyph-name="dieresis" unicode="&#xa8;" horiz-adv-x="700" 
d="M170 1356q38 0 64 -26.5t26 -63.5t-26 -63.5t-64 -26.5q-37 0 -62.5 26.5t-25.5 63.5t25.5 63.5t62.5 26.5zM528 1356q37 0 63.5 -26.5t26.5 -63.5t-26.5 -63.5t-63.5 -26.5t-63.5 26.5t-26.5 63.5t26.5 63.5t63.5 26.5z" />
    <glyph glyph-name="copyright" unicode="&#xa9;" horiz-adv-x="1540" 
d="M905 252q147 22 228 180l8 -2q-102 -213 -342 -213q-156 0 -270.5 109.5t-114.5 263.5q0 101 55 188t145.5 137t192.5 50q82 0 141 -20.5t129 -67.5l-30 -119h-9q-61 97 -150.5 150t-187.5 32q-52 -11 -93 -42.5t-66 -75t-37.5 -96t-9.5 -109.5t20 -111q41 -138 147 -206
t244 -48zM770 1268q186 0 344.5 -92.5t251 -251t92.5 -344.5t-92.5 -345t-251 -251.5t-344.5 -92.5t-344.5 92.5t-251 251.5t-92.5 345t92.5 344.5t251 251t344.5 92.5zM770 -92q182 0 337 90t245 245t90 337q0 137 -53 261t-143 214t-214.5 143t-261.5 53t-261.5 -53
t-214.5 -143t-143 -214t-53 -261q0 -182 90 -337t245 -245t337 -90z" />
    <glyph glyph-name="guillemotleft" unicode="&#xab;" horiz-adv-x="780" 
d="M367 315l-285 285l285 285l10 -13l-273 -272l273 -272zM688 315l-285 285l285 285l10 -13l-272 -272l272 -272z" />
    <glyph glyph-name="registered" unicode="&#xae;" horiz-adv-x="1540" 
d="M973 410q42 -75 70.5 -112t64.5 -69v-8h-160v8q9 9 11 21t-3 26.5t-15 34.5t-23 44q-3 4 -4.5 6.5t-2.5 5.5l-112 194h-47h-97v-270q0 -46 23 -62v-8h-129v8q24 15 24 62v594q0 46 -24 61v6h203q85 0 152.5 -19.5t112 -65t44.5 -111.5q0 -70 -49.5 -115.5t-132.5 -67.5z
M752 567q227 0 227 189q0 36 -8 65t-30 59.5t-70 48t-119 17.5h-97v-379h97zM770 1268q186 0 344.5 -92.5t251 -251t92.5 -344.5t-92.5 -345t-251 -251.5t-344.5 -92.5t-344.5 92.5t-251 251.5t-92.5 345t92.5 344.5t251 251t344.5 92.5zM770 -92q182 0 337 90t245 245
t90 337q0 137 -53 261t-143 214t-214.5 143t-261.5 53t-261.5 -53t-214.5 -143t-143 -214t-53 -261q0 -182 90 -337t245 -245t337 -90z" />
    <glyph glyph-name="macron" unicode="&#xaf;" horiz-adv-x="798" 
d="M82 1274h635v-17h-635v17z" />
    <glyph glyph-name="degree" unicode="&#xb0;" horiz-adv-x="497" 
d="M250 1171q-70 0 -119 48.5t-49 117.5q0 71 49 119.5t119 48.5q69 0 117.5 -49t48.5 -119q0 -69 -48.5 -117.5t-117.5 -48.5zM250 1489q-63 0 -107.5 -44.5t-44.5 -107.5q0 -62 44.5 -105.5t107.5 -43.5q62 0 105.5 44t43.5 105q0 63 -43.5 107.5t-105.5 44.5z" />
    <glyph glyph-name="plusminus" unicode="&#xb1;" horiz-adv-x="952" 
d="M485 723h385v-14h-385v-387h-16v387h-387v14h387v387h16v-387zM82 143v17h788v-17h-788z" />
    <glyph glyph-name="acute" unicode="&#xb4;" horiz-adv-x="522" 
d="M428 1481q16 -17 10.5 -44.5t-39.5 -47.5q-193 -113 -305 -154l-12 18q128 122 250 230q32 26 56.5 23t39.5 -25z" />
    <glyph glyph-name="paragraph" unicode="&#xb6;" horiz-adv-x="1181" 
d="M1100 1473v-17h-320v-1456h-14v1456h-307v-1456h-15v750q-151 0 -256.5 105.5t-105.5 254.5q0 151 105.5 257t256.5 106h656z" />
    <glyph glyph-name="cedilla" unicode="&#xb8;" horiz-adv-x="520" 
d="M180 -127q67 26 126.5 18t98 -52t31.5 -105q-6 -57 -61 -99.5t-131 -42.5q-92 0 -162 66l8 12q66 -63 152 -63q54 0 82.5 35t37.5 88q13 89 -39.5 127.5t-156.5 -0.5v4l70 184h12z" />
    <glyph glyph-name="guillemotright" unicode="&#xbb;" horiz-adv-x="780" 
d="M698 600l-284 -285l-11 13l273 272l-273 272l11 13zM377 600l-285 -285l-10 13l272 272l-272 272l10 13z" />
    <glyph glyph-name="questiondown" unicode="&#xbf;" horiz-adv-x="1058" 
d="M618 764q-46 0 -78 32t-32 78t32 78.5t78 32.5t78.5 -32.5t32.5 -78.5t-32.5 -78t-78.5 -32zM893 -31l84 -235q-103 -87 -218.5 -146.5t-221.5 -66.5q-166 -12 -299 73.5t-152 219.5q-11 83 13.5 160t73 138t121.5 117t149.5 97t166.5 77v197h17v-209
q-102 -47 -175.5 -103.5t-113 -108.5t-61 -112.5t-25.5 -107.5t0 -102q9 -133 86.5 -224t202.5 -92q113 -2 211.5 114t126.5 314h14z" />
    <glyph glyph-name="Agrave" unicode="&#xc0;" horiz-adv-x="1271" 
d="M1251 14v-14h-315v14q26 26 30 63.5t-8 83.5t-43 128l-100 260h-508l-55 -156q-52 -147 -52 -230t62 -149v-14h-242v14q69 72 118 156t98 223l307 864l-68 177h162l399 -1041q60 -146 106 -225.5t109 -153.5zM313 565h496l-258 670zM467 1892q139 -123 250 -229l-12 -18
q-120 44 -306 153q-34 20 -39 47.5t11 44.5q15 22 39.5 25t56.5 -23z" />
    <glyph glyph-name="Aacute" unicode="&#xc1;" horiz-adv-x="1271" 
d="M1251 14v-14h-315v14q26 26 30 63.5t-8 83.5t-43 128l-100 260h-508l-55 -156q-52 -147 -52 -230t62 -149v-14h-242v14q69 72 118 156t98 223l307 864l-68 177h162l399 -1041q60 -146 106 -225.5t109 -153.5zM313 565h496l-258 670zM778 1890q16 -17 11 -44.5t-39 -47.5
q-186 -109 -306 -153l-12 18q111 106 250 229q32 26 56.5 23t39.5 -25z" />
    <glyph glyph-name="Acircumflex" unicode="&#xc2;" horiz-adv-x="1271" 
d="M1251 14v-14h-315v14q26 26 30 63.5t-8 83.5t-43 128l-100 260h-508l-55 -156q-52 -147 -52 -230t62 -149v-14h-242v14q69 72 118 156t98 223l307 864l-68 177h162l399 -1041q60 -146 106 -225.5t109 -153.5zM313 565h496l-258 670zM594 1855l262 -262l-10 -10l-252 162
l-250 -162l-12 10z" />
    <glyph glyph-name="Atilde" unicode="&#xc3;" horiz-adv-x="1271" 
d="M1251 14v-14h-315v14q26 26 30 63.5t-8 83.5t-43 128l-100 260h-508l-55 -156q-52 -147 -52 -230t62 -149v-14h-242v14q69 72 118 156t98 223l307 864l-68 177h162l399 -1041q60 -146 106 -225.5t109 -153.5zM313 565h496l-258 670zM891 1774l16 -5q-28 -85 -69.5 -133.5
t-106.5 -48.5q-68 0 -183 42.5t-153 41.5q-40 0 -59.5 -19.5t-38.5 -76.5l-16 6q29 88 71 130t111 42q64 0 169.5 -41t162.5 -39q34 0 56 21t40 80z" />
    <glyph glyph-name="Adieresis" unicode="&#xc4;" horiz-adv-x="1271" 
d="M1251 14v-14h-315v14q26 26 30 63.5t-8 83.5t-43 128l-100 260h-508l-55 -156q-52 -147 -52 -230t62 -149v-14h-242v14q69 72 118 156t98 223l307 864l-68 177h162l399 -1041q60 -146 106 -225.5t109 -153.5zM313 565h496l-258 670zM414 1765q38 0 64 -26.5t26 -63.5
t-26 -63.5t-64 -26.5q-37 0 -62.5 26.5t-25.5 63.5t25.5 63.5t62.5 26.5zM772 1765q37 0 63.5 -26.5t26.5 -63.5t-26.5 -63.5t-63.5 -26.5t-63.5 26.5t-26.5 63.5t26.5 63.5t63.5 26.5z" />
    <glyph glyph-name="Aring" unicode="&#xc5;" horiz-adv-x="1271" 
d="M1251 14v-14h-315v14q26 26 30 63.5t-8 83.5t-43 128l-100 260h-508l-55 -156q-52 -147 -52 -230t62 -149v-14h-242v14q69 72 118 156t98 223l307 864l-68 177h162l399 -1041q60 -146 106 -225.5t109 -153.5zM313 565h496l-258 670zM596 1552q-70 0 -119 48.5t-49 117.5
q0 70 49 119t119 49q69 0 117.5 -49t48.5 -119q0 -69 -48.5 -117.5t-117.5 -48.5zM596 1870q-63 0 -107.5 -44.5t-44.5 -107.5q0 -62 44.5 -105.5t107.5 -43.5q62 0 105.5 43.5t43.5 105.5q0 63 -43.5 107.5t-105.5 44.5z" />
    <glyph glyph-name="AE" unicode="&#xc6;" horiz-adv-x="1818" 
d="M1745 256l12 -8l-45 -248h-831v14q47 27 47 121v416h-490l-100 -158q-36 -57 -59.5 -102t-41.5 -98.5t-12 -99t37 -79.5v-14h-242v14q151 130 302 377l573 907q26 47 20 77t-34 42v17h766l43 -228l-11 -6q-40 45 -78.5 78.5t-93.5 68t-125 52.5t-151 18h-144v-604l517 45
v-104l-517 45v-785h166q159 0 285.5 68.5t206.5 173.5zM928 565v760l-482 -760h482z" />
    <glyph glyph-name="Ccedilla" unicode="&#xc7;" horiz-adv-x="1548" 
d="M817 -12q-5 0 -14.5 1t-14.5 1l-45 -117q49 23 96.5 20.5t84.5 -21t58 -55.5t17 -83q-6 -57 -61 -99.5t-131 -42.5q-94 0 -164 66l8 12q66 -63 154 -63q54 0 83 35.5t36 87.5q13 88 -40 127t-155 0l-2 4l49 129q-143 7 -274.5 68t-228.5 158t-154.5 229t-57.5 276
q0 149 64.5 285.5t170.5 234t248 155.5t292 58q159 0 274.5 -39.5t253.5 -130.5l-61 -235h-15q-58 92 -129 164.5t-157.5 125t-180 69.5t-196.5 -3q-102 -22 -182 -82.5t-129 -146t-73.5 -188t-19 -214.5t38.5 -219q81 -270 288 -403t478 -93q139 22 254.5 112t192.5 243
l14 -8q-203 -418 -670 -418z" />
    <glyph glyph-name="Egrave" unicode="&#xc8;" horiz-adv-x="1019" 
d="M946 256l12 -8l-45 -248h-831v14q24 14 34.5 41t10.5 80v1161q0 53 -10.5 80t-34.5 41v17h766l43 -228l-10 -8q-41 46 -79.5 80t-93.5 68.5t-125 52.5t-151 18h-143v-604l516 45v-104l-516 43v-783h166q157 0 284 69t207 173zM391 1892q139 -123 250 -229l-12 -18
q-117 43 -305 153q-34 20 -39.5 47.5t10.5 44.5q15 22 39.5 25t56.5 -23z" />
    <glyph glyph-name="Eacute" unicode="&#xc9;" horiz-adv-x="1019" 
d="M946 256l12 -8l-45 -248h-831v14q24 14 34.5 41t10.5 80v1161q0 53 -10.5 80t-34.5 41v17h766l43 -228l-10 -8q-41 46 -79.5 80t-93.5 68.5t-125 52.5t-151 18h-143v-604l516 45v-104l-516 43v-783h166q157 0 284 69t207 173zM743 1890q16 -17 11 -44.5t-39 -47.5
q-188 -110 -305 -153l-13 18q111 106 250 229q32 26 56.5 23t39.5 -25z" />
    <glyph glyph-name="Ecircumflex" unicode="&#xca;" horiz-adv-x="1019" 
d="M946 256l12 -8l-45 -248h-831v14q24 14 34.5 41t10.5 80v1161q0 53 -10.5 80t-34.5 41v17h766l43 -228l-10 -8q-41 46 -79.5 80t-93.5 68.5t-125 52.5t-151 18h-143v-604l516 45v-104l-516 43v-783h166q157 0 284 69t207 173zM520 1855l262 -262l-10 -10l-252 162
l-250 -162l-12 10z" />
    <glyph glyph-name="Edieresis" unicode="&#xcb;" horiz-adv-x="1019" 
d="M946 256l12 -8l-45 -248h-831v14q24 14 34.5 41t10.5 80v1161q0 53 -10.5 80t-34.5 41v17h766l43 -228l-10 -8q-41 46 -79.5 80t-93.5 68.5t-125 52.5t-151 18h-143v-604l516 45v-104l-516 43v-783h166q157 0 284 69t207 173zM340 1765q38 0 64 -26.5t26 -63.5t-26 -63.5
t-64 -26.5q-37 0 -62.5 26.5t-25.5 63.5t25.5 63.5t62.5 26.5zM698 1765q37 0 63.5 -26.5t26.5 -63.5t-26.5 -63.5t-63.5 -26.5t-63.5 26.5t-26.5 63.5t26.5 63.5t63.5 26.5z" />
    <glyph glyph-name="Igrave" unicode="&#xcc;" horiz-adv-x="417" 
d="M338 1417q-25 -14 -36 -41t-11 -80v-1161q0 -53 11 -80t36 -41v-14h-254v14q24 14 34.5 41t10.5 80v1161q0 53 -10.5 80t-34.5 41v17h254v-17zM104 1892q139 -123 250 -229l-12 -18q-117 43 -305 153q-34 20 -39.5 47.5t10.5 44.5q15 22 39.5 25t56.5 -23z" />
    <glyph glyph-name="Iacute" unicode="&#xcd;" horiz-adv-x="417" 
d="M336 1417q-25 -14 -36 -41t-11 -80v-1161q0 -53 11 -80t36 -41v-14h-254v14q24 14 34.5 41t10.5 80v1161q0 53 -10.5 80t-34.5 41v17h254v-17zM414 1890q16 -17 10.5 -44.5t-39.5 -47.5q-188 -110 -305 -153l-12 18q126 120 249 229q32 26 57 23t40 -25z" />
    <glyph glyph-name="Icircumflex" unicode="&#xce;" horiz-adv-x="417" 
d="M336 1417q-25 -14 -36 -41t-11 -80v-1161q0 -53 11 -80t36 -41v-14h-254v14q24 14 34.5 41t10.5 80v1161q0 53 -10.5 80t-34.5 41v17h254v-17zM209 1855l262 -262l-10 -10l-252 162l-250 -162l-12 10z" />
    <glyph glyph-name="Idieresis" unicode="&#xcf;" horiz-adv-x="417" 
d="M336 1417q-25 -14 -36 -41t-11 -80v-1161q0 -53 11 -80t36 -41v-14h-254v14q24 14 34.5 41t10.5 80v1161q0 53 -10.5 80t-34.5 41v17h254v-17zM29 1765q38 0 64 -26.5t26 -63.5t-26 -63.5t-64 -26.5q-37 0 -62.5 26.5t-25.5 63.5t25.5 63.5t62.5 26.5zM387 1765
q37 0 63.5 -26.5t26.5 -63.5t-26.5 -63.5t-63.5 -26.5t-63.5 26.5t-26.5 63.5t26.5 63.5t63.5 26.5z" />
    <glyph glyph-name="Eth" unicode="&#xd0;" horiz-adv-x="1527" 
d="M645 1434q175 0 328 -55.5t261 -151.5t170 -228.5t62 -281.5q0 -150 -62 -283t-170 -228t-261 -150.5t-328 -55.5h-512v14q24 14 34.5 41t10.5 80v574h-178v16h178v573q0 52 -10.5 78.5t-34.5 40.5v17h512zM645 14q150 0 275.5 56.5t209 153t129.5 224t46 269.5
t-46 268.5t-129.5 222.5t-209 152.5t-275.5 56.5h-305v-692h448v-16h-448v-695h305z" />
    <glyph glyph-name="Ntilde" unicode="&#xd1;" horiz-adv-x="1443" 
d="M1087 1434h275v-17q-51 -26 -90 -94.5t-39 -134.5v-1188h-31l-975 1247v-1001q0 -66 39.5 -136t91.5 -96v-14h-276v14q52 26 91.5 96t39.5 136v1020l-131 168h207l928 -1176v930q0 65 -39.5 134t-90.5 95v17zM1038 1774l17 -5q-28 -85 -69.5 -133.5t-106.5 -48.5
q-68 0 -183 42.5t-153 41.5q-41 0 -60.5 -19.5t-38.5 -76.5l-16 6q29 88 70.5 130t111.5 42q64 0 169.5 -41t162.5 -39q34 0 56 21t40 80z" />
    <glyph glyph-name="Ograve" unicode="&#xd2;" horiz-adv-x="1609" 
d="M805 1454q150 0 287 -58t237 -156t159.5 -234t59.5 -285q0 -198 -100.5 -367t-271.5 -267.5t-371 -98.5q-150 0 -287.5 58.5t-237.5 156.5t-159.5 234t-59.5 284q0 149 59.5 285t159.5 234t237.5 156t287.5 58zM1014 37q125 38 212.5 126t127 203.5t40 251t-41.5 271.5
t-117 247.5t-174.5 184.5t-218 97.5t-246.5 -13.5q-125 -38 -212.5 -126t-127 -203.5t-40 -250.5t41.5 -270q42 -136 117 -248t174.5 -185.5t218 -98.5t246.5 14zM696 1892q139 -123 250 -229l-12 -18q-117 43 -305 153q-34 20 -39.5 47.5t10.5 44.5q15 22 39.5 25t56.5 -23
z" />
    <glyph glyph-name="Oacute" unicode="&#xd3;" horiz-adv-x="1609" 
d="M805 1454q150 0 287 -58t237 -156t159.5 -234t59.5 -285q0 -198 -100.5 -367t-271.5 -267.5t-371 -98.5q-150 0 -287.5 58.5t-237.5 156.5t-159.5 234t-59.5 284q0 149 59.5 285t159.5 234t237.5 156t287.5 58zM1014 37q125 38 212.5 126t127 203.5t40 251t-41.5 271.5
t-117 247.5t-174.5 184.5t-218 97.5t-246.5 -13.5q-125 -38 -212.5 -126t-127 -203.5t-40 -250.5t41.5 -270q42 -136 117 -248t174.5 -185.5t218 -98.5t246.5 14zM1008 1890q16 -17 10.5 -44.5t-39.5 -47.5q-188 -110 -305 -153l-12 18q126 120 249 229q32 26 57 23t40 -25z
" />
    <glyph glyph-name="Ocircumflex" unicode="&#xd4;" horiz-adv-x="1609" 
d="M805 1454q150 0 287 -58t237 -156t159.5 -234t59.5 -285q0 -198 -100.5 -367t-271.5 -267.5t-371 -98.5q-150 0 -287.5 58.5t-237.5 156.5t-159.5 234t-59.5 284q0 149 59.5 285t159.5 234t237.5 156t287.5 58zM1014 37q125 38 212.5 126t127 203.5t40 251t-41.5 271.5
t-117 247.5t-174.5 184.5t-218 97.5t-246.5 -13.5q-125 -38 -212.5 -126t-127 -203.5t-40 -250.5t41.5 -270q42 -136 117 -248t174.5 -185.5t218 -98.5t246.5 14zM805 1855l262 -262l-10 -10l-252 162l-250 -162l-12 10z" />
    <glyph glyph-name="Otilde" unicode="&#xd5;" horiz-adv-x="1609" 
d="M805 1454q150 0 287 -58t237 -156t159.5 -234t59.5 -285q0 -198 -100.5 -367t-271.5 -267.5t-371 -98.5q-150 0 -287.5 58.5t-237.5 156.5t-159.5 234t-59.5 284q0 149 59.5 285t159.5 234t237.5 156t287.5 58zM1014 37q125 38 212.5 126t127 203.5t40 251t-41.5 271.5
t-117 247.5t-174.5 184.5t-218 97.5t-246.5 -13.5q-125 -38 -212.5 -126t-127 -203.5t-40 -250.5t41.5 -270q42 -136 117 -248t174.5 -185.5t218 -98.5t246.5 14zM1102 1774l16 -5q-28 -85 -69.5 -133.5t-106.5 -48.5q-68 0 -183 42.5t-153 41.5q-40 0 -59.5 -19.5
t-38.5 -76.5l-16 6q29 88 70.5 130t111.5 42q64 0 169.5 -41t162.5 -39q34 0 56 21t40 80z" />
    <glyph glyph-name="Odieresis" unicode="&#xd6;" horiz-adv-x="1609" 
d="M805 1454q150 0 287 -58t237 -156t159.5 -234t59.5 -285q0 -198 -100.5 -367t-271.5 -267.5t-371 -98.5q-150 0 -287.5 58.5t-237.5 156.5t-159.5 234t-59.5 284q0 149 59.5 285t159.5 234t237.5 156t287.5 58zM1014 37q125 38 212.5 126t127 203.5t40 251t-41.5 271.5
t-117 247.5t-174.5 184.5t-218 97.5t-246.5 -13.5q-125 -38 -212.5 -126t-127 -203.5t-40 -250.5t41.5 -270q42 -136 117 -248t174.5 -185.5t218 -98.5t246.5 14zM625 1765q38 0 64 -26.5t26 -63.5t-26 -63.5t-64 -26.5q-37 0 -62.5 26.5t-25.5 63.5t25.5 63.5t62.5 26.5z
M983 1765q37 0 63.5 -26.5t26.5 -63.5t-26.5 -63.5t-63.5 -26.5t-63.5 26.5t-26.5 63.5t26.5 63.5t63.5 26.5z" />
    <glyph glyph-name="multiply" unicode="&#xd7;" horiz-adv-x="733" 
d="M651 989l-274 -272l274 -275l-12 -10l-272 273l-273 -273l-12 10l274 275l-274 272l12 12l273 -274l272 274z" />
    <glyph glyph-name="Oslash" unicode="&#xd8;" horiz-adv-x="1609" 
d="M1331 1237q103 -101 160 -234.5t57 -281.5q0 -198 -100.5 -367t-271.5 -267.5t-371 -98.5q-145 0 -277.5 55t-236.5 152l-176 -175l-11 11l175 176q-102 101 -160 234t-58 280q0 149 60 285t160.5 234t237.5 156t286 58q146 0 279 -54.5t237 -152.5l174 176l12 -12z
M258 555q42 -132 119 -252l848 848q-115 165 -281.5 237.5t-347.5 16.5q-125 -38 -212 -126t-126.5 -203.5t-40 -250t40.5 -270.5zM1014 37q125 38 212.5 126t127 203.5t40 251t-41.5 271.5q-41 137 -119 250l-846 -848q115 -165 280.5 -237t346.5 -17z" />
    <glyph glyph-name="Ugrave" unicode="&#xd9;" horiz-adv-x="1349" 
d="M1014 1434h254v-17q-45 -24 -65.5 -88t-20.5 -141v-707q0 -215 -138 -354t-354 -139q-117 0 -217 33t-177.5 97.5t-122 170t-44.5 241.5v766q0 54 -11 80.5t-36 40.5v17h254v-17q-24 -14 -34.5 -40.5t-10.5 -80.5v-766q0 -256 125 -396.5t346 -121.5q92 7 169.5 49.5
t128 107t79 145.5t28.5 167v684q0 92 -41 167t-112 85v17zM588 1892q139 -123 250 -229l-13 -18q-117 43 -305 153q-34 20 -39 47.5t11 44.5q15 22 39.5 25t56.5 -23z" />
    <glyph glyph-name="Uacute" unicode="&#xda;" horiz-adv-x="1349" 
d="M1014 1434h254v-17q-45 -24 -65.5 -88t-20.5 -141v-707q0 -215 -138 -354t-354 -139q-117 0 -217 33t-177.5 97.5t-122 170t-44.5 241.5v766q0 54 -11 80.5t-36 40.5v17h254v-17q-24 -14 -34.5 -40.5t-10.5 -80.5v-766q0 -256 125 -396.5t346 -121.5q92 7 169.5 49.5
t128 107t79 145.5t28.5 167v684q0 92 -41 167t-112 85v17zM879 1890q16 -17 10.5 -44.5t-39.5 -47.5q-188 -110 -305 -153l-13 18q111 106 250 229q32 26 57 23t40 -25z" />
    <glyph glyph-name="Ucircumflex" unicode="&#xdb;" horiz-adv-x="1349" 
d="M1014 1434h254v-17q-45 -24 -65.5 -88t-20.5 -141v-707q0 -215 -138 -354t-354 -139q-117 0 -217 33t-177.5 97.5t-122 170t-44.5 241.5v766q0 54 -11 80.5t-36 40.5v17h254v-17q-24 -14 -34.5 -40.5t-10.5 -80.5v-766q0 -256 125 -396.5t346 -121.5q92 7 169.5 49.5
t128 107t79 145.5t28.5 167v684q0 92 -41 167t-112 85v17zM694 1855l262 -262l-10 -10l-252 162l-250 -162l-12 10z" />
    <glyph glyph-name="Udieresis" unicode="&#xdc;" horiz-adv-x="1349" 
d="M1014 1434h254v-17q-45 -24 -65.5 -88t-20.5 -141v-707q0 -215 -138 -354t-354 -139q-117 0 -217 33t-177.5 97.5t-122 170t-44.5 241.5v766q0 54 -11 80.5t-36 40.5v17h254v-17q-24 -14 -34.5 -40.5t-10.5 -80.5v-766q0 -256 125 -396.5t346 -121.5q92 7 169.5 49.5
t128 107t79 145.5t28.5 167v684q0 92 -41 167t-112 85v17zM514 1765q38 0 64 -26.5t26 -63.5t-26 -63.5t-64 -26.5q-37 0 -62.5 26.5t-25.5 63.5t25.5 63.5t62.5 26.5zM872 1765q37 0 64 -26.5t27 -63.5t-27 -63.5t-64 -26.5t-63.5 26.5t-26.5 63.5t26.5 63.5t63.5 26.5z
" />
    <glyph glyph-name="Yacute" unicode="&#xdd;" horiz-adv-x="1273" 
d="M1012 1434h241v-17q-55 -47 -84 -77.5t-68.5 -95t-90.5 -171.5l-262 -563v-375q0 -53 11 -80t36 -41v-14h-254v14q24 14 34.5 41t10.5 80v352q-344 646 -387 730q-50 92 -179 200v17h359v-17q-84 -84 24 -284l328 -617l279 592q43 96 55 153t-1 90.5t-52 65.5v17z
M881 1890q16 -17 10.5 -44.5t-39.5 -47.5q-188 -110 -305 -153l-12 18q126 120 249 229q32 26 57 23t40 -25z" />
    <glyph glyph-name="Thorn" unicode="&#xde;" horiz-adv-x="1124" 
d="M391 1135q206 0 354 -43.5t233 -138.5t85 -236t-85 -236.5t-233 -139.5t-354 -44h-100v-162q0 -53 10.5 -80t34.5 -41v-14h-254v14q25 14 36 41t11 80v1163q0 53 -11 79t-36 40v17h254v-17q-24 -14 -34.5 -40.5t-10.5 -78.5v-163h100zM391 313q510 0 510 404
q0 401 -510 401h-100v-805h100z" />
    <glyph glyph-name="germandbls" unicode="&#xdf;" horiz-adv-x="1488" 
d="M868 801q77 20 151 15t140 -25t119.5 -61t90 -93.5t50.5 -122.5t2 -147q-10 -68 -50 -134.5t-103.5 -121.5t-157 -89t-199.5 -34q-141 0 -275 57.5t-226 147.5l84 256h14q28 -197 142.5 -316.5t250.5 -122.5q89 -3 157.5 25t110 79t64.5 111.5t29 130.5q15 149 -44.5 261
t-176.5 152t-285 -17l-6 14q190 68 272.5 158t64.5 223q-15 119 -116.5 203t-241.5 84q-62 0 -122 -13.5t-118.5 -45t-102 -78t-70.5 -118t-27 -159.5v-885q0 -53 11 -80t36 -41v-14h-254v14q24 14 34.5 41t10.5 80v733q0 139 54.5 254t143 186t195.5 109.5t219 38.5
q204 0 350 -95.5t154 -225.5q3 -53 -11 -97t-42 -75.5t-62.5 -56t-78 -43t-82 -31.5t-81.5 -26q-12 -3 -18 -5z" />
    <glyph glyph-name="agrave" unicode="&#xe0;" horiz-adv-x="1056" 
d="M995 14v-14h-207v287q-88 -299 -362 -299q-86 0 -161.5 25.5t-129.5 78t-67 123.5q-13 76 1 140.5t50.5 112.5t85 83t110.5 61q-16 37 -17.5 84.5t16.5 98t51.5 93t95 70t139.5 27.5q53 0 102 -11t94.5 -37t79.5 -64.5t54 -97.5t20 -132v-508q0 -53 10.5 -80t34.5 -41z
M582 965q-67 0 -124.5 -30.5t-90.5 -79.5t-44.5 -110.5t13.5 -123.5q149 55 330 55q56 0 122 -19v15q0 81 -20.5 145.5t-68 106t-117.5 41.5zM475 14q64 4 117.5 31.5t91 73t63 96t41.5 109.5v315q-45 18 -122 18q-59 0 -116 -10t-116.5 -32t-104 -58.5t-77.5 -88.5
t-38.5 -122t13.5 -160q19 -80 93.5 -128.5t154.5 -43.5zM563 1421q139 -123 250 -229l-12 -18q-117 43 -305 153q-34 20 -39.5 47.5t10.5 44.5q15 22 39.5 25t56.5 -23z" />
    <glyph glyph-name="aacute" unicode="&#xe1;" horiz-adv-x="1056" 
d="M995 14v-14h-207v287q-88 -299 -362 -299q-86 0 -161.5 25.5t-129.5 78t-67 123.5q-13 76 1 140.5t50.5 112.5t85 83t110.5 61q-16 37 -17.5 84.5t16.5 98t51.5 93t95 70t139.5 27.5q53 0 102 -11t94.5 -37t79.5 -64.5t54 -97.5t20 -132v-508q0 -53 10.5 -80t34.5 -41z
M582 965q-67 0 -124.5 -30.5t-90.5 -79.5t-44.5 -110.5t13.5 -123.5q149 55 330 55q56 0 122 -19v15q0 81 -20.5 145.5t-68 106t-117.5 41.5zM475 14q64 4 117.5 31.5t91 73t63 96t41.5 109.5v315q-45 18 -122 18q-59 0 -116 -10t-116.5 -32t-104 -58.5t-77.5 -88.5
t-38.5 -122t13.5 -160q19 -80 93.5 -128.5t154.5 -43.5zM813 1419q16 -17 10.5 -44.5t-39.5 -47.5q-188 -110 -305 -153l-12 18q111 106 250 229q32 26 56.5 23t39.5 -25z" />
    <glyph glyph-name="acircumflex" unicode="&#xe2;" horiz-adv-x="1056" 
d="M995 14v-14h-207v287q-88 -299 -362 -299q-86 0 -161.5 25.5t-129.5 78t-67 123.5q-13 76 1 140.5t50.5 112.5t85 83t110.5 61q-16 37 -17.5 84.5t16.5 98t51.5 93t95 70t139.5 27.5q53 0 102 -11t94.5 -37t79.5 -64.5t54 -97.5t20 -132v-508q0 -53 10.5 -80t34.5 -41z
M582 965q-67 0 -124.5 -30.5t-90.5 -79.5t-44.5 -110.5t13.5 -123.5q149 55 330 55q56 0 122 -19v15q0 81 -20.5 145.5t-68 106t-117.5 41.5zM475 14q64 4 117.5 31.5t91 73t63 96t41.5 109.5v315q-45 18 -122 18q-59 0 -116 -10t-116.5 -32t-104 -58.5t-77.5 -88.5
t-38.5 -122t13.5 -160q19 -80 93.5 -128.5t154.5 -43.5zM610 1384l262 -262l-10 -10l-252 162l-250 -162l-12 10z" />
    <glyph glyph-name="atilde" unicode="&#xe3;" horiz-adv-x="1056" 
d="M995 14v-14h-207v287q-88 -299 -362 -299q-86 0 -161.5 25.5t-129.5 78t-67 123.5q-13 76 1 140.5t50.5 112.5t85 83t110.5 61q-16 37 -17.5 84.5t16.5 98t51.5 93t95 70t139.5 27.5q53 0 102 -11t94.5 -37t79.5 -64.5t54 -97.5t20 -132v-508q0 -53 10.5 -80t34.5 -41z
M582 965q-67 0 -124.5 -30.5t-90.5 -79.5t-44.5 -110.5t13.5 -123.5q149 55 330 55q56 0 122 -19v15q0 81 -20.5 145.5t-68 106t-117.5 41.5zM475 14q64 4 117.5 31.5t91 73t63 96t41.5 109.5v315q-45 18 -122 18q-59 0 -116 -10t-116.5 -32t-104 -58.5t-77.5 -88.5
t-38.5 -122t13.5 -160q19 -80 93.5 -128.5t154.5 -43.5zM907 1303l17 -5q-28 -85 -69.5 -133.5t-106.5 -48.5q-68 0 -183 42.5t-153 41.5q-40 0 -60 -19.5t-39 -76.5l-16 6q29 88 71 130t111 42q64 0 169.5 -41t162.5 -39q34 0 56 21t40 80z" />
    <glyph glyph-name="adieresis" unicode="&#xe4;" horiz-adv-x="1056" 
d="M995 14v-14h-207v287q-88 -299 -362 -299q-86 0 -161.5 25.5t-129.5 78t-67 123.5q-13 76 1 140.5t50.5 112.5t85 83t110.5 61q-16 37 -17.5 84.5t16.5 98t51.5 93t95 70t139.5 27.5q53 0 102 -11t94.5 -37t79.5 -64.5t54 -97.5t20 -132v-508q0 -53 10.5 -80t34.5 -41z
M582 965q-67 0 -124.5 -30.5t-90.5 -79.5t-44.5 -110.5t13.5 -123.5q149 55 330 55q56 0 122 -19v15q0 81 -20.5 145.5t-68 106t-117.5 41.5zM475 14q64 4 117.5 31.5t91 73t63 96t41.5 109.5v315q-45 18 -122 18q-59 0 -116 -10t-116.5 -32t-104 -58.5t-77.5 -88.5
t-38.5 -122t13.5 -160q19 -80 93.5 -128.5t154.5 -43.5zM430 1294q38 0 64 -26.5t26 -63.5t-26 -63.5t-64 -26.5q-37 0 -62.5 26.5t-25.5 63.5t25.5 63.5t62.5 26.5zM788 1294q37 0 64 -26.5t27 -63.5t-27 -63.5t-64 -26.5t-63.5 26.5t-26.5 63.5t26.5 63.5t63.5 26.5z" />
    <glyph glyph-name="aring" unicode="&#xe5;" horiz-adv-x="1056" 
d="M995 14v-14h-207v287q-88 -299 -362 -299q-86 0 -161.5 25.5t-129.5 78t-67 123.5q-13 76 1 140.5t50.5 112.5t85 83t110.5 61q-16 37 -17.5 84.5t16.5 98t51.5 93t95 70t139.5 27.5q53 0 102 -11t94.5 -37t79.5 -64.5t54 -97.5t20 -132v-508q0 -53 10.5 -80t34.5 -41z
M582 965q-67 0 -124.5 -30.5t-90.5 -79.5t-44.5 -110.5t13.5 -123.5q149 55 330 55q56 0 122 -19v15q0 81 -20.5 145.5t-68 106t-117.5 41.5zM475 14q64 4 117.5 31.5t91 73t63 96t41.5 109.5v315q-45 18 -122 18q-59 0 -116 -10t-116.5 -32t-104 -58.5t-77.5 -88.5
t-38.5 -122t13.5 -160q19 -80 93.5 -128.5t154.5 -43.5zM610 1081q-70 0 -119 48.5t-49 117.5q0 71 49 119.5t119 48.5q69 0 117.5 -49t48.5 -119q0 -69 -48.5 -117.5t-117.5 -48.5zM610 1399q-63 0 -107 -44.5t-44 -107.5q0 -62 44 -105.5t107 -43.5q62 0 106 44t44 105
q0 63 -44 107.5t-106 44.5z" />
    <glyph glyph-name="ae" unicode="&#xe6;" horiz-adv-x="1853" 
d="M1583 662q95 -25 156.5 -114t50.5 -222q-6 -58 -33.5 -114.5t-77.5 -108t-133.5 -83.5t-187.5 -32q-100 0 -191 23.5t-169 70t-131.5 124.5t-71.5 179q-6 -82 -31.5 -152.5t-70 -126t-113 -87t-154.5 -31.5t-161.5 25.5t-130 78t-66.5 123.5q-13 76 1 140.5t50.5 112.5
t85 83t110.5 61q-16 37 -17.5 85t16.5 98.5t51.5 93t95 69.5t139.5 27q104 0 190 -44t128 -136q82 83 194.5 129t218.5 51q69 3 139 -13t136 -52t112 -102.5t56 -155.5h-191zM1239 961q-101 -18 -168.5 -95t-97.5 -188h653q-21 139 -131 225t-256 58zM582 965
q-67 0 -124.5 -30.5t-90.5 -79.5t-44.5 -110.5t13.5 -123.5q149 55 330 55q56 0 122 -19v15q0 81 -20.5 145.5t-68 106t-117.5 41.5zM475 14q87 6 151 51.5t97.5 116.5t49 147.5t15.5 162.5v147q-45 18 -124 18q-58 0 -115 -10t-116 -32t-103.5 -58.5t-77.5 -88.5
t-38.5 -122t13.5 -160q19 -80 93.5 -128.5t154.5 -43.5zM1769 322q19 152 -63.5 246t-206.5 94h-530q-43 -174 12 -328q114 -313 440 -301q134 6 234.5 88t113.5 201z" />
    <glyph glyph-name="ccedilla" unicode="&#xe7;" horiz-adv-x="1128" 
d="M657 -10h-61l-45 -117q49 23 96.5 20.5t84.5 -21t58 -55.5t17 -83q-6 -57 -61.5 -99.5t-131.5 -42.5q-46 0 -89 18.5t-72 47.5l8 12q66 -63 151 -63q54 0 83 35.5t36 87.5q13 89 -38.5 127.5t-155.5 -0.5l-2 4l49 129q-98 5 -185.5 37t-157.5 89.5t-112 147.5t-45 201
q-3 102 30.5 190t89.5 147.5t128.5 101.5t146.5 61.5t144 19.5q82 0 192 -32t193 -76l-31 -170h-12q-19 48 -62.5 98t-101 91.5t-131 61t-142.5 3.5q-73 -17 -131.5 -63.5t-93 -111.5t-51.5 -141t-11.5 -157t31.5 -154q57 -161 178.5 -242.5t278.5 -66.5q208 24 344 258
l14 -7q-155 -270 -430 -286z" />
    <glyph glyph-name="egrave" unicode="&#xe8;" 
d="M872 662q95 -25 156.5 -114.5t50.5 -221.5q-5 -58 -32.5 -114.5t-78 -108t-134 -83.5t-187.5 -32q-87 0 -166.5 17t-151.5 54t-125 91.5t-85.5 135.5t-34.5 179q-3 102 30.5 188.5t89 144.5t128.5 100t145.5 62.5t143.5 24.5q69 3 139 -13t135.5 -52t111.5 -102.5
t56 -155.5h-145h-46zM528 961q-100 -19 -168.5 -96t-97.5 -187h653q-21 139 -131 225t-256 58zM1061 322q9 77 -10 142.5t-58.5 108t-92.5 66t-112 23.5h-530q-42 -171 14 -328q111 -314 439 -301q133 6 234 88t116 201zM575 1421q139 -123 250 -229l-12 -18
q-117 43 -305 153q-34 20 -39.5 47.5t10.5 44.5q15 22 39.5 25t56.5 -23z" />
    <glyph glyph-name="eacute" unicode="&#xe9;" 
d="M872 662q95 -25 156.5 -114.5t50.5 -221.5q-5 -58 -32.5 -114.5t-78 -108t-134 -83.5t-187.5 -32q-87 0 -166.5 17t-151.5 54t-125 91.5t-85.5 135.5t-34.5 179q-3 102 30.5 188.5t89 144.5t128.5 100t145.5 62.5t143.5 24.5q69 3 139 -13t135.5 -52t111.5 -102.5
t56 -155.5h-145h-46zM528 961q-100 -19 -168.5 -96t-97.5 -187h653q-21 139 -131 225t-256 58zM1061 322q9 77 -10 142.5t-58.5 108t-92.5 66t-112 23.5h-530q-42 -171 14 -328q111 -314 439 -301q133 6 234 88t116 201zM805 1419q16 -17 10.5 -44.5t-39.5 -47.5
q-188 -110 -305 -153l-12 18q111 106 250 229q32 26 56.5 23t39.5 -25z" />
    <glyph glyph-name="ecircumflex" unicode="&#xea;" 
d="M872 662q95 -25 156.5 -114.5t50.5 -221.5q-5 -58 -32.5 -114.5t-78 -108t-134 -83.5t-187.5 -32q-87 0 -166.5 17t-151.5 54t-125 91.5t-85.5 135.5t-34.5 179q-3 102 30.5 188.5t89 144.5t128.5 100t145.5 62.5t143.5 24.5q69 3 139 -13t135.5 -52t111.5 -102.5
t56 -155.5h-145h-46zM528 961q-100 -19 -168.5 -96t-97.5 -187h653q-21 139 -131 225t-256 58zM1061 322q9 77 -10 142.5t-58.5 108t-92.5 66t-112 23.5h-530q-42 -171 14 -328q111 -314 439 -301q133 6 234 88t116 201zM623 1384l262 -262l-11 -10l-251 162l-250 -162
l-13 10z" />
    <glyph glyph-name="edieresis" unicode="&#xeb;" 
d="M872 662q95 -25 156.5 -114.5t50.5 -221.5q-5 -58 -32.5 -114.5t-78 -108t-134 -83.5t-187.5 -32q-87 0 -166.5 17t-151.5 54t-125 91.5t-85.5 135.5t-34.5 179q-3 102 30.5 188.5t89 144.5t128.5 100t145.5 62.5t143.5 24.5q69 3 139 -13t135.5 -52t111.5 -102.5
t56 -155.5h-145h-46zM528 961q-100 -19 -168.5 -96t-97.5 -187h653q-21 139 -131 225t-256 58zM1061 322q9 77 -10 142.5t-58.5 108t-92.5 66t-112 23.5h-530q-42 -171 14 -328q111 -314 439 -301q133 6 234 88t116 201zM442 1294q38 0 64 -26.5t26 -63.5t-26 -63.5
t-64 -26.5q-37 0 -62.5 26.5t-25.5 63.5t25.5 63.5t62.5 26.5zM801 1294q37 0 63.5 -26.5t26.5 -63.5t-26.5 -63.5t-63.5 -26.5t-63.5 26.5t-26.5 63.5t26.5 63.5t63.5 26.5z" />
    <glyph glyph-name="igrave" unicode="&#xec;" horiz-adv-x="397" 
d="M289 135q0 -53 11 -80t36 -41v-14h-254v14q24 14 34.5 41t10.5 80v692q0 56 -8.5 75.5t-36.5 23.5v14l192 45h15v-850zM133 1421q139 -123 250 -229l-12 -18q-117 43 -305 153q-34 20 -39.5 47.5t10.5 44.5q15 22 39.5 25t56.5 -23z" />
    <glyph glyph-name="iacute" unicode="&#xed;" horiz-adv-x="397" 
d="M289 135q0 -53 11 -80t36 -41v-14h-254v14q24 14 34.5 41t10.5 80v692q0 56 -8.5 75.5t-36.5 23.5v14l192 45h15v-850zM362 1419q16 -17 11 -44.5t-39 -47.5q-188 -110 -305 -153l-13 18q111 106 250 229q32 26 56.5 23t39.5 -25z" />
    <glyph glyph-name="icircumflex" unicode="&#xee;" horiz-adv-x="397" 
d="M289 135q0 -53 11 -80t36 -41v-14h-254v14q24 14 34.5 41t10.5 80v692q0 56 -8.5 75.5t-36.5 23.5v14l192 45h15v-850zM199 1384l262 -262l-10 -10l-252 162l-250 -162l-12 10z" />
    <glyph glyph-name="idieresis" unicode="&#xef;" horiz-adv-x="397" 
d="M289 135q0 -53 11 -80t36 -41v-14h-254v14q24 14 34.5 41t10.5 80v692q0 56 -8.5 75.5t-36.5 23.5v14l192 45h15v-850zM18 1294q38 0 64.5 -26.5t26.5 -63.5t-26.5 -63.5t-64.5 -26.5q-37 0 -62.5 26.5t-25.5 63.5t25.5 63.5t62.5 26.5zM377 1294q37 0 63.5 -26.5
t26.5 -63.5t-26.5 -63.5t-63.5 -26.5t-63.5 26.5t-26.5 63.5t26.5 63.5t63.5 26.5z" />
    <glyph glyph-name="eth" unicode="&#xf0;" horiz-adv-x="1173" 
d="M717 1270q155 -119 254.5 -275t130.5 -340t-39 -372q-29 -77 -82.5 -136t-118.5 -92.5t-131.5 -50t-132.5 -16.5q-107 0 -199.5 30.5t-156 81.5t-103.5 114.5t-51 131.5q-15 87 10 172t80 153t141 111.5t186 54.5t222.5 -26t243.5 -123q-7 174 -81.5 317.5t-199.5 249.5
l-358 -174v19l342 168q-178 147 -416 192l6 13q224 -39 436 -191l220 107v-21zM608 10q91 7 163.5 69t115 158.5t64.5 208.5t22 230q-104 61 -200 89.5t-171.5 25t-139.5 -29.5t-109 -71.5t-76 -103t-43.5 -122t-8.5 -130.5q5 -71 31 -131.5t72 -107t118.5 -69.5t161.5 -16z
" />
    <glyph glyph-name="ntilde" unicode="&#xf1;" horiz-adv-x="1134" 
d="M1036 135q6 -53 19.5 -80t38.5 -41v-14h-254v14q24 13 31.5 40.5t2.5 80.5q-30 337 -47 520q-4 48 -15.5 93t-33.5 86.5t-51 70t-72 41t-94 2.5q-65 -13 -116 -68.5t-79.5 -127.5t-46.5 -161t-24 -158.5t-6 -129.5v-168q0 -53 11 -80t36 -41v-14h-254v14q24 14 34.5 41
t10.5 80v692q0 56 -8.5 75.5t-36.5 23.5v14l192 45h15v-508q9 78 22 141.5t40.5 135t65 119.5t97.5 80t137 32q133 0 225.5 -91.5t110.5 -268.5q8 -78 19 -191.5t19 -189.5t11 -109zM905 1303l17 -5q-60 -182 -177 -182q-68 0 -182.5 42.5t-152.5 41.5q-40 0 -60 -19.5
t-39 -76.5l-16 6q29 88 71 130t111 42q64 0 169.5 -41t162.5 -39q34 0 56 21t40 80z" />
    <glyph glyph-name="ograve" unicode="&#xf2;" horiz-adv-x="1210" 
d="M637 985q138 0 253.5 -53.5t187 -159t71.5 -242.5q0 -96 -31.5 -182t-85.5 -151t-124.5 -112.5t-151 -72t-162.5 -24.5q-140 0 -255 52.5t-186 157.5t-71 244q0 122 48 226.5t127 172.5t177.5 106t202.5 38zM752 25q85 25 143.5 83t84 135.5t25 168t-27.5 184.5
q-57 193 -193.5 297t-304.5 55q-85 -25 -143.5 -83t-84 -135.5t-25 -168t27.5 -184.5q57 -194 193.5 -298t304.5 -54zM528 1421q139 -123 250 -229l-12 -18q-117 43 -305 153q-34 20 -39.5 47.5t10.5 44.5q15 22 39.5 25t56.5 -23z" />
    <glyph glyph-name="oacute" unicode="&#xf3;" horiz-adv-x="1210" 
d="M637 985q138 0 253.5 -53.5t187 -159t71.5 -242.5q0 -96 -31.5 -182t-85.5 -151t-124.5 -112.5t-151 -72t-162.5 -24.5q-140 0 -255 52.5t-186 157.5t-71 244q0 122 48 226.5t127 172.5t177.5 106t202.5 38zM752 25q85 25 143.5 83t84 135.5t25 168t-27.5 184.5
q-57 193 -193.5 297t-304.5 55q-85 -25 -143.5 -83t-84 -135.5t-25 -168t27.5 -184.5q57 -194 193.5 -298t304.5 -54zM819 1419q16 -17 11 -44.5t-39 -47.5q-186 -109 -306 -153l-12 18q111 106 250 229q32 26 56.5 23t39.5 -25z" />
    <glyph glyph-name="ocircumflex" unicode="&#xf4;" horiz-adv-x="1210" 
d="M637 985q138 0 253.5 -53.5t187 -159t71.5 -242.5q0 -96 -31.5 -182t-85.5 -151t-124.5 -112.5t-151 -72t-162.5 -24.5q-140 0 -255 52.5t-186 157.5t-71 244q0 122 48 226.5t127 172.5t177.5 106t202.5 38zM752 25q85 25 143.5 83t84 135.5t25 168t-27.5 184.5
q-57 193 -193.5 297t-304.5 55q-85 -25 -143.5 -83t-84 -135.5t-25 -168t27.5 -184.5q57 -194 193.5 -298t304.5 -54zM614 1384l263 -262l-11 -10l-252 162l-249 -162l-13 10z" />
    <glyph glyph-name="otilde" unicode="&#xf5;" horiz-adv-x="1210" 
d="M637 985q138 0 253.5 -53.5t187 -159t71.5 -242.5q0 -96 -31.5 -182t-85.5 -151t-124.5 -112.5t-151 -72t-162.5 -24.5q-140 0 -255 52.5t-186 157.5t-71 244q0 122 48 226.5t127 172.5t177.5 106t202.5 38zM752 25q85 25 143.5 83t84 135.5t25 168t-27.5 184.5
q-57 193 -193.5 297t-304.5 55q-85 -25 -143.5 -83t-84 -135.5t-25 -168t27.5 -184.5q57 -194 193.5 -298t304.5 -54zM911 1303l17 -5q-28 -85 -69.5 -133.5t-106.5 -48.5q-68 0 -183 42.5t-153 41.5q-40 0 -60 -19.5t-39 -76.5l-16 6q29 88 71 130t111 42q64 0 169.5 -41
t162.5 -39q34 0 56 21t40 80z" />
    <glyph glyph-name="odieresis" unicode="&#xf6;" horiz-adv-x="1210" 
d="M637 985q138 0 253.5 -53.5t187 -159t71.5 -242.5q0 -96 -31.5 -182t-85.5 -151t-124.5 -112.5t-151 -72t-162.5 -24.5q-140 0 -255 52.5t-186 157.5t-71 244q0 122 48 226.5t127 172.5t177.5 106t202.5 38zM752 25q85 25 143.5 83t84 135.5t25 168t-27.5 184.5
q-57 193 -193.5 297t-304.5 55q-85 -25 -143.5 -83t-84 -135.5t-25 -168t27.5 -184.5q57 -194 193.5 -298t304.5 -54zM434 1294q38 0 64 -26.5t26 -63.5t-26 -63.5t-64 -26.5q-37 0 -62.5 26.5t-25.5 63.5t25.5 63.5t62.5 26.5zM793 1294q37 0 63.5 -26.5t26.5 -63.5
t-26.5 -63.5t-63.5 -26.5t-64 26.5t-27 63.5t27 63.5t64 26.5z" />
    <glyph glyph-name="divide" unicode="&#xf7;" horiz-adv-x="952" 
d="M477 985q-35 0 -60.5 25.5t-25.5 60.5t25.5 60.5t60.5 25.5t59.5 -25.5t24.5 -60.5t-24.5 -60.5t-59.5 -25.5zM477 446q35 0 59.5 -24.5t24.5 -59.5t-24.5 -60.5t-59.5 -25.5t-60.5 25.5t-25.5 60.5t25.5 59.5t60.5 24.5zM82 725h788v-16h-788v16z" />
    <glyph glyph-name="oslash" unicode="&#xf8;" horiz-adv-x="1222" 
d="M1006 860q149 -126 149 -330q0 -96 -31.5 -182t-85.5 -151t-124.5 -112.5t-151 -72t-162.5 -24.5q-210 0 -352 114l-156 -155l-10 10l154 156q-148 125 -148 329q0 122 48 226.5t127 172.5t177.5 106t202.5 38q206 0 352 -115l156 156l10 -10zM260 377q23 -86 74 -166
l565 565q-74 112 -182.5 160.5t-231.5 11.5q-85 -25 -143.5 -83t-84 -135.5t-25 -168t27.5 -184.5zM758 25q85 25 143.5 83t84 135.5t25 168t-27.5 184.5q-27 90 -74 168l-567 -567q75 -110 184 -158.5t232 -13.5z" />
    <glyph glyph-name="ugrave" unicode="&#xf9;" horiz-adv-x="1097" 
d="M1036 14v-14h-209v498q-9 -79 -22 -143t-40.5 -135.5t-65 -119.5t-97.5 -80t-137 -32q-148 0 -243 93t-95 267v479q0 56 -8.5 75.5t-36.5 23.5v14l192 45h15v-668q0 -91 29.5 -162t91.5 -108.5t147 -21.5q65 13 115.5 68.5t79 127.5t46.5 161.5t23.5 158t5.5 129.5v157
q0 56 -8.5 75.5t-36.5 23.5v14l193 45h14v-850q0 -53 11 -80t36 -41zM471 1421q139 -123 250 -229l-12 -18q-120 44 -306 153q-34 20 -39 47.5t11 44.5q15 22 39.5 25t56.5 -23z" />
    <glyph glyph-name="uacute" unicode="&#xfa;" horiz-adv-x="1097" 
d="M1036 14v-14h-209v498q-9 -79 -22 -143t-40.5 -135.5t-65 -119.5t-97.5 -80t-137 -32q-148 0 -243 93t-95 267v479q0 56 -8.5 75.5t-36.5 23.5v14l192 45h15v-668q0 -91 29.5 -162t91.5 -108.5t147 -21.5q65 13 115.5 68.5t79 127.5t46.5 161.5t23.5 158t5.5 129.5v157
q0 56 -8.5 75.5t-36.5 23.5v14l193 45h14v-850q0 -53 11 -80t36 -41zM762 1419q16 -17 10.5 -44.5t-39.5 -47.5q-188 -110 -305 -153l-12 18q111 106 250 229q32 26 56.5 23t39.5 -25z" />
    <glyph glyph-name="ucircumflex" unicode="&#xfb;" horiz-adv-x="1097" 
d="M1036 14v-14h-209v498q-9 -79 -22 -143t-40.5 -135.5t-65 -119.5t-97.5 -80t-137 -32q-148 0 -243 93t-95 267v479q0 56 -8.5 75.5t-36.5 23.5v14l192 45h15v-668q0 -91 29.5 -162t91.5 -108.5t147 -21.5q65 13 115.5 68.5t79 127.5t46.5 161.5t23.5 158t5.5 129.5v157
q0 56 -8.5 75.5t-36.5 23.5v14l193 45h14v-850q0 -53 11 -80t36 -41zM580 1384l262 -262l-11 -10l-251 162l-250 -162l-13 10z" />
    <glyph glyph-name="udieresis" unicode="&#xfc;" horiz-adv-x="1097" 
d="M1036 14v-14h-209v498q-9 -79 -22 -143t-40.5 -135.5t-65 -119.5t-97.5 -80t-137 -32q-148 0 -243 93t-95 267v479q0 56 -8.5 75.5t-36.5 23.5v14l192 45h15v-668q0 -91 29.5 -162t91.5 -108.5t147 -21.5q65 13 115.5 68.5t79 127.5t46.5 161.5t23.5 158t5.5 129.5v157
q0 56 -8.5 75.5t-36.5 23.5v14l193 45h14v-850q0 -53 11 -80t36 -41zM399 1294q38 0 64 -26.5t26 -63.5t-26 -63.5t-64 -26.5q-37 0 -62.5 26.5t-25.5 63.5t25.5 63.5t62.5 26.5zM758 1294q37 0 63.5 -26.5t26.5 -63.5t-26.5 -63.5t-63.5 -26.5t-63.5 26.5t-26.5 63.5
t26.5 63.5t63.5 26.5z" />
    <glyph glyph-name="yacute" unicode="&#xfd;" horiz-adv-x="1062" 
d="M1042 969q-71 -72 -126 -158.5t-109 -220.5q-164 -408 -238 -590q-24 -60 -47 -106.5t-53.5 -91.5t-63 -74.5t-74.5 -47.5t-89 -18q-163 0 -242 145l160 146l12 -10q-10 -43 -6.5 -90.5t14 -87t39 -63t68.5 -19.5q131 15 258 299l-262 616q-70 163 -114.5 238t-113.5 133
v16h314v-16q-25 -27 -29.5 -59.5t5.5 -67t36 -99.5l244 -569l168 418q41 102 57 166.5t6 119t-55 91.5v16h241v-16zM807 1419q16 -17 10.5 -44.5t-39.5 -47.5q-188 -110 -305 -153l-12 18q111 106 250 229q32 26 56.5 23t39.5 -25z" />
    <glyph glyph-name="thorn" unicode="&#xfe;" horiz-adv-x="1161" 
d="M717 985q51 0 103.5 -16.5t101 -50.5t87 -81.5t63 -113.5t26.5 -141q2 -105 -23 -192.5t-68 -147.5t-103 -106.5t-122.5 -74t-133 -44.5t-127 -23t-111.5 -6q-42 0 -121 18v-352q0 -56 8 -75t37 -23v-15l-193 -45h-14v1823q0 57 -8 75.5t-37 22.5v17l192 43h15v-1053
q10 65 25 124.5t38.5 126t57 120t76.5 97.5t102.5 68.5t128.5 24.5zM412 0q47 0 93 6.5t102 24.5t104 45.5t93.5 75t76.5 109t47 151.5t10 198q-5 91 -44.5 174t-111 132t-155.5 32q-81 -16 -148.5 -94.5t-107 -181.5t-61 -201t-21.5 -168v-285q50 -20 123 -18z" />
    <glyph glyph-name="ydieresis" unicode="&#xff;" horiz-adv-x="1062" 
d="M1042 969q-71 -72 -126 -158.5t-109 -220.5q-164 -408 -238 -590q-24 -60 -47 -106.5t-53.5 -91.5t-63 -74.5t-74.5 -47.5t-89 -18q-163 0 -242 145l160 146l12 -10q-10 -43 -6.5 -90.5t14 -87t39 -63t68.5 -19.5q131 15 258 299l-262 616q-70 163 -114.5 238t-113.5 133
v16h314v-16q-25 -27 -29.5 -59.5t5.5 -67t36 -99.5l244 -569l168 418q41 102 57 166.5t6 119t-55 91.5v16h241v-16zM422 1294q38 0 64 -26.5t26 -63.5t-26 -63.5t-64 -26.5q-37 0 -62.5 26.5t-25.5 63.5t25.5 63.5t62.5 26.5zM780 1294q37 0 63.5 -26.5t26.5 -63.5
t-26.5 -63.5t-63.5 -26.5t-63.5 26.5t-26.5 63.5t26.5 63.5t63.5 26.5z" />
    <glyph glyph-name="Amacron" unicode="&#x100;" horiz-adv-x="1271" 
d="M1251 14v-14h-315v14q26 26 30 63.5t-8 83.5t-43 128l-100 260h-508l-55 -156q-52 -147 -52 -230t62 -149v-14h-242v14q69 72 118 156t98 223l307 864l-68 177h162l399 -1041q60 -146 106 -225.5t109 -153.5zM313 565h496l-258 670zM276 1683h635v-16h-635v16z" />
    <glyph glyph-name="amacron" unicode="&#x101;" horiz-adv-x="1056" 
d="M995 14v-14h-207v287q-88 -299 -362 -299q-86 0 -161.5 25.5t-129.5 78t-67 123.5q-13 76 1 140.5t50.5 112.5t85 83t110.5 61q-16 37 -17.5 84.5t16.5 98t51.5 93t95 70t139.5 27.5q53 0 102 -11t94.5 -37t79.5 -64.5t54 -97.5t20 -132v-508q0 -53 10.5 -80t34.5 -41z
M582 965q-67 0 -124.5 -30.5t-90.5 -79.5t-44.5 -110.5t13.5 -123.5q149 55 330 55q56 0 122 -19v15q0 81 -20.5 145.5t-68 106t-117.5 41.5zM475 14q64 4 117.5 31.5t91 73t63 96t41.5 109.5v315q-45 18 -122 18q-59 0 -116 -10t-116.5 -32t-104 -58.5t-77.5 -88.5
t-38.5 -122t13.5 -160q19 -80 93.5 -128.5t154.5 -43.5zM293 1212h635v-16h-635v16z" />
    <glyph glyph-name="Abreve" unicode="&#x102;" horiz-adv-x="1271" 
d="M1251 14v-14h-315v14q26 26 30 63.5t-8 83.5t-43 128l-100 260h-508l-55 -156q-52 -147 -52 -230t62 -149v-14h-242v14q69 72 118 156t98 223l307 864l-68 177h162l399 -1041q60 -146 106 -225.5t109 -153.5zM313 565h496l-258 670zM819 1853h15q-9 -118 -72 -184.5
t-168 -66.5q-104 0 -167 67t-71 184h15q24 -87 78.5 -123t144.5 -36q91 0 145.5 36t79.5 123z" />
    <glyph glyph-name="abreve" unicode="&#x103;" horiz-adv-x="1056" 
d="M995 14v-14h-207v287q-88 -299 -362 -299q-86 0 -161.5 25.5t-129.5 78t-67 123.5q-13 76 1 140.5t50.5 112.5t85 83t110.5 61q-16 37 -17.5 84.5t16.5 98t51.5 93t95 70t139.5 27.5q53 0 102 -11t94.5 -37t79.5 -64.5t54 -97.5t20 -132v-508q0 -53 10.5 -80t34.5 -41z
M582 965q-67 0 -124.5 -30.5t-90.5 -79.5t-44.5 -110.5t13.5 -123.5q149 55 330 55q56 0 122 -19v15q0 81 -20.5 145.5t-68 106t-117.5 41.5zM475 14q64 4 117.5 31.5t91 73t63 96t41.5 109.5v315q-45 18 -122 18q-59 0 -116 -10t-116.5 -32t-104 -58.5t-77.5 -88.5
t-38.5 -122t13.5 -160q19 -80 93.5 -128.5t154.5 -43.5zM834 1382h14q-9 -118 -72 -185t-168 -67q-104 0 -166.5 67.5t-70.5 184.5h14q24 -87 78.5 -123t144.5 -36q91 0 146 36t80 123z" />
    <glyph glyph-name="Aogonek" unicode="&#x104;" horiz-adv-x="1271" 
d="M1094 0q-93 -47 -127 -143.5t14 -163.5q27 -38 72 -50.5t92 3.5q42 15 78 59l10 -12q-49 -53 -84 -70q-70 -34 -137 -21t-99 60q-48 73 2 178t152 160h-131v14q26 26 30 63.5t-8 83.5t-43 128l-100 262h-508l-55 -158q-54 -146 -54 -228.5t64 -150.5v-14h-242v14
q70 76 119 159t97 220l307 864l-68 177h160l401 -1041q60 -146 106 -225.5t109 -153.5v-14h-157zM313 565h496l-258 672z" />
    <glyph glyph-name="aogonek" unicode="&#x105;" horiz-adv-x="1124" 
d="M1053 -297l10 -10q-49 -53 -84 -70q-70 -34 -137 -21t-99 60q-48 72 2 177.5t152 160.5h-109v287q-88 -299 -362 -299q-134 0 -236 60t-120 167q-26 146 44 244t203 153q-16 37 -17.5 84.5t16 98t51 93t94.5 70t139 27.5q54 0 103 -11t94.5 -37t79 -64.5t53.5 -97.5
t20 -132v-508q0 -53 10.5 -80t34.5 -41v-14h-71q-93 -47 -127 -143.5t14 -163.5q27 -38 72 -50.5t92 3.5q41 14 78 57zM788 324v315q-45 18 -122 18q-59 0 -116 -10t-116.5 -32t-104 -58.5t-77.5 -88.5t-38.5 -122t13.5 -160q20 -80 94 -128.5t156 -43.5q122 7 200 95
t111 215zM788 657v15q0 81 -20.5 145.5t-68 106t-117.5 41.5q-66 0 -123.5 -30.5t-90.5 -79.5t-44 -110.5t14 -123.5q149 55 330 55q54 0 120 -19z" />
    <glyph glyph-name="Cacute" unicode="&#x106;" horiz-adv-x="1546" 
d="M1470 412l15 -6q-203 -418 -670 -418q-149 0 -287.5 58t-241 155.5t-164 234t-61.5 285.5t64 285.5t170 234t247.5 155.5t291.5 58q158 0 273.5 -40t254.5 -132l-62 -233h-14q-78 123 -177.5 211t-227 130t-256.5 15q-102 -22 -183 -82.5t-130 -146t-73.5 -188.5
t-19 -215t38.5 -220q83 -270 289.5 -402.5t476.5 -91.5q139 20 254 110t192 243zM1018 1890q16 -17 10.5 -44.5t-39.5 -47.5q-188 -110 -305 -153l-12 18q111 106 250 229q32 26 56.5 23t39.5 -25z" />
    <glyph glyph-name="cacute" unicode="&#x107;" horiz-adv-x="1126" 
d="M270 334q57 -160 179 -242t278 -67q209 21 346 258l12 -7q-149 -272 -428 -288q-108 -5 -208 22t-181 84t-131 153t-53 218q-3 102 30.5 189.5t89.5 147t128 102t145.5 62t143.5 19.5q83 0 192.5 -32t194.5 -76l-31 -170h-12q-19 48 -62.5 98t-101 91.5t-131 61
t-142.5 3.5q-73 -17 -131.5 -63.5t-93.5 -111.5t-52 -141t-12 -157t31 -154zM827 1419q16 -17 11 -44.5t-39 -47.5q-188 -110 -305 -153l-13 18q111 106 250 229q32 26 56.5 23t39.5 -25z" />
    <glyph glyph-name="Ccircumflex" unicode="&#x108;" horiz-adv-x="1546" 
d="M1470 412l15 -6q-203 -418 -670 -418q-149 0 -287.5 58t-241 155.5t-164 234t-61.5 285.5t64 285.5t170 234t247.5 155.5t291.5 58q158 0 273.5 -40t254.5 -132l-62 -233h-14q-78 123 -177.5 211t-227 130t-256.5 15q-102 -22 -183 -82.5t-130 -146t-73.5 -188.5
t-19 -215t38.5 -220q83 -270 289.5 -402.5t476.5 -91.5q139 20 254 110t192 243zM813 1855l262 -262l-10 -10l-252 162l-250 -162l-12 10z" />
    <glyph glyph-name="ccircumflex" unicode="&#x109;" horiz-adv-x="1126" 
d="M270 334q57 -160 179 -242t278 -67q209 21 346 258l12 -7q-149 -272 -428 -288q-108 -5 -208 22t-181 84t-131 153t-53 218q-3 102 30.5 189.5t89.5 147t128 102t145.5 62t143.5 19.5q83 0 192.5 -32t194.5 -76l-31 -170h-12q-19 48 -62.5 98t-101 91.5t-131 61
t-142.5 3.5q-73 -17 -131.5 -63.5t-93.5 -111.5t-52 -141t-12 -157t31 -154zM625 1384l262 -262l-10 -10l-252 162l-250 -162l-13 10z" />
    <glyph glyph-name="Cdotaccent" unicode="&#x10a;" horiz-adv-x="1546" 
d="M1470 412l15 -6q-203 -418 -670 -418q-149 0 -287.5 58t-241 155.5t-164 234t-61.5 285.5t64 285.5t170 234t247.5 155.5t291.5 58q158 0 273.5 -40t254.5 -132l-62 -233h-14q-78 123 -177.5 211t-227 130t-256.5 15q-102 -22 -183 -82.5t-130 -146t-73.5 -188.5
t-19 -215t38.5 -220q83 -270 289.5 -402.5t476.5 -91.5q139 20 254 110t192 243zM813 1765q38 0 64 -26.5t26 -63.5t-26 -63.5t-64 -26.5q-37 0 -62.5 26.5t-25.5 63.5t25.5 63.5t62.5 26.5z" />
    <glyph glyph-name="cdotaccent" unicode="&#x10b;" horiz-adv-x="1126" 
d="M270 334q57 -160 179 -242t278 -67q209 21 346 258l12 -7q-149 -272 -428 -288q-108 -5 -208 22t-181 84t-131 153t-53 218q-3 102 30.5 189.5t89.5 147t128 102t145.5 62t143.5 19.5q83 0 192.5 -32t194.5 -76l-31 -170h-12q-19 48 -62.5 98t-101 91.5t-131 61
t-142.5 3.5q-73 -17 -131.5 -63.5t-93.5 -111.5t-52 -141t-12 -157t31 -154zM623 1294q38 0 64 -26.5t26 -63.5t-26 -63.5t-64 -26.5q-37 0 -62.5 26.5t-25.5 63.5t25.5 63.5t62.5 26.5z" />
    <glyph glyph-name="Ccaron" unicode="&#x10c;" horiz-adv-x="1546" 
d="M1470 412l15 -6q-203 -418 -670 -418q-149 0 -287.5 58t-241 155.5t-164 234t-61.5 285.5t64 285.5t170 234t247.5 155.5t291.5 58q158 0 273.5 -40t254.5 -132l-62 -233h-14q-78 123 -177.5 211t-227 130t-256.5 15q-102 -22 -183 -82.5t-130 -146t-73.5 -188.5
t-19 -215t38.5 -220q83 -270 289.5 -402.5t476.5 -91.5q139 20 254 110t192 243zM1055 1845l-262 -262l-263 262l11 10l252 -161l249 161z" />
    <glyph glyph-name="ccaron" unicode="&#x10d;" horiz-adv-x="1126" 
d="M270 334q57 -160 179 -242t278 -67q209 21 346 258l12 -7q-149 -272 -428 -288q-108 -5 -208 22t-181 84t-131 153t-53 218q-3 102 30.5 189.5t89.5 147t128 102t145.5 62t143.5 19.5q83 0 192.5 -32t194.5 -76l-31 -170h-12q-19 48 -62.5 98t-101 91.5t-131 61
t-142.5 3.5q-73 -17 -131.5 -63.5t-93.5 -111.5t-52 -141t-12 -157t31 -154zM887 1374l-262 -262l-263 262l11 10l252 -161l249 161z" />
    <glyph glyph-name="Dcaron" unicode="&#x10e;" horiz-adv-x="1476" 
d="M594 1434q175 0 328 -55.5t261 -151.5t170 -228.5t62 -281.5q0 -150 -62 -283t-170 -228t-261 -150.5t-328 -55.5h-512v14q24 14 34.5 41t10.5 80v1161q0 53 -10.5 80t-34.5 41v17h512zM594 14q150 0 275.5 56.5t208.5 153t129 224t46 269.5q0 190 -78 348t-230 255
t-351 97h-305v-1403h305zM969 1845l-262 -262l-263 262l11 10l252 -161l249 161z" />
    <glyph glyph-name="dcaron" unicode="&#x10f;" horiz-adv-x="1337" 
d="M1100 14v-14h-207v549q-11 -65 -26 -124.5t-38.5 -126t-57.5 -120t-77 -97.5t-102.5 -68.5t-128.5 -24.5q-64 0 -128.5 27t-120 76.5t-91.5 128.5t-39 173q-2 105 23 192t68 147t103 106.5t122.5 73.5t132.5 44t126.5 23t110.5 6q60 0 123 -18v352q0 56 -8.5 75t-38.5 23
v17l194 43h15v-1342q0 -53 10.5 -80t34.5 -41zM555 25q81 16 148.5 94.5t107 181.5t61 201t21.5 168v286q-1 0 -14 3.5t-26.5 6.5t-36.5 6t-46 3q-48 -1 -94 -7.5t-102 -24.5t-104 -46t-93.5 -76t-76 -109.5t-46.5 -151.5t-10 -198q4 -67 28.5 -132t64 -115.5t97.5 -76
t121 -13.5zM1329 1477q44 0 77.5 -33.5t33.5 -79.5q0 -153 -185 -301l-10 10q64 56 102 105t56 106q-34 -31 -74 -31q-45 0 -78.5 33.5t-33.5 77.5q0 46 33 79.5t79 33.5z" />
    <glyph glyph-name="Dcroat" unicode="&#x110;" horiz-adv-x="1527" 
d="M645 1434q175 0 328 -55.5t261 -151.5t170 -228.5t62 -281.5q0 -150 -62 -283t-170 -228t-261 -150.5t-328 -55.5h-512v14q24 14 34.5 41t10.5 80v574h-178v16h178v573q0 52 -10.5 78.5t-34.5 40.5v17h512zM645 14q150 0 275.5 56.5t209 153t129.5 224t46 269.5
t-46 268.5t-129.5 222.5t-209 152.5t-275.5 56.5h-305v-692h448v-16h-448v-695h305z" />
    <glyph glyph-name="dcroat" unicode="&#x111;" horiz-adv-x="1161" 
d="M1239 1155v-14h-186v-1006q0 -53 11 -80t36 -41v-14h-47h-162v549q-10 -65 -25 -124.5t-38.5 -126t-57 -120t-76.5 -97.5t-102.5 -68.5t-128.5 -24.5q-64 0 -129.5 27.5t-120.5 77t-91 128.5t-38 172q-3 105 22 192t67.5 147t103 106.5t122.5 73.5t132.5 44t127 23
t111.5 6q58 0 121 -18v174h-440v14h440v164q0 57 -8 75.5t-37 22.5v17l192 43h15v-322h186zM891 672v284q-1 0 -14 3.5t-26.5 6.5t-36.5 6t-46 3q-47 -1 -93 -7.5t-102 -24.5t-104 -46t-94 -75.5t-76.5 -109t-46.5 -152t-10 -198.5q4 -67 28.5 -132t64 -115.5t97.5 -76
t121 -13.5q81 16 148.5 94.5t107 181.5t61 201.5t21.5 169.5z" />
    <glyph glyph-name="Emacron" unicode="&#x112;" horiz-adv-x="1019" 
d="M946 256l12 -8l-45 -248h-831v14q24 14 34.5 41t10.5 80v1161q0 53 -10.5 80t-34.5 41v17h766l43 -228l-10 -8q-41 46 -79.5 80t-93.5 68.5t-125 52.5t-151 18h-143v-604l516 45v-104l-516 43v-783h166q157 0 284 69t207 173zM162 1683h635v-16h-635v16z" />
    <glyph glyph-name="emacron" unicode="&#x113;" 
d="M872 662q95 -25 156.5 -114.5t50.5 -221.5q-5 -58 -32.5 -114.5t-78 -108t-134 -83.5t-187.5 -32q-87 0 -166.5 17t-151.5 54t-125 91.5t-85.5 135.5t-34.5 179q-3 102 30.5 188.5t89 144.5t128.5 100t145.5 62.5t143.5 24.5q69 3 139 -13t135.5 -52t111.5 -102.5
t56 -155.5h-145h-46zM528 961q-100 -19 -168.5 -96t-97.5 -187h653q-21 139 -131 225t-256 58zM1061 322q9 77 -10 142.5t-58.5 108t-92.5 66t-112 23.5h-530q-42 -171 14 -328q111 -314 439 -301q133 6 234 88t116 201zM285 1212h635v-16h-635v16z" />
    <glyph glyph-name="Ebreve" unicode="&#x114;" horiz-adv-x="1019" 
d="M946 256l12 -8l-45 -248h-831v14q24 14 34.5 41t10.5 80v1161q0 53 -10.5 80t-34.5 41v17h766l43 -228l-10 -8q-41 46 -79.5 80t-93.5 68.5t-125 52.5t-151 18h-143v-604l516 45v-104l-516 43v-783h166q157 0 284 69t207 173zM743 1853h15q-9 -118 -72 -184.5t-168 -66.5
q-104 0 -166.5 67t-70.5 184h14q24 -87 78.5 -123t144.5 -36q91 0 145.5 36t79.5 123z" />
    <glyph glyph-name="ebreve" unicode="&#x115;" 
d="M872 662q95 -25 156.5 -114.5t50.5 -221.5q-5 -58 -32.5 -114.5t-78 -108t-134 -83.5t-187.5 -32q-87 0 -166.5 17t-151.5 54t-125 91.5t-85.5 135.5t-34.5 179q-3 102 30.5 188.5t89 144.5t128.5 100t145.5 62.5t143.5 24.5q69 3 139 -13t135.5 -52t111.5 -102.5
t56 -155.5h-145h-46zM528 961q-100 -19 -168.5 -96t-97.5 -187h653q-21 139 -131 225t-256 58zM1061 322q9 77 -10 142.5t-58.5 108t-92.5 66t-112 23.5h-530q-42 -171 14 -328q111 -314 439 -301q133 6 234 88t116 201zM846 1382h14q-9 -118 -71.5 -185t-167.5 -67
q-104 0 -167 67.5t-71 184.5h14q24 -87 79 -123t145 -36q91 0 145.5 36t79.5 123z" />
    <glyph glyph-name="Edotaccent" unicode="&#x116;" horiz-adv-x="1019" 
d="M946 256l12 -8l-45 -248h-831v14q24 14 34.5 41t10.5 80v1161q0 53 -10.5 80t-34.5 41v17h766l43 -228l-10 -8q-41 46 -79.5 80t-93.5 68.5t-125 52.5t-151 18h-143v-604l516 45v-104l-516 43v-783h166q157 0 284 69t207 173zM518 1765q38 0 64 -26.5t26 -63.5t-26 -63.5
t-64 -26.5q-37 0 -62.5 26.5t-25.5 63.5t25.5 63.5t62.5 26.5z" />
    <glyph glyph-name="edotaccent" unicode="&#x117;" 
d="M872 662q95 -25 156.5 -114.5t50.5 -221.5q-5 -58 -32.5 -114.5t-78 -108t-134 -83.5t-187.5 -32q-87 0 -166.5 17t-151.5 54t-125 91.5t-85.5 135.5t-34.5 179q-3 102 30.5 188.5t89 144.5t128.5 100t145.5 62.5t143.5 24.5q69 3 139 -13t135.5 -52t111.5 -102.5
t56 -155.5h-145h-46zM528 961q-100 -19 -168.5 -96t-97.5 -187h653q-21 139 -131 225t-256 58zM1061 322q9 77 -10 142.5t-58.5 108t-92.5 66t-112 23.5h-530q-42 -171 14 -328q111 -314 439 -301q133 6 234 88t116 201zM621 1294q38 0 64 -26.5t26 -63.5t-26 -63.5
t-64 -26.5q-37 0 -63 26.5t-26 63.5t26 63.5t63 26.5z" />
    <glyph glyph-name="Eogonek" unicode="&#x118;" horiz-adv-x="1019" 
d="M948 -295l8 -12q-40 -49 -82 -70q-70 -34 -137.5 -21t-99.5 60q-46 74 4 178.5t152 159.5h-711v14q24 14 34.5 41t10.5 80v1163q0 52 -10.5 78.5t-34.5 40.5v17h764l45 -228l-10 -6q-41 45 -80 78.5t-94 68t-125 52.5t-150 18h-143v-604l516 45v-104l-516 45v-785h164
q159 0 286 69t207 173l10 -8l-43 -248h-94q-46 -23 -79 -62t-48 -81.5t-11.5 -86.5t26.5 -77q26 -38 71 -50.5t92 3.5q35 12 78 59z" />
    <glyph glyph-name="eogonek" unicode="&#x119;" 
d="M872 662q95 -24 156.5 -113.5t50.5 -222.5q-8 -102 -84 -194t-213 -126q-49 -21 -85.5 -60.5t-53.5 -83.5t-14.5 -89.5t26.5 -79.5q26 -38 71.5 -50.5t92.5 3.5q35 12 78 59l8 -12q-40 -49 -82 -70q-70 -34 -137.5 -21t-99.5 60q-46 72 2.5 175.5t148.5 160.5
q-39 -8 -90 -8q-87 0 -166.5 16.5t-151.5 53.5t-125 91.5t-85.5 135t-34.5 178.5q-3 102 30.5 189t89 145t128.5 100t145.5 62t143.5 24q69 3 139 -13t135.5 -52t111.5 -102.5t56 -155.5h-145h-46zM528 961q-101 -18 -168.5 -95t-97.5 -188h653q-21 139 -131 225t-256 58z
M1061 322q9 77 -10 142.5t-58.5 108t-92.5 66t-112 23.5h-530q-43 -174 12 -328q114 -314 441 -301q133 6 234 88t116 201z" />
    <glyph glyph-name="Ecaron" unicode="&#x11a;" horiz-adv-x="1019" 
d="M946 256l12 -8l-45 -248h-831v14q24 14 34.5 41t10.5 80v1161q0 53 -10.5 80t-34.5 41v17h766l43 -228l-10 -8q-41 46 -79.5 80t-93.5 68.5t-125 52.5t-151 18h-143v-604l516 45v-104l-516 43v-783h166q157 0 284 69t207 173zM782 1845l-262 -262l-262 262l10 10
l252 -161l250 161z" />
    <glyph glyph-name="ecaron" unicode="&#x11b;" 
d="M872 662q95 -25 156.5 -114.5t50.5 -221.5q-5 -58 -32.5 -114.5t-78 -108t-134 -83.5t-187.5 -32q-87 0 -166.5 17t-151.5 54t-125 91.5t-85.5 135.5t-34.5 179q-3 102 30.5 188.5t89 144.5t128.5 100t145.5 62.5t143.5 24.5q69 3 139 -13t135.5 -52t111.5 -102.5
t56 -155.5h-145h-46zM528 961q-100 -19 -168.5 -96t-97.5 -187h653q-21 139 -131 225t-256 58zM1061 322q9 77 -10 142.5t-58.5 108t-92.5 66t-112 23.5h-530q-42 -171 14 -328q111 -314 439 -301q133 6 234 88t116 201zM885 1374l-262 -262l-263 262l11 10l252 -161
l249 161z" />
    <glyph glyph-name="Gcircumflex" unicode="&#x11c;" horiz-adv-x="1562" 
d="M1126 682h365v-16q-24 -14 -34.5 -40.5t-10.5 -80.5v-221q-18 -40 -50 -81t-88.5 -88t-126.5 -83t-171.5 -60t-216.5 -24q-198 0 -366.5 98t-267 266.5t-98.5 368.5q0 149 64 285.5t170 234t247.5 155.5t291.5 58q158 0 273.5 -40t254.5 -132l-62 -233h-14
q-78 123 -177.5 211t-227 130t-256.5 15q-102 -22 -183 -82.5t-130 -146t-73.5 -188.5t-19 -215t38.5 -220q85 -274 279 -412.5t464 -103.5q168 22 283 147v273q0 94 -41.5 149.5t-116.5 59.5v16zM817 1855l262 -262l-10 -10l-252 162l-250 -162l-12 10z" />
    <glyph glyph-name="gcircumflex" unicode="&#x11d;" horiz-adv-x="1312" 
d="M1143 55q88 1 129 -41.5t41 -115.5q0 -77 -59 -140t-145 -95t-175 -32q-52 0 -96 12.5t-76 36.5t-53 46t-43 53q-181 -110 -293 -117q-85 -6 -138.5 25.5t-54.5 99.5q-1 45 30.5 83t83 62.5t108.5 40t114 21.5q-188 23 -311 141.5t-123 306.5q0 122 48.5 226.5
t127.5 172.5t178 106t203 38q120 0 229 -45l351 102l12 -102l-330 -14q115 -56 182.5 -158.5t67.5 -237.5q0 -96 -31.5 -182t-85.5 -151t-124.5 -112.5t-151.5 -72t-164 -24.5q-13 0 -21 2q-74 -3 -136 -20t-106.5 -57.5t-39.5 -98.5q3 -54 31.5 -85.5t83.5 -31.5
q17 0 34.5 2t37.5 8.5t36 11.5t40 17l38 19t42 23.5t40 23.5t43.5 26.5t42.5 26.5q41 24 107 67t104.5 67t86.5 44.5t85 21.5zM256 377q57 -194 193.5 -298t304.5 -54q84 25 142.5 83t84 135.5t25.5 168t-27 184.5q-57 193 -193.5 297t-304.5 55q-85 -25 -143.5 -83
t-84 -135.5t-25 -168t27.5 -184.5zM1188 -137q3 77 -21 118t-82 33q-13 -2 -30 -8t-39.5 -17t-42 -21.5t-48.5 -28.5t-49 -30t-53 -33t-51 -32q-15 -9 -46 -27.5t-46 -27.5q19 -28 36 -47t47.5 -44t73.5 -38t97 -14q117 -1 182.5 56.5t71.5 160.5zM655 1384l263 -262
l-11 -10l-252 162l-249 -162l-13 10z" />
    <glyph glyph-name="Gbreve" unicode="&#x11e;" horiz-adv-x="1562" 
d="M1126 682h365v-16q-24 -14 -34.5 -40.5t-10.5 -80.5v-221q-18 -40 -50 -81t-88.5 -88t-126.5 -83t-171.5 -60t-216.5 -24q-198 0 -366.5 98t-267 266.5t-98.5 368.5q0 149 64 285.5t170 234t247.5 155.5t291.5 58q158 0 273.5 -40t254.5 -132l-62 -233h-14
q-78 123 -177.5 211t-227 130t-256.5 15q-102 -22 -183 -82.5t-130 -146t-73.5 -188.5t-19 -215t38.5 -220q85 -274 279 -412.5t464 -103.5q168 22 283 147v273q0 94 -41.5 149.5t-116.5 59.5v16zM1040 1853h15q-9 -118 -72 -184.5t-168 -66.5q-104 0 -166.5 67t-70.5 184
h14q24 -87 78.5 -123t144.5 -36q91 0 145.5 36t79.5 123z" />
    <glyph glyph-name="gbreve" unicode="&#x11f;" horiz-adv-x="1312" 
d="M1143 55q88 1 129 -41.5t41 -115.5q0 -77 -59 -140t-145 -95t-175 -32q-52 0 -96 12.5t-76 36.5t-53 46t-43 53q-181 -110 -293 -117q-85 -6 -138.5 25.5t-54.5 99.5q-1 45 30.5 83t83 62.5t108.5 40t114 21.5q-188 23 -311 141.5t-123 306.5q0 122 48.5 226.5
t127.5 172.5t178 106t203 38q120 0 229 -45l351 102l12 -102l-330 -14q115 -56 182.5 -158.5t67.5 -237.5q0 -96 -31.5 -182t-85.5 -151t-124.5 -112.5t-151.5 -72t-164 -24.5q-13 0 -21 2q-74 -3 -136 -20t-106.5 -57.5t-39.5 -98.5q3 -54 31.5 -85.5t83.5 -31.5
q17 0 34.5 2t37.5 8.5t36 11.5t40 17l38 19t42 23.5t40 23.5t43.5 26.5t42.5 26.5q41 24 107 67t104.5 67t86.5 44.5t85 21.5zM256 377q57 -194 193.5 -298t304.5 -54q84 25 142.5 83t84 135.5t25.5 168t-27 184.5q-57 193 -193.5 297t-304.5 55q-85 -25 -143.5 -83
t-84 -135.5t-25 -168t27.5 -184.5zM1188 -137q3 77 -21 118t-82 33q-13 -2 -30 -8t-39.5 -17t-42 -21.5t-48.5 -28.5t-49 -30t-53 -33t-51 -32q-15 -9 -46 -27.5t-46 -27.5q19 -28 36 -47t47.5 -44t73.5 -38t97 -14q117 -1 182.5 56.5t71.5 160.5zM860 1382h14
q-9 -118 -71.5 -185t-167.5 -67q-104 0 -167 67.5t-71 184.5h15q24 -87 78.5 -123t144.5 -36q91 0 145.5 36t79.5 123z" />
    <glyph glyph-name="Gdotaccent" unicode="&#x120;" horiz-adv-x="1562" 
d="M1126 682h365v-16q-24 -14 -34.5 -40.5t-10.5 -80.5v-221q-18 -40 -50 -81t-88.5 -88t-126.5 -83t-171.5 -60t-216.5 -24q-198 0 -366.5 98t-267 266.5t-98.5 368.5q0 149 64 285.5t170 234t247.5 155.5t291.5 58q158 0 273.5 -40t254.5 -132l-62 -233h-14
q-78 123 -177.5 211t-227 130t-256.5 15q-102 -22 -183 -82.5t-130 -146t-73.5 -188.5t-19 -215t38.5 -220q85 -274 279 -412.5t464 -103.5q168 22 283 147v273q0 94 -41.5 149.5t-116.5 59.5v16zM815 1765q38 0 64 -26.5t26 -63.5t-26 -63.5t-64 -26.5q-37 0 -62.5 26.5
t-25.5 63.5t25.5 63.5t62.5 26.5z" />
    <glyph glyph-name="gdotaccent" unicode="&#x121;" horiz-adv-x="1312" 
d="M1143 55q88 1 129 -41.5t41 -115.5q0 -77 -59 -140t-145 -95t-175 -32q-52 0 -96 12.5t-76 36.5t-53 46t-43 53q-181 -110 -293 -117q-85 -6 -138.5 25.5t-54.5 99.5q-1 45 30.5 83t83 62.5t108.5 40t114 21.5q-188 23 -311 141.5t-123 306.5q0 122 48.5 226.5
t127.5 172.5t178 106t203 38q120 0 229 -45l351 102l12 -102l-330 -14q115 -56 182.5 -158.5t67.5 -237.5q0 -96 -31.5 -182t-85.5 -151t-124.5 -112.5t-151.5 -72t-164 -24.5q-13 0 -21 2q-74 -3 -136 -20t-106.5 -57.5t-39.5 -98.5q3 -54 31.5 -85.5t83.5 -31.5
q17 0 34.5 2t37.5 8.5t36 11.5t40 17l38 19t42 23.5t40 23.5t43.5 26.5t42.5 26.5q41 24 107 67t104.5 67t86.5 44.5t85 21.5zM256 377q57 -194 193.5 -298t304.5 -54q84 25 142.5 83t84 135.5t25.5 168t-27 184.5q-57 193 -193.5 297t-304.5 55q-85 -25 -143.5 -83
t-84 -135.5t-25 -168t27.5 -184.5zM1188 -137q3 77 -21 118t-82 33q-13 -2 -30 -8t-39.5 -17t-42 -21.5t-48.5 -28.5t-49 -30t-53 -33t-51 -32q-15 -9 -46 -27.5t-46 -27.5q19 -28 36 -47t47.5 -44t73.5 -38t97 -14q117 -1 182.5 56.5t71.5 160.5zM655 1294q38 0 64 -26.5
t26 -63.5t-26 -63.5t-64 -26.5q-37 0 -62.5 26.5t-25.5 63.5t25.5 63.5t62.5 26.5z" />
    <glyph glyph-name="Gcommaaccent" unicode="&#x122;" horiz-adv-x="1562" 
d="M1126 682h365v-16q-24 -14 -34.5 -40.5t-10.5 -80.5v-221q-18 -40 -50 -81t-88.5 -88t-126.5 -83t-171.5 -60t-216.5 -24q-198 0 -366.5 98t-267 266.5t-98.5 368.5q0 149 64 285.5t170 234t247.5 155.5t291.5 58q158 0 273.5 -40t254.5 -132l-62 -233h-14
q-78 123 -177.5 211t-227 130t-256.5 15q-102 -22 -183 -82.5t-130 -146t-73.5 -188.5t-19 -215t38.5 -220q85 -274 279 -412.5t464 -103.5q168 22 283 147v273q0 94 -41.5 149.5t-116.5 59.5v16zM817 -170q37 0 62.5 -25.5t25.5 -62.5q0 -121 -145 -240l-8 9
q103 90 125 167q-27 -24 -60 -24q-36 0 -62 26t-26 62q0 37 25.5 62.5t62.5 25.5z" />
    <glyph glyph-name="gcommaaccent" unicode="&#x123;" horiz-adv-x="1312" 
d="M1143 55q88 1 129 -41.5t41 -115.5q0 -77 -59 -140t-145 -95t-175 -32q-52 0 -96 12.5t-76 36.5t-53 46t-43 53q-181 -110 -293 -117q-85 -6 -138.5 25.5t-54.5 99.5q-1 45 30.5 83t83 62.5t108.5 40t114 21.5q-188 23 -311 141.5t-123 306.5q0 122 48.5 226.5
t127.5 172.5t178 106t203 38q120 0 229 -45l351 102l12 -102l-330 -14q115 -56 182.5 -158.5t67.5 -237.5q0 -96 -31.5 -182t-85.5 -151t-124.5 -112.5t-151.5 -72t-164 -24.5q-13 0 -21 2q-74 -3 -136 -20t-106.5 -57.5t-39.5 -98.5q3 -54 31.5 -85.5t83.5 -31.5
q17 0 34.5 2t37.5 8.5t36 11.5t40 17l38 19t42 23.5t40 23.5t43.5 26.5t42.5 26.5q41 24 107 67t104.5 67t86.5 44.5t85 21.5zM256 377q57 -194 193.5 -298t304.5 -54q84 25 142.5 83t84 135.5t25.5 168t-27 184.5q-57 193 -193.5 297t-304.5 55q-85 -25 -143.5 -83
t-84 -135.5t-25 -168t27.5 -184.5zM1188 -137q3 77 -21 118t-82 33q-13 -2 -30 -8t-39.5 -17t-42 -21.5t-48.5 -28.5t-49 -30t-53 -33t-51 -32q-15 -9 -46 -27.5t-46 -27.5q19 -28 36 -47t47.5 -44t73.5 -38t97 -14q117 -1 182.5 56.5t71.5 160.5zM635 1362q46 0 78 -32.5
t32 -78.5t-32 -78t-78 -32t-78.5 32t-32.5 78q0 155 185 303l10 -10q-128 -109 -158 -211q29 29 74 29z" />
    <glyph glyph-name="Hcircumflex" unicode="&#x124;" horiz-adv-x="1292" 
d="M1210 1417q-24 -14 -34.5 -41t-10.5 -80v-1161q0 -53 10.5 -80t34.5 -41v-14h-254v14q25 14 36.5 41t11.5 80v707h-713v-707q0 -53 10.5 -80t34.5 -41v-14h-254v14q25 14 36 41t11 80v1161q0 53 -11 80t-36 41v17h254v-17q-24 -14 -34.5 -41t-10.5 -80v-440h713v440
q0 53 -11.5 80t-36.5 41v17h254v-17zM645 1855l262 -262l-10 -10l-252 162l-250 -162l-12 10z" />
    <glyph glyph-name="hcircumflex" unicode="&#x125;" horiz-adv-x="1134" 
d="M1036 135q6 -53 19.5 -80t38.5 -41v-14h-252v14q43 25 35 121q-4 30 -13.5 134t-20.5 227t-14 159q-5 49 -17 93.5t-34 86t-51 70t-72 41t-94 2.5q-65 -13 -115.5 -68.5t-79 -127.5t-46.5 -161.5t-23.5 -158t-5.5 -129.5v-168q0 -53 10.5 -80t34.5 -41v-14h-254v14
q25 14 36 41t11 80v1184q0 56 -8.5 75t-38.5 23v17l192 43h17v-1000q8 77 21.5 141.5t40.5 135.5t64.5 119t98 80t137.5 32q132 0 224 -91.5t110 -268.5q10 -88 20.5 -191.5t18.5 -189t10 -109.5zM362 1870l263 -262l-11 -11l-252 162l-249 -162l-13 11z" />
    <glyph glyph-name="Hbar" unicode="&#x126;" horiz-adv-x="1292" 
d="M1321 1090h-156v-955q0 -53 10.5 -80t34.5 -41v-14h-252v14q24 14 35 41.5t11 79.5v707h-713v-707q0 -53 10.5 -80t34.5 -41v-14h-252v14q24 14 34.5 41t10.5 80v955h-156v14h156v194q0 52 -10.5 78.5t-34.5 40.5v17h252v-17q-24 -14 -34.5 -40.5t-10.5 -78.5v-194h713
v194q0 52 -11 78.5t-35 40.5v17h252v-17q-24 -14 -34.5 -40.5t-10.5 -78.5v-194h156v-14zM1004 856v234h-713v-234h713z" />
    <glyph glyph-name="hbar" unicode="&#x127;" horiz-adv-x="1134" 
d="M1036 135q6 -53 19.5 -80t38.5 -41v-14h-254v14q24 13 31.5 40.5t2.5 80.5q-33 379 -47 520q-4 48 -15.5 93t-33.5 86.5t-51 70t-72 41t-94 2.5q-65 -13 -116 -68.5t-79.5 -127.5t-46.5 -161t-24 -158.5t-6 -129.5v-168q0 -53 11 -80t36 -41v-14h-254v14q24 14 34.5 41
t10.5 80v1006h-186v14h186v164q0 57 -8 75.5t-37 22.5v17l192 43h15v-322h440v-14h-440v-664q8 64 18.5 118t28.5 115t45.5 107.5t64 86t89 60.5t116.5 21q133 0 225.5 -91.5t110.5 -268.5q8 -78 19 -191.5t19 -189.5t11 -109z" />
    <glyph glyph-name="Itilde" unicode="&#x128;" horiz-adv-x="417" 
d="M336 1417q-25 -14 -36 -41t-11 -80v-1161q0 -53 11 -80t36 -41v-14h-254v14q24 14 34.5 41t10.5 80v1161q0 53 -10.5 80t-34.5 41v17h254v-17zM506 1774l16 -5q-28 -85 -69.5 -133.5t-106.5 -48.5q-68 0 -183 42.5t-153 41.5q-40 0 -59.5 -19.5t-38.5 -76.5l-16 6
q29 88 70.5 130t111.5 42q64 0 169.5 -41t162.5 -39q34 0 56 21t40 80z" />
    <glyph glyph-name="itilde" unicode="&#x129;" horiz-adv-x="397" 
d="M289 135q0 -53 11 -80t36 -41v-14h-254v14q24 14 34.5 41t10.5 80v692q0 56 -8.5 75.5t-36.5 23.5v14l192 45h15v-850zM496 1303l16 -5q-28 -85 -69.5 -133.5t-106.5 -48.5q-68 0 -183 42.5t-153 41.5q-40 0 -59.5 -19.5t-38.5 -76.5l-17 6q29 88 71 130t112 42
q64 0 169 -41t162 -39q35 0 57 21.5t40 79.5z" />
    <glyph glyph-name="Imacron" unicode="&#x12a;" horiz-adv-x="417" 
d="M336 1417q-25 -14 -36 -41t-11 -80v-1161q0 -53 11 -80t36 -41v-14h-254v14q24 14 34.5 41t10.5 80v1161q0 53 -10.5 80t-34.5 41v17h254v-17zM-109 1683h635v-16h-635v16z" />
    <glyph glyph-name="imacron" unicode="&#x12b;" horiz-adv-x="397" 
d="M289 135q0 -53 11 -80t36 -41v-14h-254v14q24 14 34.5 41t10.5 80v692q0 56 -8.5 75.5t-36.5 23.5v14l192 45h15v-850zM-119 1212h635v-16h-635v16z" />
    <glyph glyph-name="Ibreve" unicode="&#x12c;" horiz-adv-x="417" 
d="M334 1417q-25 -14 -36 -41t-11 -80v-1161q0 -53 11 -80t36 -41v-14h-254v14q24 14 34.5 41t10.5 80v1161q0 53 -10.5 80t-34.5 41v17h254v-17zM432 1853h14q-9 -118 -71.5 -184.5t-167.5 -66.5q-104 0 -167 67t-71 184h15q24 -87 78.5 -123t144.5 -36q91 0 145.5 36
t79.5 123z" />
    <glyph glyph-name="ibreve" unicode="&#x12d;" horiz-adv-x="397" 
d="M289 135q0 -53 11 -80t36 -41v-14h-254v14q24 14 34.5 41t10.5 80v692q0 56 -8.5 75.5t-36.5 23.5v14l192 45h15v-850zM424 1382h14q-9 -118 -71.5 -185t-167.5 -67q-104 0 -167 67.5t-71 184.5h14q24 -87 79 -123t145 -36q91 0 145.5 36t79.5 123z" />
    <glyph glyph-name="Iogonek" unicode="&#x12e;" horiz-adv-x="417" 
d="M369 -295l8 -12q-49 -53 -84 -70q-70 -34 -137 -21t-99 60q-48 73 2 178t154 160h-131v14q24 14 34.5 41t10.5 80v1163q0 52 -10.5 78.5t-34.5 40.5v17h252v-17q-24 -14 -34.5 -40.5t-10.5 -78.5v-1163q0 -53 10.5 -80t34.5 -41v-14h-94q-46 -23 -79.5 -62t-48.5 -81.5
t-12 -86.5t25 -77q27 -38 72 -50.5t92 3.5q38 13 80 59z" />
    <glyph glyph-name="iogonek" unicode="&#x12f;" horiz-adv-x="397" 
d="M369 -295l10 -12q-49 -53 -84 -70q-70 -34 -138 -21t-98 60q-48 73 2 178t152 160h-133v14q25 14 36 41t11 80v692q0 56 -8.5 75.5t-38.5 23.5v16l192 43h17v-850q0 -53 10.5 -80t34.5 -41v-14h-94q-93 -47 -127 -143.5t14 -163.5q26 -38 71.5 -50.5t92.5 3.5
q42 15 78 59zM201 1151q-40 0 -68.5 28t-28.5 68t28.5 68t68.5 28t68 -28t28 -68t-28 -68t-68 -28z" />
    <glyph glyph-name="Idotaccent" unicode="&#x130;" horiz-adv-x="417" 
d="M336 1417q-25 -14 -36 -41t-11 -80v-1161q0 -53 11 -80t36 -41v-14h-254v14q24 14 34.5 41t10.5 80v1161q0 53 -10.5 80t-34.5 41v17h254v-17zM207 1765q38 0 64 -26.5t26 -63.5t-26 -63.5t-64 -26.5q-37 0 -62.5 26.5t-25.5 63.5t25.5 63.5t62.5 26.5z" />
    <glyph glyph-name="dotlessi" unicode="&#x131;" horiz-adv-x="397" 
d="M289 135q0 -53 11 -80t36 -41v-14h-254v14q24 14 34.5 41t10.5 80v692q0 56 -8.5 75.5t-36.5 23.5v14l192 45h15v-850z" />
    <glyph glyph-name="IJ" unicode="&#x132;" horiz-adv-x="817" 
d="M336 1417q-25 -14 -36 -41t-11 -80v-1161q0 -53 11 -80t36 -41v-14h-254v14q24 14 34.5 41t10.5 80v1161q0 53 -10.5 80t-34.5 41v17h254v-17zM416 1434h319v-17q-25 -14 -36 -40.5t-11 -80.5v-964q0 -86 -18.5 -158t-53.5 -125t-75 -93.5t-95.5 -72.5t-101 -52
t-104.5 -40l-7 19q75 34 123.5 69.5t90 94t60.5 146.5t19 212v944q0 63 -28 100t-82 41v17z" />
    <glyph glyph-name="ij" unicode="&#x133;" horiz-adv-x="794" 
d="M289 135q0 -53 11 -80t36 -41v-14h-254v14q24 14 34.5 41t10.5 80v692q0 56 -8.5 75.5t-36.5 23.5v14l192 45h15v-850zM203 1151q-40 0 -68.5 28t-28.5 68t28.5 68t68.5 28t68 -28t28 -68t-28 -68t-68 -28zM670 985h14v-991q0 -74 -12 -137.5t-30.5 -110.5t-49 -88.5
t-60.5 -69.5t-72.5 -54.5t-77 -43.5t-81.5 -37l-6 21q97 46 142 95t65 139.5t20 262.5v856q0 56 -8.5 75.5t-36.5 23.5v14zM596 1151q-38 0 -66 28t-28 68t28 68t66 28q40 0 68 -28t28 -68t-28 -68t-68 -28z" />
    <glyph glyph-name="Jcircumflex" unicode="&#x134;" horiz-adv-x="501" 
d="M100 1434h320v-17q-25 -14 -36 -40.5t-11 -80.5v-964q0 -102 -28.5 -185.5t-70 -137.5t-106 -99t-118.5 -69.5t-126 -49.5l-6 19q75 34 123.5 69.5t90 94t60.5 146.5t19 212v944q0 63 -28 100t-83 41v17zM272 1855l263 -262l-11 -10l-252 162l-249 -162l-13 10z" />
    <glyph glyph-name="jcircumflex" unicode="&#x135;" horiz-adv-x="417" 
d="M293 985h14v-991q0 -74 -12 -137.5t-30.5 -110.5t-49 -88.5t-60.5 -69.5t-72.5 -54.5t-77 -43.5t-81.5 -37l-6 21q97 46 142 95t65 139.5t20 262.5v856q0 56 -8.5 75.5t-36.5 23.5v14zM219 1384l262 -262l-10 -10l-252 162l-250 -162l-12 10z" />
    <glyph glyph-name="Kcommaaccent" unicode="&#x136;" horiz-adv-x="1261" 
d="M1241 14v-14h-326v14q19 19 23 42.5t-9.5 60t-31 70t-53.5 94.5l-320 563l-233 -240v-469q0 -53 10.5 -80t34.5 -41v-14h-254v14q25 14 36 41t11 80v1161q0 54 -11 80.5t-36 40.5v17h254v-17q-24 -14 -34.5 -40.5t-10.5 -80.5v-671l428 442q143 149 177.5 226t-22.5 124
v17h269v-17q-73 -38 -163.5 -117.5t-234.5 -226.5l-112 -119l346 -606q78 -137 135 -206.5t127 -127.5zM621 -170q37 0 62.5 -25.5t25.5 -62.5q0 -120 -146 -240l-8 9q103 90 125 167q-27 -24 -59 -24q-37 0 -63 26t-26 62q0 37 26 62.5t63 25.5z" />
    <glyph glyph-name="kcommaaccent" unicode="&#x137;" horiz-adv-x="1054" 
d="M745 375q118 -192 171.5 -261.5t117.5 -99.5v-14h-311v14q23 18 24 45t-13 58.5t-48 89.5l-231 377l-166 -146v-293q0 -105 47 -131v-14h-254v14q45 26 45 131v1186q0 53 -7.5 67t-37.5 19v17l192 43h15v-1020l217 190q81 72 128.5 122t70 89t16.5 65t-37 46v16h270v-16
q-78 -31 -158 -92t-239 -201zM516 -170q37 0 62.5 -25.5t25.5 -62.5q0 -121 -145 -240l-8 9q102 89 124 167q-27 -24 -59 -24q-36 0 -62 26t-26 62q0 37 25.5 62.5t62.5 25.5z" />
    <glyph glyph-name="kgreenlandic" unicode="&#x138;" horiz-adv-x="1054" 
d="M745 375q118 -192 171.5 -261.5t117.5 -99.5v-14h-311v14q23 18 24 45t-13 58.5t-48 89.5l-231 377l-166 -146v-293q0 -105 47 -131v-14h-254v14q45 26 45 131v695q0 53 -7.5 67t-37.5 19v16l192 43h15v-528l217 190q81 72 128.5 122t70 89t16.5 65t-37 46v16h270v-16
q-78 -31 -158 -92t-239 -201z" />
    <glyph glyph-name="Lacute" unicode="&#x139;" horiz-adv-x="1021" 
d="M969 256l12 -8l-45 -248h-854v14q25 14 36 41t11 80v1161q0 54 -11 80.5t-36 40.5v17h254v-17q-24 -14 -34.5 -40.5t-10.5 -80.5v-1282h186q159 0 285.5 68.5t206.5 173.5zM489 1890q16 -17 11 -44.5t-39 -47.5q-188 -110 -305 -153l-13 18q111 106 250 229
q32 26 56.5 23t39.5 -25z" />
    <glyph glyph-name="lacute" unicode="&#x13a;" horiz-adv-x="395" 
d="M289 135q0 -53 10.5 -80t34.5 -41v-14h-252v14q24 14 34.5 41t10.5 80v1184q0 56 -8 75t-37 23v17l192 43h15v-1342zM371 1782q16 -17 10.5 -44.5t-39.5 -47.5q-193 -113 -305 -154l-12 18q143 136 249 230q32 26 57 23t40 -25z" />
    <glyph glyph-name="Lcommaaccent" unicode="&#x13b;" horiz-adv-x="1021" 
d="M969 256l12 -8l-45 -248h-854v14q25 14 36 41t11 80v1161q0 54 -11 80.5t-36 40.5v17h254v-17q-24 -14 -34.5 -40.5t-10.5 -80.5v-1282h186q159 0 285.5 68.5t206.5 173.5zM510 -170q37 0 62.5 -25.5t25.5 -62.5q0 -121 -145 -240l-9 9q103 90 125 167q-27 -24 -59 -24
q-36 0 -62 26t-26 62q0 37 25.5 62.5t62.5 25.5z" />
    <glyph glyph-name="lcommaaccent" unicode="&#x13c;" horiz-adv-x="395" 
d="M289 135q0 -53 10.5 -80t34.5 -41v-14h-252v14q24 14 34.5 41t10.5 80v1184q0 56 -8 75t-37 23v17l192 43h15v-1342zM207 -170q37 0 62.5 -25.5t25.5 -62.5q0 -121 -145 -240l-9 9q103 90 125 167q-27 -24 -59 -24q-36 0 -62 26t-26 62q0 37 25.5 62.5t62.5 25.5z" />
    <glyph glyph-name="Lcaron" unicode="&#x13d;" horiz-adv-x="1021" 
d="M969 256l12 -8l-45 -248h-854v14q25 14 36 41t11 80v1161q0 54 -11 80.5t-36 40.5v17h254v-17q-24 -14 -34.5 -40.5t-10.5 -80.5v-1282h186q159 0 285.5 68.5t206.5 173.5zM637 1454q44 0 77.5 -33.5t33.5 -79.5q0 -153 -185 -301l-10 11q64 56 102 105t56 106
q-34 -31 -74 -31q-46 0 -79.5 33t-33.5 77q0 46 33.5 79.5t79.5 33.5z" />
    <glyph glyph-name="lcaron" unicode="&#x13e;" horiz-adv-x="559" 
d="M289 135q0 -53 10.5 -80t34.5 -41v-14h-252v14q24 14 34.5 41t10.5 80v1184q0 56 -8 75t-37 23v17l192 43h15v-1342zM551 1477q44 0 77.5 -33.5t33.5 -79.5q0 -153 -185 -301l-10 10q64 56 102 105t56 106q-34 -31 -74 -31q-46 0 -79.5 33.5t-33.5 77.5q0 46 33.5 79.5
t79.5 33.5z" />
    <glyph glyph-name="Ldot" unicode="&#x13f;" horiz-adv-x="1021" 
d="M643 692q38 0 64 -26.5t26 -63.5t-26 -63.5t-64 -26.5q-37 0 -62.5 26.5t-25.5 63.5t25.5 63.5t62.5 26.5zM969 256l12 -8l-45 -248h-854v14q25 14 36 41t11 80v1161q0 54 -11 80.5t-36 40.5v17h254v-17q-24 -14 -34.5 -40.5t-10.5 -80.5v-1282h186q159 0 285.5 68.5
t206.5 173.5z" />
    <glyph glyph-name="ldot" unicode="&#x140;" horiz-adv-x="632" 
d="M522 692q38 0 64 -26.5t26 -63.5t-26 -63.5t-64 -26.5q-37 0 -62.5 26.5t-25.5 63.5t25.5 63.5t62.5 26.5zM289 135q0 -53 10.5 -80t34.5 -41v-14h-252v14q24 14 34.5 41t10.5 80v1184q0 56 -8 75t-37 23v17l192 43h15v-1342z" />
    <glyph glyph-name="Lslash" unicode="&#x141;" horiz-adv-x="1157" 
d="M1104 256l12 -8l-45 -248h-854v14q25 14 36 41t11 80v258l-182 -76v17l182 76v888q0 53 -11 79t-36 40v17h254v-17q-24 -14 -34.5 -40.5t-10.5 -78.5v-821l387 162v-16l-387 -162v-447h186q157 0 284.5 69t207.5 173z" />
    <glyph glyph-name="lslash" unicode="&#x142;" horiz-adv-x="526" 
d="M547 782l-213 -104v-543q0 -53 10.5 -80t34.5 -41v-14h-252v14q24 14 34.5 41t10.5 80v463l-213 -104v20l213 104v701q0 57 -8 75.5t-37 22.5v17l192 43h15v-781l213 107v-21z" />
    <glyph glyph-name="Nacute" unicode="&#x143;" horiz-adv-x="1443" 
d="M1087 1434h275v-17q-51 -26 -90 -94.5t-39 -134.5v-1188h-31l-975 1247v-1001q0 -66 39.5 -136t91.5 -96v-14h-276v14q52 26 91.5 96t39.5 136v1020l-131 168h207l928 -1176v930q0 65 -39.5 134t-90.5 95v17zM926 1890q16 -17 10.5 -44.5t-39.5 -47.5
q-188 -110 -305 -153l-12 18q126 120 249 229q32 26 57 23t40 -25z" />
    <glyph glyph-name="nacute" unicode="&#x144;" horiz-adv-x="1134" 
d="M1036 135q6 -53 19.5 -80t38.5 -41v-14h-254v14q24 13 31.5 40.5t2.5 80.5q-30 337 -47 520q-4 48 -15.5 93t-33.5 86.5t-51 70t-72 41t-94 2.5q-65 -13 -116 -68.5t-79.5 -127.5t-46.5 -161t-24 -158.5t-6 -129.5v-168q0 -53 11 -80t36 -41v-14h-254v14q24 14 34.5 41
t10.5 80v692q0 56 -8.5 75.5t-36.5 23.5v14l192 45h15v-508q9 78 22 141.5t40.5 135t65 119.5t97.5 80t137 32q133 0 225.5 -91.5t110.5 -268.5q8 -78 19 -191.5t19 -189.5t11 -109zM791 1419q16 -17 10.5 -44.5t-39.5 -47.5q-188 -110 -305 -153l-13 18q111 106 250 229
q32 26 57 23t40 -25z" />
    <glyph glyph-name="Ncommaaccent" unicode="&#x145;" horiz-adv-x="1443" 
d="M1087 1434h275v-17q-51 -26 -90 -94.5t-39 -134.5v-1188h-31l-975 1247v-1001q0 -66 39.5 -136t91.5 -96v-14h-276v14q52 26 91.5 96t39.5 136v1020l-131 168h207l928 -1176v930q0 65 -39.5 134t-90.5 95v17zM721 -170q37 0 62.5 -25.5t25.5 -62.5q0 -121 -145 -240l-9 9
q103 90 125 167q-27 -24 -59 -24q-36 0 -62 26t-26 62q0 37 25.5 62.5t62.5 25.5z" />
    <glyph glyph-name="ncommaaccent" unicode="&#x146;" horiz-adv-x="1134" 
d="M1036 135q6 -53 19.5 -80t38.5 -41v-14h-254v14q24 13 31.5 40.5t2.5 80.5q-30 337 -47 520q-4 48 -15.5 93t-33.5 86.5t-51 70t-72 41t-94 2.5q-65 -13 -116 -68.5t-79.5 -127.5t-46.5 -161t-24 -158.5t-6 -129.5v-168q0 -53 11 -80t36 -41v-14h-254v14q24 14 34.5 41
t10.5 80v692q0 56 -8.5 75.5t-36.5 23.5v14l192 45h15v-508q9 78 22 141.5t40.5 135t65 119.5t97.5 80t137 32q133 0 225.5 -91.5t110.5 -268.5q8 -78 19 -191.5t19 -189.5t11 -109zM608 -170q37 0 62.5 -25.5t25.5 -62.5q0 -121 -145 -240l-8 9q103 90 125 167
q-27 -24 -60 -24q-36 0 -62 26t-26 62q0 37 25.5 62.5t62.5 25.5z" />
    <glyph glyph-name="Ncaron" unicode="&#x147;" horiz-adv-x="1443" 
d="M1087 1434h275v-17q-51 -26 -90 -94.5t-39 -134.5v-1188h-31l-975 1247v-1001q0 -66 39.5 -136t91.5 -96v-14h-276v14q52 26 91.5 96t39.5 136v1020l-131 168h207l928 -1176v930q0 65 -39.5 134t-90.5 95v17zM1004 1845l-263 -262l-262 262l10 10l252 -161l250 161z" />
    <glyph glyph-name="ncaron" unicode="&#x148;" horiz-adv-x="1134" 
d="M1036 135q6 -53 19.5 -80t38.5 -41v-14h-254v14q24 13 31.5 40.5t2.5 80.5q-30 337 -47 520q-4 48 -15.5 93t-33.5 86.5t-51 70t-72 41t-94 2.5q-65 -13 -116 -68.5t-79.5 -127.5t-46.5 -161t-24 -158.5t-6 -129.5v-168q0 -53 11 -80t36 -41v-14h-254v14q24 14 34.5 41
t10.5 80v692q0 56 -8.5 75.5t-36.5 23.5v14l192 45h15v-508q9 78 22 141.5t40.5 135t65 119.5t97.5 80t137 32q133 0 225.5 -91.5t110.5 -268.5q8 -78 19 -191.5t19 -189.5t11 -109zM870 1374l-262 -262l-262 262l10 10l252 -161l250 161z" />
    <glyph glyph-name="napostrophe" unicode="&#x149;" horiz-adv-x="1396" 
d="M1298 135q6 -53 19.5 -80t38.5 -41v-14h-254v14q24 13 32 41t3 80q-30 337 -47 520q-4 48 -16 93t-33.5 86.5t-51 70t-72.5 41t-94 2.5q-65 -13 -116 -68.5t-79.5 -127.5t-46.5 -161t-24 -158.5t-6 -129.5v-168q0 -53 11 -80t36 -41v-14h-254v14q24 14 34.5 41t10.5 80
v692q0 56 -8.5 75.5t-36.5 23.5v14l193 45h14v-508q9 78 22 141.5t40.5 135t65 119.5t97.5 80t137 32q133 0 225.5 -91.5t110.5 -268.5q8 -78 19 -191.5t19 -189.5t11 -109zM150 985q37 0 62.5 -25.5t25.5 -62.5q0 -120 -146 -240l-8 9q103 90 125 168q-29 -25 -59 -25
q-36 0 -62.5 26.5t-26.5 61.5q0 37 26 62.5t63 25.5z" />
    <glyph glyph-name="Eng" unicode="&#x14a;" horiz-adv-x="1441" 
d="M1085 1434h275v-17q-51 -26 -90 -94.5t-39 -134.5v-1188q0 -165 -73 -251.5t-218 -86.5q-88 0 -169 38.5t-116 106.5l158 148l12 -12q-10 -57 6.5 -116.5t58 -101t95.5 -42.5q101 -2 165 82.5t64 234.5h-14l-973 1247v-1001q0 -66 38.5 -136t90.5 -96v-14h-274v14
q51 26 90 96t39 136v1020l-129 168h205l927 -1176v930q0 66 -39 134.5t-90 94.5v17z" />
    <glyph glyph-name="eng" unicode="&#x14b;" horiz-adv-x="1101" 
d="M1055 -6q22 -197 -65 -306t-236 -104q-55 1 -101.5 18.5t-83.5 49.5t-65 65.5t-58 81.5l84 234h15q29 -207 85 -317.5t132 -110.5q33 0 58 13.5t40.5 34t25 53.5t13 62t3.5 70.5t-2 68t-5 64.5q-5 62 -19 204.5t-29.5 298.5t-17.5 181q-5 49 -17 93.5t-34 86t-51 70
t-72 41t-94 2.5q-65 -13 -115.5 -68.5t-79 -127.5t-46.5 -161.5t-23.5 -158t-5.5 -129.5v-168q0 -53 10.5 -80t34.5 -41v-14h-254v14q25 14 36 41t11 80v692q0 56 -8.5 75.5t-38.5 23.5v14l192 45h17v-508q8 77 21.5 141.5t40.5 135.5t64.5 119t98 80t137.5 32
q132 0 224 -91.5t110 -268.5q11 -95 33.5 -312.5t34.5 -318.5z" />
    <glyph glyph-name="Omacron" unicode="&#x14c;" horiz-adv-x="1609" 
d="M805 1454q150 0 287 -58t237 -156t159.5 -234t59.5 -285q0 -198 -100.5 -367t-271.5 -267.5t-371 -98.5q-150 0 -287.5 58.5t-237.5 156.5t-159.5 234t-59.5 284q0 149 59.5 285t159.5 234t237.5 156t287.5 58zM1014 37q125 38 212.5 126t127 203.5t40 251t-41.5 271.5
t-117 247.5t-174.5 184.5t-218 97.5t-246.5 -13.5q-125 -38 -212.5 -126t-127 -203.5t-40 -250.5t41.5 -270q42 -136 117 -248t174.5 -185.5t218 -98.5t246.5 14zM487 1683h635v-16h-635v16z" />
    <glyph glyph-name="omacron" unicode="&#x14d;" horiz-adv-x="1210" 
d="M637 985q138 0 253.5 -53.5t187 -159t71.5 -242.5q0 -96 -31.5 -182t-85.5 -151t-124.5 -112.5t-151 -72t-162.5 -24.5q-140 0 -255 52.5t-186 157.5t-71 244q0 122 48 226.5t127 172.5t177.5 106t202.5 38zM752 25q85 25 143.5 83t84 135.5t25 168t-27.5 184.5
q-57 193 -193.5 297t-304.5 55q-85 -25 -143.5 -83t-84 -135.5t-25 -168t27.5 -184.5q57 -194 193.5 -298t304.5 -54zM317 1212h635v-16h-635v16z" />
    <glyph glyph-name="Obreve" unicode="&#x14e;" horiz-adv-x="1609" 
d="M805 1454q150 0 287 -58t237 -156t159.5 -234t59.5 -285q0 -198 -100.5 -367t-271.5 -267.5t-371 -98.5q-150 0 -287.5 58.5t-237.5 156.5t-159.5 234t-59.5 284q0 149 59.5 285t159.5 234t237.5 156t287.5 58zM1014 37q125 38 212.5 126t127 203.5t40 251t-41.5 271.5
t-117 247.5t-174.5 184.5t-218 97.5t-246.5 -13.5q-125 -38 -212.5 -126t-127 -203.5t-40 -250.5t41.5 -270q42 -136 117 -248t174.5 -185.5t218 -98.5t246.5 14zM1028 1853h14q-9 -118 -71.5 -184.5t-167.5 -66.5q-104 0 -167 67t-71 184h15q24 -87 78.5 -123t144.5 -36
q91 0 145.5 36t79.5 123z" />
    <glyph glyph-name="obreve" unicode="&#x14f;" horiz-adv-x="1210" 
d="M637 985q138 0 253.5 -53.5t187 -159t71.5 -242.5q0 -96 -31.5 -182t-85.5 -151t-124.5 -112.5t-151 -72t-162.5 -24.5q-140 0 -255 52.5t-186 157.5t-71 244q0 122 48 226.5t127 172.5t177.5 106t202.5 38zM752 25q85 25 143.5 83t84 135.5t25 168t-27.5 184.5
q-57 193 -193.5 297t-304.5 55q-85 -25 -143.5 -83t-84 -135.5t-25 -168t27.5 -184.5q57 -194 193.5 -298t304.5 -54zM840 1382h14q-9 -118 -72 -185t-168 -67q-104 0 -166.5 67.5t-70.5 184.5h14q24 -87 78.5 -123t144.5 -36q91 0 146 36t80 123z" />
    <glyph glyph-name="Ohungarumlaut" unicode="&#x150;" horiz-adv-x="1609" 
d="M805 1454q150 0 287 -58t237 -156t159.5 -234t59.5 -285q0 -198 -100.5 -367t-271.5 -267.5t-371 -98.5q-150 0 -287.5 58.5t-237.5 156.5t-159.5 234t-59.5 284q0 149 59.5 285t159.5 234t237.5 156t287.5 58zM1014 37q125 38 212.5 126t127 203.5t40 251t-41.5 271.5
t-117 247.5t-174.5 184.5t-218 97.5t-246.5 -13.5q-125 -38 -212.5 -126t-127 -203.5t-40 -250.5t41.5 -270q42 -136 117 -248t174.5 -185.5t218 -98.5t246.5 14zM764 1905q16 22 34 30.5t33 5.5t29 -14q20 -17 20 -41.5t-28 -54.5q-156 -151 -260 -221l-17 14
q43 69 189 281zM1163 1927q21 -17 21.5 -41.5t-27.5 -54.5q-143 -138 -260 -221l-16 14q51 82 188 281q16 22 34 30.5t33 5.5t27 -14z" />
    <glyph glyph-name="ohungarumlaut" unicode="&#x151;" horiz-adv-x="1210" 
d="M637 985q138 0 253.5 -53.5t187 -159t71.5 -242.5q0 -96 -31.5 -182t-85.5 -151t-124.5 -112.5t-151 -72t-162.5 -24.5q-140 0 -255 52.5t-186 157.5t-71 244q0 122 48 226.5t127 172.5t177.5 106t202.5 38zM752 25q85 25 143.5 83t84 135.5t25 168t-27.5 184.5
q-57 193 -193.5 297t-304.5 55q-85 -25 -143.5 -83t-84 -135.5t-25 -168t27.5 -184.5q57 -194 193.5 -298t304.5 -54zM594 1434q16 22 34 30.5t33 5.5t29 -14q20 -17 20 -41.5t-28 -54.5q-156 -151 -260 -221l-16 14q51 82 188 281zM993 1456q21 -17 21.5 -41.5t-27.5 -54.5
q-143 -138 -260 -221l-16 14q51 82 188 281q16 22 34 30.5t33 5.5t27 -14z" />
    <glyph glyph-name="OE" unicode="&#x152;" horiz-adv-x="2287" 
d="M2214 256l12 -8l-45 -248h-831v14q24 14 34.5 41t10.5 80v144q-105 -135 -260 -213t-330 -78q-150 0 -287.5 58.5t-237.5 156.5t-159.5 234t-59.5 284q0 149 59.5 285t159.5 234t237.5 156t287.5 58q175 0 330 -78t260 -213v135q0 52 -10.5 78.5t-34.5 40.5v17h766
l43 -228l-11 -6q-41 46 -79.5 79t-93.5 67.5t-125 52.5t-150 18h-144v-604l517 45v-104l-517 45v-785h164q159 0 286.5 69t207.5 173zM1014 37q125 38 212.5 126t127 203.5t40 251t-41.5 271.5t-117 247.5t-174.5 184.5t-218 97.5t-246.5 -13.5q-125 -38 -212.5 -126
t-127 -203.5t-40 -250.5t41.5 -270q42 -136 117 -248t174.5 -185.5t218 -98.5t246.5 14z" />
    <glyph glyph-name="oe" unicode="&#x153;" horiz-adv-x="2064" 
d="M1796 662q95 -25 155.5 -114t49.5 -222q-5 -58 -32.5 -114.5t-77.5 -107.5t-133.5 -82.5t-188.5 -31.5q-166 0 -301.5 62.5t-204.5 187.5q-77 -117 -204 -184.5t-265 -67.5q-139 0 -254 52.5t-186.5 157.5t-71.5 244q0 122 48.5 226.5t127.5 172.5t178 106t203 38
q146 0 267 -61t186 -170q76 108 201 166t251 65q69 3 139 -13t136 -52t112 -102.5t56 -155.5h-148h-43zM1450 961q-99 -18 -166.5 -95t-97.5 -188h651q-21 139 -131 225t-256 58zM752 25q85 25 143.5 83t84.5 135.5t26 168t-27 184.5q-57 194 -193.5 298t-304.5 54
q-85 -25 -143.5 -83t-84.5 -135.5t-26 -168t27 -184.5q57 -193 193.5 -297t304.5 -55zM1982 322q18 152 -64.5 246t-205.5 94h-530q-43 -174 12 -328q111 -314 440 -301q132 6 233.5 88.5t114.5 200.5z" />
    <glyph glyph-name="Racute" unicode="&#x154;" horiz-adv-x="1196" 
d="M909 367q83 -146 140.5 -218.5t126.5 -134.5v-14h-316v14q13 13 19.5 27.5t3.5 35.5t-7.5 37.5t-20 48.5t-27.5 54t-37 66l-220 383q-62 -4 -92 -4h-190v-527q0 -53 10.5 -80t34.5 -41v-14h-252v14q24 14 34.5 41t10.5 80v1161q0 54 -10.5 80.5t-34.5 40.5v17h397
q122 0 228.5 -23.5t191.5 -69t134.5 -121.5t49.5 -173q0 -139 -97.5 -229.5t-260.5 -127.5zM479 678q111 0 194 24t129.5 60t74.5 88t36.5 97.5t8.5 99.5q0 55 -8.5 100.5t-36 98t-74 88t-129.5 59.5t-195 24h-190v-739h190zM791 1890q16 -17 10.5 -44.5t-39.5 -47.5
q-188 -110 -305 -153l-13 18q111 106 250 229q32 26 57 23t40 -25z" />
    <glyph glyph-name="racute" unicode="&#x155;" horiz-adv-x="829" 
d="M586 985q80 0 134 -28.5t109 -92.5l-124 -176l-15 8q-2 63 -21 121.5t-59 98.5t-92 32q-48 -7 -86.5 -52t-62 -114.5t-40 -145.5t-24.5 -161.5t-11 -146t-3 -113.5v-80q0 -53 10.5 -80t34.5 -41v-14h-254v14q25 14 36 41t11 80v692q0 56 -8.5 75.5t-38.5 23.5v14l192 45
h17v-549q44 549 295 549zM618 1419q16 -17 11 -44.5t-39 -47.5q-188 -110 -305 -153l-13 18q111 106 250 229q32 26 56.5 23t39.5 -25z" />
    <glyph glyph-name="Rcommaaccent" unicode="&#x156;" horiz-adv-x="1196" 
d="M909 367q83 -146 140.5 -218.5t126.5 -134.5v-14h-316v14q13 13 19.5 27.5t3.5 35.5t-7.5 37.5t-20 48.5t-27.5 54t-37 66l-220 383q-62 -4 -92 -4h-190v-527q0 -53 10.5 -80t34.5 -41v-14h-252v14q24 14 34.5 41t10.5 80v1161q0 54 -10.5 80.5t-34.5 40.5v17h397
q122 0 228.5 -23.5t191.5 -69t134.5 -121.5t49.5 -173q0 -139 -97.5 -229.5t-260.5 -127.5zM479 678q111 0 194 24t129.5 60t74.5 88t36.5 97.5t8.5 99.5q0 55 -8.5 100.5t-36 98t-74 88t-129.5 59.5t-195 24h-190v-739h190zM608 -170q37 0 62.5 -25.5t25.5 -62.5
q0 -121 -145 -240l-8 9q103 90 125 167q-27 -24 -60 -24q-36 0 -62 26t-26 62q0 37 25.5 62.5t62.5 25.5z" />
    <glyph glyph-name="rcommaaccent" unicode="&#x157;" horiz-adv-x="829" 
d="M586 985q80 0 134 -28.5t109 -92.5l-124 -176l-15 8q-2 63 -21 121.5t-59 98.5t-92 32q-48 -7 -86.5 -52t-62 -114.5t-40 -145.5t-24.5 -161.5t-11 -146t-3 -113.5v-80q0 -53 10.5 -80t34.5 -41v-14h-254v14q25 14 36 41t11 80v692q0 56 -8.5 75.5t-38.5 23.5v14l192 45
h17v-549q44 549 295 549zM209 -170q37 0 62.5 -25.5t25.5 -62.5q0 -121 -145 -240l-9 9q103 90 125 167q-27 -24 -59 -24q-36 0 -62 26t-26 62q0 37 25.5 62.5t62.5 25.5z" />
    <glyph glyph-name="Rcaron" unicode="&#x158;" horiz-adv-x="1196" 
d="M909 367q83 -146 140.5 -218.5t126.5 -134.5v-14h-316v14q13 13 19.5 27.5t3.5 35.5t-7.5 37.5t-20 48.5t-27.5 54t-37 66l-220 383q-62 -4 -92 -4h-190v-527q0 -53 10.5 -80t34.5 -41v-14h-252v14q24 14 34.5 41t10.5 80v1161q0 54 -10.5 80.5t-34.5 40.5v17h397
q122 0 228.5 -23.5t191.5 -69t134.5 -121.5t49.5 -173q0 -139 -97.5 -229.5t-260.5 -127.5zM479 678q111 0 194 24t129.5 60t74.5 88t36.5 97.5t8.5 99.5q0 55 -8.5 100.5t-36 98t-74 88t-129.5 59.5t-195 24h-190v-739h190zM809 1845l-262 -262l-262 262l10 10l252 -161
l250 161z" />
    <glyph glyph-name="rcaron" unicode="&#x159;" horiz-adv-x="829" 
d="M586 985q80 0 134 -28.5t109 -92.5l-124 -176l-15 8q-2 63 -21 121.5t-59 98.5t-92 32q-48 -7 -86.5 -52t-62 -114.5t-40 -145.5t-24.5 -161.5t-11 -146t-3 -113.5v-80q0 -53 10.5 -80t34.5 -41v-14h-254v14q25 14 36 41t11 80v692q0 56 -8.5 75.5t-38.5 23.5v14l192 45
h17v-549q44 549 295 549zM717 1374l-262 -262l-262 262l10 10l252 -161l250 161z" />
    <glyph glyph-name="Sacute" unicode="&#x15a;" horiz-adv-x="1187" 
d="M672 1454q109 0 227 -55t223 -137l-61 -213h-14q-161 378 -429 378q-145 0 -233 -69.5t-98 -167.5q-6 -65 18.5 -117.5t71.5 -88.5t110 -66t134 -56.5t142.5 -54t136.5 -64t115.5 -81.5t80.5 -111t30 -148q0 -182 -145 -298.5t-365 -116.5q-170 0 -295.5 50t-259.5 152
l62 234h14q41 -82 95 -150.5t124 -124.5t158.5 -88t185.5 -32q129 0 226.5 71.5t109.5 169.5q8 70 -14.5 125.5t-68.5 94t-108 70t-132.5 59t-141.5 56t-136 65t-115.5 81.5t-80.5 111.5t-30 148.5q0 52 16 103t52.5 100t88.5 86.5t131.5 60.5t174.5 23zM817 1890
q16 -17 10.5 -44.5t-39.5 -47.5q-188 -110 -305 -153l-12 18q111 106 250 229q32 26 56.5 23t39.5 -25z" />
    <glyph glyph-name="sacute" unicode="&#x15b;" horiz-adv-x="937" 
d="M498 985q74 0 166.5 -39.5t160.5 -91.5l-41 -188h-10q-47 131 -135 216t-176 85q-99 0 -159 -47t-68 -115q-6 -55 27 -97.5t90.5 -70.5t128.5 -52t141.5 -51t128.5 -59.5t92.5 -84.5t29.5 -120q-9 -124 -116.5 -203t-276.5 -79q-214 0 -399 137l43 205h10
q28 -56 68.5 -109.5t92 -100.5t116 -75.5t129.5 -28.5q108 0 184.5 48t85.5 116q6 43 -13 76t-56 55.5t-87 41t-105.5 35.5t-111 36t-105 45.5t-85.5 60.5t-54 85.5t-10 115.5q31 254 314 254zM702 1419q16 -17 11 -44.5t-39 -47.5q-188 -110 -305 -153l-13 18
q111 106 250 229q32 26 56.5 23t39.5 -25z" />
    <glyph glyph-name="Scircumflex" unicode="&#x15c;" horiz-adv-x="1187" 
d="M672 1454q109 0 227 -55t223 -137l-61 -213h-14q-161 378 -429 378q-145 0 -233 -69.5t-98 -167.5q-6 -65 18.5 -117.5t71.5 -88.5t110 -66t134 -56.5t142.5 -54t136.5 -64t115.5 -81.5t80.5 -111t30 -148q0 -182 -145 -298.5t-365 -116.5q-170 0 -295.5 50t-259.5 152
l62 234h14q41 -82 95 -150.5t124 -124.5t158.5 -88t185.5 -32q129 0 226.5 71.5t109.5 169.5q8 70 -14.5 125.5t-68.5 94t-108 70t-132.5 59t-141.5 56t-136 65t-115.5 81.5t-80.5 111.5t-30 148.5q0 52 16 103t52.5 100t88.5 86.5t131.5 60.5t174.5 23zM635 1855l262 -262
l-10 -10l-252 162l-250 -162l-12 10z" />
    <glyph glyph-name="scircumflex" unicode="&#x15d;" horiz-adv-x="937" 
d="M498 985q74 0 166.5 -39.5t160.5 -91.5l-41 -188h-10q-47 131 -135 216t-176 85q-99 0 -159 -47t-68 -115q-6 -55 27 -97.5t90.5 -70.5t128.5 -52t141.5 -51t128.5 -59.5t92.5 -84.5t29.5 -120q-9 -124 -116.5 -203t-276.5 -79q-214 0 -399 137l43 205h10
q28 -56 68.5 -109.5t92 -100.5t116 -75.5t129.5 -28.5q108 0 184.5 48t85.5 116q6 43 -13 76t-56 55.5t-87 41t-105.5 35.5t-111 36t-105 45.5t-85.5 60.5t-54 85.5t-10 115.5q31 254 314 254zM500 1384l262 -262l-10 -10l-252 162l-250 -162l-12 10z" />
    <glyph glyph-name="Scedilla" unicode="&#x15e;" horiz-adv-x="1187" 
d="M1126 403q0 -180 -143.5 -296.5t-361.5 -118.5l-46 -115q48 24 95.5 21t84.5 -21.5t58.5 -56t17.5 -82.5q-6 -57 -62 -99.5t-132 -42.5q-92 0 -162 66l8 12q66 -63 152 -63q55 0 84.5 35.5t36.5 87.5q13 88 -40 127t-155 0l-2 4l49 129q-168 0 -290.5 49.5t-256.5 150.5
l62 236h14q41 -82 95 -151.5t124 -125.5t159 -88t187 -32q129 0 225.5 71.5t108.5 169.5q8 70 -14.5 125.5t-68.5 94t-108 70t-132.5 59t-141.5 56t-136 65t-115.5 81.5t-80.5 111.5t-30 148.5q0 52 16 103t52.5 100t88.5 86.5t131.5 60.5t174.5 23q109 0 227 -55t223 -137
l-61 -213h-14q-161 378 -429 378q-145 0 -233 -69.5t-98 -167.5q-6 -65 18.5 -117.5t71.5 -88.5t110 -66t134 -56t142.5 -53.5t136.5 -64t115.5 -81.5t80.5 -111.5t30 -148.5z" />
    <glyph glyph-name="scedilla" unicode="&#x15f;" horiz-adv-x="937" 
d="M236 805q-5 -43 15 -78.5t56.5 -60.5t86 -46t104.5 -40t110 -38.5t104.5 -45t87 -55.5t58 -74t16.5 -97q-9 -124 -116.5 -203t-276.5 -79q-1 0 -4.5 1t-5.5 1l-45 -117q67 26 126.5 18t98 -52t31.5 -105q-6 -57 -61.5 -99.5t-131.5 -42.5q-91 0 -161 66l8 12
q66 -63 151 -63q55 0 84.5 35.5t36.5 87.5q13 89 -39.5 127.5t-154.5 -0.5l-2 4l49 129q-208 5 -379 137l43 203h10q28 -56 68.5 -109.5t92 -100.5t116 -75.5t129.5 -28.5q107 0 184 48.5t86 115.5q6 43 -13 76t-56 55.5t-87 41t-105.5 36t-111 36t-105 45.5t-85.5 61
t-54 86t-10 116q31 252 314 252q74 0 166.5 -39.5t162.5 -91.5l-43 -188h-10q-47 131 -135 216t-176 85q-99 0 -159 -47t-68 -115z" />
    <glyph glyph-name="Scaron" unicode="&#x160;" horiz-adv-x="1187" 
d="M672 1454q109 0 227 -55t223 -137l-61 -213h-14q-161 378 -429 378q-145 0 -233 -69.5t-98 -167.5q-6 -65 18.5 -117.5t71.5 -88.5t110 -66t134 -56.5t142.5 -54t136.5 -64t115.5 -81.5t80.5 -111t30 -148q0 -182 -145 -298.5t-365 -116.5q-170 0 -295.5 50t-259.5 152
l62 234h14q41 -82 95 -150.5t124 -124.5t158.5 -88t185.5 -32q129 0 226.5 71.5t109.5 169.5q8 70 -14.5 125.5t-68.5 94t-108 70t-132.5 59t-141.5 56t-136 65t-115.5 81.5t-80.5 111.5t-30 148.5q0 52 16 103t52.5 100t88.5 86.5t131.5 60.5t174.5 23zM877 1845l-263 -262
l-262 262l10 10l252 -161l250 161z" />
    <glyph glyph-name="scaron" unicode="&#x161;" horiz-adv-x="937" 
d="M498 985q74 0 166.5 -39.5t160.5 -91.5l-41 -188h-10q-47 131 -135 216t-176 85q-99 0 -159 -47t-68 -115q-6 -55 27 -97.5t90.5 -70.5t128.5 -52t141.5 -51t128.5 -59.5t92.5 -84.5t29.5 -120q-9 -124 -116.5 -203t-276.5 -79q-214 0 -399 137l43 205h10
q28 -56 68.5 -109.5t92 -100.5t116 -75.5t129.5 -28.5q108 0 184.5 48t85.5 116q6 43 -13 76t-56 55.5t-87 41t-105.5 35.5t-111 36t-105 45.5t-85.5 60.5t-54 85.5t-10 115.5q31 254 314 254zM762 1374l-262 -262l-262 262l10 10l252 -161l250 161z" />
    <glyph glyph-name="Tcommaaccent" unicode="&#x162;" horiz-adv-x="1253" 
d="M1147 1434l65 -250l-12 -6q-44 50 -79 83t-92 73.5t-126.5 61.5t-150.5 21h-45v-1282q0 -94 47 -121v-14h-254v14q47 27 47 121v1282h-45q-65 0 -125.5 -16t-103.5 -37.5t-88 -57.5t-71 -62.5t-61 -65.5l-12 6l65 250h1041zM627 -170q37 0 62.5 -25.5t25.5 -62.5
q0 -120 -146 -240l-8 9q103 90 125 167q-27 -24 -59 -24q-36 0 -62 26t-26 62q0 37 25.5 62.5t62.5 25.5z" />
    <glyph glyph-name="tcommaaccent" unicode="&#x163;" horiz-adv-x="776" 
d="M807 362l10 -4q-13 -62 -30 -113t-45 -100t-63.5 -82.5t-87 -54t-114.5 -20.5q-140 0 -217.5 91t-77.5 269v621h-121v16q189 0 189 281h162q0 -112 -89.5 -194t-189.5 -87h453v-16h-242v-652q0 -71 10.5 -124.5t35 -96t69.5 -61t108 -10.5q166 22 240 337zM500 -170
q37 0 62.5 -25.5t25.5 -62.5q0 -120 -146 -240l-8 9q103 90 125 167q-27 -24 -59 -24q-36 0 -62 26t-26 62q0 37 25.5 62.5t62.5 25.5z" />
    <glyph glyph-name="Tcaron" unicode="&#x164;" horiz-adv-x="1253" 
d="M1147 1434l65 -250l-12 -6q-44 50 -79 83t-92 73.5t-126.5 61.5t-150.5 21h-45v-1282q0 -94 47 -121v-14h-254v14q47 27 47 121v1282h-45q-65 0 -125.5 -16t-103.5 -37.5t-88 -57.5t-71 -62.5t-61 -65.5l-12 6l65 250h1041zM889 1845l-262 -262l-262 262l10 10l252 -161
l250 161z" />
    <glyph glyph-name="tcaron" unicode="&#x165;" horiz-adv-x="776" 
d="M807 362l10 -4q-13 -62 -30 -113t-45 -100t-63.5 -82.5t-87 -54t-114.5 -20.5q-140 0 -217.5 91t-77.5 269v621h-121v16q189 0 189 281h162q0 -112 -89.5 -194t-189.5 -87h453v-16h-242v-652q0 -71 10.5 -124.5t35 -96t69.5 -61t108 -10.5q166 22 240 337zM592 1477
q44 0 77 -33.5t33 -79.5q0 -154 -184 -301l-10 10q64 56 102 105t56 106q-34 -31 -74 -31q-46 0 -79.5 33.5t-33.5 77.5q0 46 33.5 79.5t79.5 33.5z" />
    <glyph glyph-name="Tbar" unicode="&#x166;" horiz-adv-x="1253" 
d="M1147 1434l65 -250l-12 -6q-43 50 -79 84t-92 73.5t-126 60.5t-151 21h-45v-577h313v-15h-313v-690q0 -94 47 -121v-14h-254v14q25 14 36 41t11 80v690h-314v15h314v577h-45q-81 0 -151 -21t-126.5 -60.5t-92.5 -73.5t-79 -84l-12 6l65 250h1041z" />
    <glyph glyph-name="tbar" unicode="&#x167;" horiz-adv-x="776" 
d="M805 362l12 -4q-16 -79 -40 -140.5t-63.5 -116t-100 -84t-138.5 -29.5q-138 0 -215.5 91t-77.5 269v367h-121v14h121v240h-121v16q187 0 187 281h162q0 -112 -89 -194t-188 -87h451v-16h-240v-240h174v-14h-174v-396q0 -71 10.5 -125.5t35 -97t69.5 -61t108 -10.5
q168 23 238 337z" />
    <glyph glyph-name="Utilde" unicode="&#x168;" horiz-adv-x="1349" 
d="M1014 1434h254v-17q-45 -24 -65.5 -88t-20.5 -141v-707q0 -215 -138 -354t-354 -139q-117 0 -217 33t-177.5 97.5t-122 170t-44.5 241.5v766q0 54 -11 80.5t-36 40.5v17h254v-17q-24 -14 -34.5 -40.5t-10.5 -80.5v-766q0 -256 125 -396.5t346 -121.5q92 7 169.5 49.5
t128 107t79 145.5t28.5 167v684q0 92 -41 167t-112 85v17zM1032 1774l17 -5q-60 -182 -177 -182q-68 0 -182.5 42.5t-152.5 41.5q-41 0 -60.5 -19.5t-38.5 -76.5l-16 6q29 88 70.5 130t111.5 42q64 0 169.5 -41t162.5 -39q34 0 56 21t40 80z" />
    <glyph glyph-name="utilde" unicode="&#x169;" horiz-adv-x="1097" 
d="M1036 14v-14h-209v498q-9 -79 -22 -143t-40.5 -135.5t-65 -119.5t-97.5 -80t-137 -32q-148 0 -243 93t-95 267v479q0 56 -8.5 75.5t-36.5 23.5v14l192 45h15v-668q0 -91 29.5 -162t91.5 -108.5t147 -21.5q65 13 115.5 68.5t79 127.5t46.5 161.5t23.5 158t5.5 129.5v157
q0 56 -8.5 75.5t-36.5 23.5v14l193 45h14v-850q0 -53 11 -80t36 -41zM877 1303l16 -5q-28 -85 -69.5 -133.5t-106.5 -48.5q-68 0 -183 42.5t-153 41.5q-40 0 -59.5 -19.5t-38.5 -76.5l-17 6q29 88 71 130t112 42q64 0 169 -41t162 -39q35 0 57 21.5t40 79.5z" />
    <glyph glyph-name="Umacron" unicode="&#x16a;" horiz-adv-x="1349" 
d="M1014 1434h254v-17q-45 -24 -65.5 -88t-20.5 -141v-707q0 -215 -138 -354t-354 -139q-117 0 -217 33t-177.5 97.5t-122 170t-44.5 241.5v766q0 54 -11 80.5t-36 40.5v17h254v-17q-24 -14 -34.5 -40.5t-10.5 -80.5v-766q0 -256 125 -396.5t346 -121.5q92 7 169.5 49.5
t128 107t79 145.5t28.5 167v684q0 92 -41 167t-112 85v17zM397 1683h635v-16h-635v16z" />
    <glyph glyph-name="umacron" unicode="&#x16b;" horiz-adv-x="1097" 
d="M1036 14v-14h-209v498q-9 -79 -22 -143t-40.5 -135.5t-65 -119.5t-97.5 -80t-137 -32q-148 0 -243 93t-95 267v479q0 56 -8.5 75.5t-36.5 23.5v14l192 45h15v-668q0 -91 29.5 -162t91.5 -108.5t147 -21.5q65 13 115.5 68.5t79 127.5t46.5 161.5t23.5 158t5.5 129.5v157
q0 56 -8.5 75.5t-36.5 23.5v14l193 45h14v-850q0 -53 11 -80t36 -41zM262 1212h635v-16h-635v16z" />
    <glyph glyph-name="Ubreve" unicode="&#x16c;" horiz-adv-x="1349" 
d="M1014 1434h254v-17q-45 -24 -65.5 -88t-20.5 -141v-707q0 -215 -138 -354t-354 -139q-117 0 -217 33t-177.5 97.5t-122 170t-44.5 241.5v766q0 54 -11 80.5t-36 40.5v17h254v-17q-24 -14 -34.5 -40.5t-10.5 -80.5v-766q0 -256 125 -396.5t346 -121.5q92 7 169.5 49.5
t128 107t79 145.5t28.5 167v684q0 92 -41 167t-112 85v17zM899 1853h14q-9 -118 -71.5 -184.5t-167.5 -66.5q-104 0 -167 67t-71 184h15q24 -87 78.5 -123t144.5 -36q91 0 145.5 36t79.5 123z" />
    <glyph glyph-name="ubreve" unicode="&#x16d;" horiz-adv-x="1097" 
d="M1036 14v-14h-209v498q-9 -79 -22 -143t-40.5 -135.5t-65 -119.5t-97.5 -80t-137 -32q-148 0 -243 93t-95 267v479q0 56 -8.5 75.5t-36.5 23.5v14l192 45h15v-668q0 -91 29.5 -162t91.5 -108.5t147 -21.5q65 13 115.5 68.5t79 127.5t46.5 161.5t23.5 158t5.5 129.5v157
q0 56 -8.5 75.5t-36.5 23.5v14l193 45h14v-850q0 -53 11 -80t36 -41zM803 1382h14q-9 -118 -71.5 -185t-167.5 -67q-104 0 -167 67.5t-71 184.5h14q24 -87 79 -123t145 -36q91 0 145.5 36t79.5 123z" />
    <glyph glyph-name="Uring" unicode="&#x16e;" horiz-adv-x="1349" 
d="M1014 1434h254v-17q-45 -24 -65.5 -88t-20.5 -141v-707q0 -215 -138 -354t-354 -139q-117 0 -217 33t-177.5 97.5t-122 170t-44.5 241.5v766q0 54 -11 80.5t-36 40.5v17h254v-17q-24 -14 -34.5 -40.5t-10.5 -80.5v-766q0 -256 125 -396.5t346 -121.5q92 7 169.5 49.5
t128 107t79 145.5t28.5 167v684q0 92 -41 167t-112 85v17zM696 1552q-70 0 -119 48.5t-49 117.5q0 70 49 119t119 49q69 0 117.5 -49t48.5 -119q0 -69 -48.5 -117.5t-117.5 -48.5zM696 1870q-63 0 -107 -44.5t-44 -107.5q0 -62 44 -105.5t107 -43.5q62 0 106 44t44 105
q0 63 -44 107.5t-106 44.5z" />
    <glyph glyph-name="uring" unicode="&#x16f;" horiz-adv-x="1097" 
d="M1036 14v-14h-209v498q-9 -79 -22 -143t-40.5 -135.5t-65 -119.5t-97.5 -80t-137 -32q-148 0 -243 93t-95 267v479q0 56 -8.5 75.5t-36.5 23.5v14l192 45h15v-668q0 -91 29.5 -162t91.5 -108.5t147 -21.5q65 13 115.5 68.5t79 127.5t46.5 161.5t23.5 158t5.5 129.5v157
q0 56 -8.5 75.5t-36.5 23.5v14l193 45h14v-850q0 -53 11 -80t36 -41zM580 1081q-70 0 -119 48.5t-49 117.5q0 71 49 119.5t119 48.5q69 0 117 -49t48 -119q0 -69 -48 -117.5t-117 -48.5zM580 1399q-63 0 -107.5 -44.5t-44.5 -107.5q0 -62 44.5 -105.5t107.5 -43.5
q62 0 105.5 44t43.5 105q0 63 -43.5 107.5t-105.5 44.5z" />
    <glyph glyph-name="Uhungarumlaut" unicode="&#x170;" horiz-adv-x="1349" 
d="M1014 1434h254v-17q-45 -24 -65.5 -88t-20.5 -141v-707q0 -215 -138 -354t-354 -139q-117 0 -217 33t-177.5 97.5t-122 170t-44.5 241.5v766q0 54 -11 80.5t-36 40.5v17h254v-17q-24 -14 -34.5 -40.5t-10.5 -80.5v-766q0 -256 125 -396.5t346 -121.5q92 7 169.5 49.5
t128 107t79 145.5t28.5 167v684q0 92 -41 167t-112 85v17zM653 1905q16 22 34.5 30.5t33.5 5.5t29 -14q20 -17 20 -43.5t-29 -52.5q-156 -151 -260 -221l-16 14q51 82 188 281zM1053 1927q21 -17 21.5 -41.5t-27.5 -54.5q-140 -135 -261 -221l-16 14q51 82 188 281
q16 22 34.5 30.5t33.5 5.5t27 -14z" />
    <glyph glyph-name="uhungarumlaut" unicode="&#x171;" horiz-adv-x="1097" 
d="M1036 14v-14h-209v498q-9 -79 -22 -143t-40.5 -135.5t-65 -119.5t-97.5 -80t-137 -32q-148 0 -243 93t-95 267v479q0 56 -8.5 75.5t-36.5 23.5v14l192 45h15v-668q0 -91 29.5 -162t91.5 -108.5t147 -21.5q65 13 115.5 68.5t79 127.5t46.5 161.5t23.5 158t5.5 129.5v157
q0 56 -8.5 75.5t-36.5 23.5v14l193 45h14v-850q0 -53 11 -80t36 -41zM518 1434q16 22 34 30.5t33 5.5t29 -14q20 -17 20 -41.5t-28 -54.5q-156 -151 -260 -221l-16 14q51 82 188 281zM918 1456q21 -17 21.5 -42t-28.5 -54q-143 -138 -260 -221l-16 14q51 82 188 281
q16 22 34.5 30.5t33.5 5.5t27 -14z" />
    <glyph glyph-name="Uogonek" unicode="&#x172;" horiz-adv-x="1349" 
d="M1014 1434h254v-17q-45 -24 -65.5 -88t-20.5 -141v-705q0 -177 -96 -305.5t-257 -171.5q-49 -21 -85.5 -60t-53.5 -82.5t-14.5 -89.5t26.5 -81q26 -38 70.5 -50t93.5 3q35 12 78 59l8 -12q-38 -47 -82 -70q-72 -34 -138.5 -21t-98.5 60q-46 72 2 175.5t147 158.5
q-58 -8 -92 -8q-118 0 -218 33t-178 97.5t-122.5 170t-44.5 241.5v768q0 52 -10.5 78.5t-34.5 40.5v17h254v-17q-25 -14 -36 -40t-11 -79v-768q0 -256 125 -396.5t346 -121.5q92 7 169 49.5t128 107t79.5 146t28.5 168.5v682q0 93 -40 167.5t-111 84.5v17z" />
    <glyph glyph-name="uogonek" unicode="&#x173;" horiz-adv-x="1097" 
d="M1087 -295l9 -12q-48 -53 -82 -70q-72 -34 -139 -21t-99 60q-48 73 2.5 177.5t153.5 160.5h-103v498q-9 -79 -22 -143t-40.5 -135.5t-65 -119.5t-97.5 -80t-137 -32q-150 0 -244 92.5t-94 267.5v479q0 55 -9 75t-38 24v16l192 43h15v-666q0 -92 29.5 -163.5t91.5 -109
t147 -21.5q65 13 116 68.5t79.5 127.5t46.5 161t24 158.5t6 129.5v157q0 56 -8.5 75.5t-38.5 23.5v16l195 43h14v-850q0 -53 10.5 -80t34.5 -41v-14h-78q-92 -47 -126.5 -143.5t12.5 -163.5q27 -38 72 -50.5t92 3.5q36 12 79 59z" />
    <glyph glyph-name="Wcircumflex" unicode="&#x174;" horiz-adv-x="2078" 
d="M2058 1417q-69 -72 -116 -154.5t-95 -222.5l-291 -862l70 -178h-162l-401 1040q-17 38 -25 56l-309 -918l68 -178h-160l-401 1040q-60 144 -106.5 223t-109.5 154v17h316v-17q-26 -26 -30.5 -63t7.5 -83.5t43 -127.5l365 -942l285 839q12 40 24 78q-47 105 -87.5 170
t-94.5 129v17h315v-17q-26 -26 -30 -63t8 -83t43 -128l364 -942l285 839q50 137 48 223.5t-66 153.5v17h243v-17zM1038 1855l262 -262l-10 -10l-252 162l-250 -162l-12 10z" />
    <glyph glyph-name="wcircumflex" unicode="&#x175;" horiz-adv-x="1558" 
d="M1296 985h242v-16q-62 -59 -109 -132.5t-96 -189.5l-182 -477l66 -170h-162q-252 659 -262 686l-168 -541l61 -145h-162l-254 598q-70 165 -114 239t-115 132v16h315v-16q-26 -27 -30 -60t6 -66t37 -100l245 -577l170 541q-41 102 -76 158.5t-92 103.5v16h316v-16
q-15 -16 -24 -31t-9.5 -37.5t-0.5 -37t11 -50t17.5 -54t25.5 -69.5l193 -500l151 402q40 102 54 167.5t2.5 119.5t-56.5 90v16zM788 1384l263 -262l-11 -10l-252 162l-249 -162l-13 10z" />
    <glyph glyph-name="Ycircumflex" unicode="&#x176;" horiz-adv-x="1273" 
d="M1012 1434h241v-17q-55 -47 -84 -77.5t-68.5 -95t-90.5 -171.5l-262 -563v-375q0 -53 11 -80t36 -41v-14h-254v14q24 14 34.5 41t10.5 80v352q-344 646 -387 730q-50 92 -179 200v17h359v-17q-84 -84 24 -284l328 -617l279 592q43 96 55 153t-1 90.5t-52 65.5v17z
M678 1855l262 -262l-10 -10l-252 162l-250 -162l-12 10z" />
    <glyph glyph-name="ycircumflex" unicode="&#x177;" horiz-adv-x="1062" 
d="M1042 969q-71 -72 -126 -158.5t-109 -220.5q-164 -408 -238 -590q-24 -60 -47 -106.5t-53.5 -91.5t-63 -74.5t-74.5 -47.5t-89 -18q-163 0 -242 145l160 146l12 -10q-10 -43 -6.5 -90.5t14 -87t39 -63t68.5 -19.5q131 15 258 299l-262 616q-70 163 -114.5 238t-113.5 133
v16h314v-16q-25 -27 -29.5 -59.5t5.5 -67t36 -99.5l244 -569l168 418q41 102 57 166.5t6 119t-55 91.5v16h241v-16zM602 1384l262 -262l-10 -10l-252 162l-250 -162l-12 10z" />
    <glyph glyph-name="Ydieresis" unicode="&#x178;" horiz-adv-x="1273" 
d="M1012 1434h241v-17q-55 -47 -84 -77.5t-68.5 -95t-90.5 -171.5l-262 -563v-375q0 -53 11 -80t36 -41v-14h-254v14q24 14 34.5 41t10.5 80v352q-344 646 -387 730q-50 92 -179 200v17h359v-17q-84 -84 24 -284l328 -617l279 592q43 96 55 153t-1 90.5t-52 65.5v17z
M498 1765q38 0 64 -26.5t26 -63.5t-26 -63.5t-64 -26.5q-37 0 -62.5 26.5t-25.5 63.5t25.5 63.5t62.5 26.5zM856 1765q37 0 63.5 -26.5t26.5 -63.5t-26.5 -63.5t-63.5 -26.5t-63.5 26.5t-26.5 63.5t26.5 63.5t63.5 26.5z" />
    <glyph glyph-name="Zacute" unicode="&#x179;" 
d="M1069 256l12 -8l-45 -248h-846h-170l838 1417h-319q-80 0 -149.5 -21t-126.5 -61.5t-92 -73t-81 -83.5l-10 6l65 250h893l-839 -1420h379q157 0 284 69t207 173zM795 1890q16 -17 10.5 -44.5t-39.5 -47.5q-188 -110 -305 -153l-12 18q126 120 249 229q32 26 57 23t40 -25
z" />
    <glyph glyph-name="zacute" unicode="&#x17a;" horiz-adv-x="964" 
d="M911 256l13 -8l-45 -248h-818l656 971h-187q-66 0 -123.5 -13.5t-97.5 -32t-81.5 -51.5t-65.5 -57.5t-58 -64.5l-12 8l68 225h737l-655 -971h243q58 0 107 9t89.5 28t69.5 37t61 51t50 54.5t49 62.5zM737 1419q16 -17 11 -44.5t-39 -47.5q-186 -109 -306 -153l-12 18
q111 106 250 229q32 26 56.5 23t39.5 -25z" />
    <glyph glyph-name="Zdotaccent" unicode="&#x17b;" 
d="M1069 256l12 -8l-45 -248h-846h-170l838 1417h-319q-80 0 -149.5 -21t-126.5 -61.5t-92 -73t-81 -83.5l-10 6l65 250h893l-839 -1420h379q157 0 284 69t207 173zM590 1765q38 0 64 -26.5t26 -63.5t-26 -63.5t-64 -26.5q-37 0 -62.5 26.5t-25.5 63.5t25.5 63.5t62.5 26.5z
" />
    <glyph glyph-name="zdotaccent" unicode="&#x17c;" horiz-adv-x="964" 
d="M911 256l13 -8l-45 -248h-818l656 971h-187q-66 0 -123.5 -13.5t-97.5 -32t-81.5 -51.5t-65.5 -57.5t-58 -64.5l-12 8l68 225h737l-655 -971h243q58 0 107 9t89.5 28t69.5 37t61 51t50 54.5t49 62.5zM532 1294q38 0 64.5 -26.5t26.5 -63.5t-26.5 -63.5t-64.5 -26.5
q-37 0 -62.5 26.5t-25.5 63.5t25.5 63.5t62.5 26.5z" />
    <glyph glyph-name="Zcaron" unicode="&#x17d;" 
d="M1069 256l12 -8l-45 -248h-846h-170l838 1417h-319q-80 0 -149.5 -21t-126.5 -61.5t-92 -73t-81 -83.5l-10 6l65 250h893l-839 -1420h379q157 0 284 69t207 173zM854 1845l-262 -262l-262 262l10 10l252 -161l250 161z" />
    <glyph glyph-name="zcaron" unicode="&#x17e;" horiz-adv-x="964" 
d="M911 256l13 -8l-45 -248h-818l656 971h-187q-66 0 -123.5 -13.5t-97.5 -32t-81.5 -51.5t-65.5 -57.5t-58 -64.5l-12 8l68 225h737l-655 -971h243q58 0 107 9t89.5 28t69.5 37t61 51t50 54.5t49 62.5zM795 1374l-263 -262l-262 262l11 10l251 -161l250 161z" />
    <glyph glyph-name="longs" unicode="&#x17f;" horiz-adv-x="548" 
d="M494 969h-129v-834q0 -53 10.5 -80t34.5 -41v-14h-252v14q24 14 34.5 41t10.5 80v670q0 164 -121 164v16h301q-101 5 -197 76.5t-96 167.5q0 108 84 178t232 70q160 0 266 -76l-31 -215h-14q-16 40 -39 81.5t-55.5 83t-68 68.5t-76.5 38t-81 -9q-51 -22 -70.5 -92.5
t-5.5 -157.5q6 -36 21.5 -71t43.5 -68t75 -53.5t106 -20.5h17v-16z" />
    <glyph glyph-name="AEacute" unicode="&#x1fc;" horiz-adv-x="1818" 
d="M1745 256l12 -8l-45 -248h-831v14q47 27 47 121v416h-490l-100 -158q-36 -57 -59.5 -102t-41.5 -98.5t-12 -99t37 -79.5v-14h-242v14q151 130 302 377l573 907q26 47 20 77t-34 42v17h766l43 -228l-11 -6q-40 45 -78.5 78.5t-93.5 68t-125 52.5t-151 18h-144v-604l517 45
v-104l-517 45v-785h166q159 0 285.5 68.5t206.5 173.5zM928 565v760l-482 -760h482zM1399 1890q16 -17 10.5 -44.5t-39.5 -47.5q-188 -110 -305 -153l-12 18q111 106 250 229q32 26 56.5 23t39.5 -25z" />
    <glyph glyph-name="aeacute" unicode="&#x1fd;" horiz-adv-x="1853" 
d="M1583 662q95 -25 156.5 -114t50.5 -222q-6 -58 -33.5 -114.5t-77.5 -108t-133.5 -83.5t-187.5 -32q-100 0 -191 23.5t-169 70t-131.5 124.5t-71.5 179q-6 -82 -31.5 -152.5t-70 -126t-113 -87t-154.5 -31.5t-161.5 25.5t-130 78t-66.5 123.5q-13 76 1 140.5t50.5 112.5
t85 83t110.5 61q-16 37 -17.5 85t16.5 98.5t51.5 93t95 69.5t139.5 27q104 0 190 -44t128 -136q82 83 194.5 129t218.5 51q69 3 139 -13t136 -52t112 -102.5t56 -155.5h-191zM1239 961q-101 -18 -168.5 -95t-97.5 -188h653q-21 139 -131 225t-256 58zM582 965
q-67 0 -124.5 -30.5t-90.5 -79.5t-44.5 -110.5t13.5 -123.5q149 55 330 55q56 0 122 -19v15q0 81 -20.5 145.5t-68 106t-117.5 41.5zM475 14q87 6 151 51.5t97.5 116.5t49 147.5t15.5 162.5v147q-45 18 -124 18q-58 0 -115 -10t-116 -32t-103.5 -58.5t-77.5 -88.5
t-38.5 -122t13.5 -160q19 -80 93.5 -128.5t154.5 -43.5zM1769 322q19 152 -63.5 246t-206.5 94h-530q-43 -174 12 -328q114 -313 440 -301q134 6 234.5 88t113.5 201zM1212 1419q16 -17 11 -44.5t-39 -47.5q-188 -110 -305 -153l-13 18q111 106 250 229q32 26 56.5 23
t39.5 -25z" />
    <glyph glyph-name="Oslashacute" unicode="&#x1fe;" horiz-adv-x="1609" 
d="M1331 1237q103 -101 160 -234.5t57 -281.5q0 -198 -100.5 -367t-271.5 -267.5t-371 -98.5q-145 0 -277.5 55t-236.5 152l-176 -175l-11 11l175 176q-102 101 -160 234t-58 280q0 149 60 285t160.5 234t237.5 156t286 58q146 0 279 -54.5t237 -152.5l174 176l12 -12z
M258 555q42 -132 119 -252l848 848q-115 165 -281.5 237.5t-347.5 16.5q-125 -38 -212 -126t-126.5 -203.5t-40 -250t40.5 -270.5zM1014 37q125 38 212.5 126t127 203.5t40 251t-41.5 271.5q-41 137 -119 250l-846 -848q115 -165 280.5 -237t346.5 -17zM1008 1890
q16 -17 10.5 -44.5t-39.5 -47.5q-188 -110 -305 -153l-12 18q126 120 249 229q32 26 57 23t40 -25z" />
    <glyph glyph-name="oslashacute" unicode="&#x1ff;" horiz-adv-x="1222" 
d="M1006 860q149 -126 149 -330q0 -96 -31.5 -182t-85.5 -151t-124.5 -112.5t-151 -72t-162.5 -24.5q-210 0 -352 114l-156 -155l-10 10l154 156q-148 125 -148 329q0 122 48 226.5t127 172.5t177.5 106t202.5 38q206 0 352 -115l156 156l10 -10zM260 377q23 -86 74 -166
l565 565q-74 112 -182.5 160.5t-231.5 11.5q-85 -25 -143.5 -83t-84 -135.5t-25 -168t27.5 -184.5zM758 25q85 25 143.5 83t84 135.5t25 168t-27.5 184.5q-27 90 -74 168l-567 -567q75 -110 184 -158.5t232 -13.5zM819 1419q16 -17 11 -44.5t-39 -47.5q-186 -109 -306 -153
l-12 18q111 106 250 229q32 26 56.5 23t39.5 -25z" />
    <glyph glyph-name="Scommaaccent" unicode="&#x218;" horiz-adv-x="1187" 
d="M672 1454q109 0 227 -55t223 -137l-61 -213h-14q-161 378 -429 378q-145 0 -233 -69.5t-98 -167.5q-6 -65 18.5 -117.5t71.5 -88.5t110 -66t134 -56.5t142.5 -54t136.5 -64t115.5 -81.5t80.5 -111t30 -148q0 -182 -145 -298.5t-365 -116.5q-170 0 -295.5 50t-259.5 152
l62 234h14q41 -82 95 -150.5t124 -124.5t158.5 -88t185.5 -32q129 0 226.5 71.5t109.5 169.5q8 70 -14.5 125.5t-68.5 94t-108 70t-132.5 59t-141.5 56t-136 65t-115.5 81.5t-80.5 111.5t-30 148.5q0 52 16 103t52.5 100t88.5 86.5t131.5 60.5t174.5 23zM649 -170
q37 0 62.5 -25.5t25.5 -62.5q0 -121 -145 -240l-8 9q103 90 125 167q-27 -24 -60 -24q-36 0 -62 26t-26 62q0 37 25.5 62.5t62.5 25.5z" />
    <glyph glyph-name="scommaaccent" unicode="&#x219;" horiz-adv-x="937" 
d="M498 985q74 0 166.5 -39.5t160.5 -91.5l-41 -188h-10q-47 131 -135 216t-176 85q-99 0 -159 -47t-68 -115q-6 -55 27 -97.5t90.5 -70.5t128.5 -52t141.5 -51t128.5 -59.5t92.5 -84.5t29.5 -120q-9 -124 -116.5 -203t-276.5 -79q-214 0 -399 137l43 205h10
q28 -56 68.5 -109.5t92 -100.5t116 -75.5t129.5 -28.5q108 0 184.5 48t85.5 116q6 43 -13 76t-56 55.5t-87 41t-105.5 35.5t-111 36t-105 45.5t-85.5 60.5t-54 85.5t-10 115.5q31 254 314 254zM500 -170q37 0 62.5 -25.5t25.5 -62.5q0 -120 -146 -240l-8 9q103 90 125 167
q-27 -24 -59 -24q-36 0 -62 26t-26 62q0 37 25.5 62.5t62.5 25.5z" />
    <glyph glyph-name="circumflex" unicode="&#x2c6;" horiz-adv-x="688" 
d="M344 1446l262 -262l-10 -10l-252 161l-250 -161l-12 10z" />
    <glyph glyph-name="caron" unicode="&#x2c7;" horiz-adv-x="688" 
d="M606 1436l-262 -262l-262 262l10 10l252 -162l250 162z" />
    <glyph glyph-name="breve" unicode="&#x2d8;" horiz-adv-x="641" 
d="M545 1444h14q-9 -118 -72 -185t-168 -67q-104 0 -166.5 67.5t-70.5 184.5h14q24 -87 79 -123.5t144 -36.5q90 0 145.5 36.5t80.5 123.5z" />
    <glyph glyph-name="dotaccent" unicode="&#x2d9;" horiz-adv-x="342" 
d="M170 1356q38 0 64 -26.5t26 -63.5t-26 -63.5t-64 -26.5q-37 0 -62.5 26.5t-25.5 63.5t25.5 63.5t62.5 26.5z" />
    <glyph glyph-name="ring" unicode="&#x2da;" horiz-adv-x="497" 
d="M250 1143q-70 0 -119 48.5t-49 117.5q0 71 49 119.5t119 48.5q69 0 117.5 -49t48.5 -119q0 -69 -48.5 -117.5t-117.5 -48.5zM250 1460q-63 0 -107.5 -44t-44.5 -107q0 -62 44.5 -106t107.5 -44q61 0 105 44t44 106q0 63 -43.5 107t-105.5 44z" />
    <glyph glyph-name="ogonek" unicode="&#x2db;" horiz-adv-x="505" 
d="M416 -295l8 -12q-49 -53 -84 -70q-70 -34 -137 -21t-99 60q-27 40 -21 92.5t32.5 102.5t74 92.5t103.5 64.5l10 -6q-50 -21 -87.5 -60.5t-54.5 -83.5t-15 -90t26 -81q27 -38 72 -50.5t92 3.5q38 13 80 59z" />
    <glyph glyph-name="tilde" unicode="&#x2dc;" horiz-adv-x="790" 
d="M692 1364l17 -4q-60 -182 -177 -182q-68 0 -182.5 42.5t-152.5 41.5q-40 0 -60 -20t-39 -77l-16 6q29 88 70.5 130t111.5 42q64 0 169.5 -40.5t162.5 -38.5q35 0 56.5 21t39.5 79z" />
    <glyph glyph-name="hungarumlaut" unicode="&#x2dd;" horiz-adv-x="774" 
d="M270 1495q16 22 34.5 31t34 6t28.5 -14q19 -17 19 -44t-28 -53q-156 -151 -260 -221l-16 14q51 82 188 281zM670 1518q21 -17 21.5 -42t-27.5 -55q-140 -135 -261 -221l-16 14q51 82 188 281q16 22 34.5 31t33.5 6t27 -14z" />
    <glyph glyph-name="Wgrave" unicode="&#x1e80;" horiz-adv-x="2078" 
d="M2058 1417q-69 -72 -116 -154.5t-95 -222.5l-291 -862l70 -178h-162l-401 1040q-17 38 -25 56l-309 -918l68 -178h-160l-401 1040q-60 144 -106.5 223t-109.5 154v17h316v-17q-26 -26 -30.5 -63t7.5 -83.5t43 -127.5l365 -942l285 839q12 40 24 78q-47 105 -87.5 170
t-94.5 129v17h315v-17q-26 -26 -30 -63t8 -83t43 -128l364 -942l285 839q50 137 48 223.5t-66 153.5v17h243v-17zM932 1892q139 -123 250 -229l-13 -18q-117 43 -305 153q-34 20 -39 47.5t11 44.5q15 22 39.5 25t56.5 -23z" />
    <glyph glyph-name="wgrave" unicode="&#x1e81;" horiz-adv-x="1558" 
d="M1296 985h242v-16q-62 -59 -109 -132.5t-96 -189.5l-182 -477l66 -170h-162q-252 659 -262 686l-168 -541l61 -145h-162l-254 598q-70 165 -114 239t-115 132v16h315v-16q-26 -27 -30 -60t6 -66t37 -100l245 -577l170 541q-41 102 -76 158.5t-92 103.5v16h316v-16
q-15 -16 -24 -31t-9.5 -37.5t-0.5 -37t11 -50t17.5 -54t25.5 -69.5l193 -500l151 402q40 102 54 167.5t2.5 119.5t-56.5 90v16zM662 1421q123 -109 249 -229l-12 -18q-117 43 -305 153q-34 20 -39.5 47.5t10.5 44.5q15 22 40 25t57 -23z" />
    <glyph glyph-name="Wacute" unicode="&#x1e82;" horiz-adv-x="2078" 
d="M2058 1417q-69 -72 -116 -154.5t-95 -222.5l-291 -862l70 -178h-162l-401 1040q-17 38 -25 56l-309 -918l68 -178h-160l-401 1040q-60 144 -106.5 223t-109.5 154v17h316v-17q-26 -26 -30.5 -63t7.5 -83.5t43 -127.5l365 -942l285 839q12 40 24 78q-47 105 -87.5 170
t-94.5 129v17h315v-17q-26 -26 -30 -63t8 -83t43 -128l364 -942l285 839q50 137 48 223.5t-66 153.5v17h243v-17zM1243 1890q16 -17 10.5 -44.5t-39.5 -47.5q-188 -110 -305 -153l-12 18q111 106 250 229q32 26 56.5 23t39.5 -25z" />
    <glyph glyph-name="wacute" unicode="&#x1e83;" horiz-adv-x="1558" 
d="M1296 985h242v-16q-62 -59 -109 -132.5t-96 -189.5l-182 -477l66 -170h-162q-252 659 -262 686l-168 -541l61 -145h-162l-254 598q-70 165 -114 239t-115 132v16h315v-16q-26 -27 -30 -60t6 -66t37 -100l245 -577l170 541q-41 102 -76 158.5t-92 103.5v16h316v-16
q-15 -16 -24 -31t-9.5 -37.5t-0.5 -37t11 -50t17.5 -54t25.5 -69.5l193 -500l151 402q40 102 54 167.5t2.5 119.5t-56.5 90v16zM1055 1419q16 -17 10.5 -44.5t-39.5 -47.5q-188 -110 -305 -153l-12 18q126 120 249 229q32 26 57 23t40 -25z" />
    <glyph glyph-name="Wdieresis" unicode="&#x1e84;" horiz-adv-x="2078" 
d="M2058 1417q-69 -72 -116 -154.5t-95 -222.5l-291 -862l70 -178h-162l-401 1040q-17 38 -25 56l-309 -918l68 -178h-160l-401 1040q-60 144 -106.5 223t-109.5 154v17h316v-17q-26 -26 -30.5 -63t7.5 -83.5t43 -127.5l365 -942l285 839q12 40 24 78q-47 105 -87.5 170
t-94.5 129v17h315v-17q-26 -26 -30 -63t8 -83t43 -128l364 -942l285 839q50 137 48 223.5t-66 153.5v17h243v-17zM858 1765q38 0 64 -26.5t26 -63.5t-26 -63.5t-64 -26.5q-37 0 -62.5 26.5t-25.5 63.5t25.5 63.5t62.5 26.5zM1217 1765q37 0 63.5 -26.5t26.5 -63.5
t-26.5 -63.5t-63.5 -26.5t-64 26.5t-27 63.5t27 63.5t64 26.5z" />
    <glyph glyph-name="wdieresis" unicode="&#x1e85;" horiz-adv-x="1558" 
d="M1296 985h242v-16q-62 -59 -109 -132.5t-96 -189.5l-182 -477l66 -170h-162q-252 659 -262 686l-168 -541l61 -145h-162l-254 598q-70 165 -114 239t-115 132v16h315v-16q-26 -27 -30 -60t6 -66t37 -100l245 -577l170 541q-41 102 -76 158.5t-92 103.5v16h316v-16
q-15 -16 -24 -31t-9.5 -37.5t-0.5 -37t11 -50t17.5 -54t25.5 -69.5l193 -500l151 402q40 102 54 167.5t2.5 119.5t-56.5 90v16zM608 1294q38 0 64 -26.5t26 -63.5t-26 -63.5t-64 -26.5q-37 0 -62.5 26.5t-25.5 63.5t25.5 63.5t62.5 26.5zM967 1294q37 0 63.5 -26.5
t26.5 -63.5t-26.5 -63.5t-63.5 -26.5t-63.5 26.5t-26.5 63.5t26.5 63.5t63.5 26.5z" />
    <glyph glyph-name="Ygrave" unicode="&#x1ef2;" horiz-adv-x="1273" 
d="M1012 1434h241v-17q-55 -47 -84 -77.5t-68.5 -95t-90.5 -171.5l-262 -563v-375q0 -53 11 -80t36 -41v-14h-254v14q24 14 34.5 41t10.5 80v352q-344 646 -387 730q-50 92 -179 200v17h359v-17q-84 -84 24 -284l328 -617l279 592q43 96 55 153t-1 90.5t-52 65.5v17z
M610 1892q139 -123 250 -229l-12 -18q-117 43 -305 153q-34 20 -39.5 47.5t10.5 44.5q15 22 39.5 25t56.5 -23z" />
    <glyph glyph-name="ygrave" unicode="&#x1ef3;" horiz-adv-x="1062" 
d="M1042 969q-71 -72 -126 -158.5t-109 -220.5q-164 -408 -238 -590q-24 -60 -47 -106.5t-53.5 -91.5t-63 -74.5t-74.5 -47.5t-89 -18q-163 0 -242 145l160 146l12 -10q-10 -43 -6.5 -90.5t14 -87t39 -63t68.5 -19.5q131 15 258 299l-262 616q-70 163 -114.5 238t-113.5 133
v16h314v-16q-25 -27 -29.5 -59.5t5.5 -67t36 -99.5l244 -569l168 418q41 102 57 166.5t6 119t-55 91.5v16h241v-16zM516 1421q139 -123 250 -229l-12 -18q-117 43 -305 153q-34 20 -39.5 47.5t10.5 44.5q15 22 39.5 25t56.5 -23z" />
    <glyph glyph-name="endash" unicode="&#x2013;" horiz-adv-x="1062" 
d="M82 725h899v-16h-899v16z" />
    <glyph glyph-name="emdash" unicode="&#x2014;" horiz-adv-x="1193" 
d="M82 725h1030v-16h-1030v16z" />
    <glyph glyph-name="quoteleft" unicode="&#x2018;" horiz-adv-x="385" 
d="M193 1264q46 0 78 -32.5t32 -78.5t-32 -78.5t-78 -32.5t-78.5 32.5t-32.5 78.5q0 156 184 303l10 -10q-127 -108 -157 -211q29 29 74 29z" />
    <glyph glyph-name="quoteright" unicode="&#x2019;" horiz-adv-x="387" 
d="M195 1456q44 0 77 -33.5t33 -79.5q0 -154 -184 -301l-10 11q64 56 101.5 105t55.5 106q-34 -31 -73 -31q-46 0 -79.5 33t-33.5 77q0 46 33.5 79.5t79.5 33.5z" />
    <glyph glyph-name="quotesinglbase" unicode="&#x201a;" horiz-adv-x="385" 
d="M193 211q46 0 78 -32.5t32 -78.5q0 -156 -184 -303l-10 10q126 107 159 211q-33 -30 -75 -30q-46 0 -78.5 33t-32.5 79t32.5 78.5t78.5 32.5z" />
    <glyph glyph-name="quotedblleft" unicode="&#x201c;" horiz-adv-x="729" 
d="M537 1264q46 0 78 -32.5t32 -78.5t-32 -78.5t-78 -32.5t-78.5 32.5t-32.5 78.5q0 156 184 303l11 -10q-64 -55 -103 -105t-57 -106q32 29 76 29zM193 1264q46 0 78 -32.5t32 -78.5t-32 -78.5t-78 -32.5t-78.5 32.5t-32.5 78.5q0 156 184 303l10 -10q-127 -108 -157 -211
q29 29 74 29z" />
    <glyph glyph-name="quotedblright" unicode="&#x201d;" horiz-adv-x="729" 
d="M193 1456q45 0 77.5 -33.5t32.5 -79.5q0 -154 -184 -301l-10 11q65 56 103 105t54 106q-31 -31 -73 -31q-45 0 -78 32.5t-33 77.5q0 46 32.5 79.5t78.5 33.5zM535 1456q46 0 79 -33.5t33 -79.5q0 -154 -184 -301l-10 11q64 56 101.5 105t55.5 106q-34 -31 -75 -31
q-44 0 -77.5 33t-33.5 77q0 46 33.5 79.5t77.5 33.5z" />
    <glyph glyph-name="quotedblbase" unicode="&#x201e;" horiz-adv-x="729" 
d="M193 211q46 0 79 -32.5t33 -78.5q0 -156 -184 -303l-10 10q124 109 157 211q-33 -30 -75 -30q-46 0 -78.5 33t-32.5 79t32.5 78.5t78.5 32.5zM537 211q46 0 78 -32.5t32 -78.5q0 -156 -184 -303l-10 10q126 107 159 211q-33 -30 -75 -30q-46 0 -78.5 33t-32.5 79
t32.5 78.5t78.5 32.5z" />
    <glyph glyph-name="dagger" unicode="&#x2020;" horiz-adv-x="823" 
d="M741 1108l-77 -57l-246 53q7 -32 20.5 -77.5t23.5 -74.5l9 -30l-55 -646h-8l-54 646q38 110 54 182l-248 -53l-78 57l78 57l246 -53l-52 244l58 78l57 -78l-51 -244l246 53z" />
    <glyph glyph-name="daggerdbl" unicode="&#x2021;" horiz-adv-x="823" 
d="M418 604l246 53l77 -57l-77 -57l-246 53l53 -244l-59 -76l-58 76l54 244l-248 -53l-78 57l78 57l248 -53l-54 250l54 250l-248 -53l-78 57l78 57l248 -53l-54 244l58 78l59 -78l-53 -244l246 53l77 -57l-77 -57l-246 53l53 -250z" />
    <glyph glyph-name="bullet" unicode="&#x2022;" horiz-adv-x="491" 
d="M246 651q68 0 116 -48.5t48 -115.5q0 -69 -48 -116t-116 -47t-116 47t-48 116q0 67 48 115.5t116 48.5z" />
    <glyph glyph-name="ellipsis" unicode="&#x2026;" horiz-adv-x="1271" 
d="M195 211q46 0 78 -32.5t32 -78.5t-32 -79t-78 -33t-79.5 33t-33.5 79t33.5 78.5t79.5 32.5zM637 211q46 0 78.5 -32.5t32.5 -78.5t-32.5 -79t-78.5 -33t-78.5 33t-32.5 79t32.5 78.5t78.5 32.5zM1079 211q46 0 78.5 -32.5t32.5 -78.5t-32.5 -79t-78.5 -33t-78 33t-32 79
t32 78.5t78 32.5z" />
    <glyph glyph-name="perthousand" unicode="&#x2030;" horiz-adv-x="3137" 
d="M924 1053q0 -110 -58.5 -202.5t-155.5 -145t-208 -52.5q-110 0 -206.5 52.5t-155 145t-58.5 202.5q0 111 58.5 203.5t154.5 145t207 52.5q171 0 296.5 -116.5t125.5 -284.5zM502 672q130 0 209.5 110.5t79.5 270.5q0 162 -79.5 272.5t-209.5 110.5q-129 0 -208 -111
t-79 -272q0 -160 79 -270.5t208 -110.5zM1638 791q171 0 295.5 -117t124.5 -285q0 -110 -58 -202.5t-154.5 -144.5t-207.5 -52q-110 0 -206.5 52t-154.5 144.5t-58 202.5q0 111 58 204t154 145.5t207 52.5zM1638 8q130 0 209.5 110.5t79.5 270.5q0 162 -79.5 272.5
t-209.5 110.5q-129 0 -208.5 -111t-79.5 -272q0 -160 79.5 -270.5t208.5 -110.5zM2636 791q171 0 295.5 -117t124.5 -285q0 -110 -58 -202.5t-154.5 -144.5t-207.5 -52t-207 52t-154.5 144.5t-58.5 202.5q0 111 58.5 204t154.5 145.5t207 52.5zM2636 8q130 0 209.5 110.5
t79.5 270.5q0 162 -79.5 272.5t-209.5 110.5t-209.5 -110.5t-79.5 -272.5q0 -160 79.5 -270.5t209.5 -110.5zM1499 1522h14l-833 -1592h-16z" />
    <glyph glyph-name="guilsinglleft" unicode="&#x2039;" horiz-adv-x="458" 
d="M377 872l-273 -272l273 -272l-10 -13l-285 285l285 285z" />
    <glyph glyph-name="guilsinglright" unicode="&#x203a;" horiz-adv-x="458" 
d="M92 885l285 -285l-285 -285l-10 13l272 272l-272 272z" />
    <glyph glyph-name="fraction" unicode="&#x2044;" horiz-adv-x="909" 
d="M811 1774h16l-729 -2116h-16z" />
    <glyph glyph-name="Euro" unicode="&#x20ac;" horiz-adv-x="1804" 
d="M1708 414l14 -8q-203 -418 -669 -418q-261 0 -469 162.5t-267 408.5h-235v14h231q-16 78 -16 148q0 72 16 147h-231v17h235q40 161 152 291t270 204t330 74q160 0 276 -39.5t252 -130.5l-61 -235h-14q-58 92 -129 164.5t-157 125t-179.5 69.5t-196.5 -3
q-118 -26 -206.5 -103t-135.5 -183t-59 -234h743v-17h-743q-13 -151 30 -295h603v-14h-598v-4q83 -270 290 -403t478 -93q139 22 254 112t192 243z" />
    <glyph glyph-name="bitcoin" unicode="&#x20bf;" horiz-adv-x="1310" 
d="M1249 385q0 -75 -30.5 -137t-80 -104t-117.5 -72.5t-139.5 -46t-148.5 -21.5v-223h-16v221q-25 -2 -72 -2h-215v-219h-16v219h-332v14q24 16 34.5 42.5t10.5 78.5v1163q0 52 -10.5 78.5t-34.5 40.5v17h332v219h16v-219h127q81 0 160 -9v228h16v-230q426 -49 428 -329
q-3 -280 -413 -328q76 -8 145.5 -25t135.5 -48t114 -72.5t77 -102.5t29 -133zM289 1417v-647h268q442 0 442 324q0 323 -442 323h-268zM645 14q97 0 174.5 21.5t126.5 56.5t81.5 84t46 100.5t13.5 108.5t-13.5 108t-46 99.5t-81.5 83.5t-126.5 56.5t-174.5 21.5h-356v-740
h356z" />
    <glyph glyph-name="afii61352" unicode="&#x2116;" horiz-adv-x="2373" 
d="M1526 633h766v-15h-766v15zM1085 1417v17h277v-17q-53 -26 -92 -95t-39 -136v-1186h-29l-975 1247v-1001q0 -66 39 -135t92 -97v-14h-276v14q53 28 92 97t39 135v1020l-131 168h207l928 -1176v928q0 67 -39.5 136t-92.5 95zM1909 854q-129 0 -222.5 87t-93.5 212
q0 126 93.5 213.5t222.5 87.5q128 0 220.5 -87.5t92.5 -213.5q0 -125 -93 -212t-220 -87zM1909 1440q-97 0 -157 -82.5t-60 -204.5q0 -120 60 -202.5t157 -82.5t156 82t59 203q0 122 -59 204.5t-156 82.5z" />
    <glyph glyph-name="minus" unicode="&#x2212;" horiz-adv-x="952" 
d="M82 725h788v-16h-788v16z" />
    <glyph glyph-name="approxequal" unicode="&#x2248;" horiz-adv-x="1177" 
d="M834 686q-54 0 -107 21t-83 42t-81 62q-39 30 -52.5 40t-45 30t-58 27t-55.5 7q-54 0 -98 -19.5t-73.5 -53.5t-49 -69t-33.5 -77l-16 4q37 114 106 173t164 59q40 0 83 -18.5t65.5 -35t72.5 -55.5q51 -41 78.5 -60.5t79 -40t103.5 -20.5q87 0 151.5 52.5t95.5 146.5
l15 -6q-32 -100 -101 -154.5t-161 -54.5zM834 299q-54 0 -107 21t-83 42t-81 62q-39 30 -52.5 40t-45 30t-58 27t-55.5 7q-180 0 -254 -219l-16 4q37 114 106 173t164 59q40 0 83 -18.5t65.5 -35t72.5 -55.5q51 -41 78.5 -60.5t79 -40t103.5 -20.5q88 0 152 52t95 147l15 -6
q-32 -100 -101 -154.5t-161 -54.5z" />
    <glyph glyph-name="notequal" unicode="&#x2260;" horiz-adv-x="952" 
d="M870 887h-215l-338 -340h553v-17h-569l-131 -129l-10 11l119 118h-197v17h213l340 340h-553v14h567l131 131l11 -12l-119 -119h198v-14z" />
    <glyph glyph-name="lessequal" unicode="&#x2264;" horiz-adv-x="784" 
d="M82 143v17h620v-17h-620zM702 864v-18l-600 -262l600 -265v-16l-620 272v17z" />
    <glyph glyph-name="greaterequal" unicode="&#x2265;" horiz-adv-x="782" 
d="M82 143v17h618v-17h-618zM82 864l618 -272v-17l-618 -272v16l598 265l-598 262v18z" />
    <glyph glyph-name="commaaccent" unicode="&#xf6c3;" horiz-adv-x="339" 
d="M170 -170q37 0 62.5 -25.5t25.5 -62.5q0 -121 -145 -240l-9 9q103 90 125 167q-27 -24 -59 -24q-36 0 -62 26t-26 62q0 37 25.5 62.5t62.5 25.5z" />
    <glyph glyph-name="commaaccent.cap" horiz-adv-x="339" 
d="M170 -170q37 0 62.5 -25.5t25.5 -62.5q0 -121 -145 -240l-9 9q103 90 125 167q-27 -24 -59 -24q-36 0 -62 26t-26 62q0 37 25.5 62.5t62.5 25.5z" />
    </font>
</defs>
</svg>
