<svg width="136" height="40" viewBox="0 0 136 40" fill="none" xmlns="http://www.w3.org/2000/svg">
<path d="M19.0457 0.497345C11.8155 0.497345 8.89646 5.05705 8.89646 8.71384C8.89646 20.0454 28.2069 16.9755 27.0393 26.5915C26.68 29.4356 23.4915 31.9186 19.6744 31.9186C13.7914 31.9186 9.61499 27.8104 7.32468 23.2056H7.01032L5.66309 28.3522C9.16591 31.0157 12.4891 32.8216 17.8331 32.8216C24.2101 32.8216 29.0152 29.0293 29.0152 23.657C29.0152 12.3706 9.74971 15.3502 10.603 6.32112C10.8724 3.61239 13.4322 1.08424 17.878 1.08424C21.4258 1.08424 24.7041 3.38666 27.2638 9.43616H27.5782L28.9254 4.74103C26.2758 2.66433 22.5036 0.497345 19.0457 0.497345Z" fill="#FCFCFC"/>
<path d="M130.368 11.1971V10.836H125.069V11.1971C127.089 12.8675 126.55 15.3505 124.889 19.5039L121.206 28.7136L115.862 16.1631C114.83 13.635 114.47 12.4161 115.593 11.1971V10.836H108.722V11.1971C110.878 13.003 111.821 14.9442 113.707 19.3685L119.455 32.9573C117.973 36.2981 116.132 39.2777 113.797 39.5485C111.327 39.8194 110.833 36.3432 111.282 33.8151L111.012 33.5893L107.51 36.7947C108.632 38.8714 110.384 40 112.809 40C116.356 40 118.377 36.6141 119.994 32.551C121.611 28.533 125.203 19.5491 125.203 19.5491C126.865 15.3957 128.437 13.1835 130.368 11.1971Z" fill="#FCFCFC"/>
<path d="M108.495 24.5601C107.687 28.0363 106.205 31.6028 103.241 32.0091C99.4235 32.5057 98.3457 29.4809 98.3457 25.5533V11.197H103.645V10.8358H93.7202C96.4147 10.7004 99.8277 8.12709 99.8277 4.65088H96.28C96.28 6.81786 95.9656 10.8358 92.1484 10.8358V11.197H94.798V24.8761C94.798 30.2033 97.268 32.8217 101.265 32.8217C105.98 32.8217 107.866 28.894 108.72 24.6504L108.495 24.5601Z" fill="#FCFCFC"/>
<path d="M87.7427 29.5703V0H87.4284L83.207 0.948055C83.207 0.948055 83.207 1.21893 83.207 1.30922C84.0603 1.44466 84.195 1.89611 84.195 3.47621V29.5703C84.195 31.1504 83.8807 31.8276 83.207 32.2339C83.207 32.3242 83.207 32.5499 83.207 32.5499H88.7307C88.7307 32.5499 88.7307 32.3242 88.7307 32.2339C88.0571 31.8276 87.7427 31.1504 87.7427 29.5703Z" fill="#FCFCFC"/>
<path d="M78.5492 32.235C77.8307 31.8287 77.5163 31.1515 77.5163 29.5714V10.836H77.202L72.9806 11.8292C72.9806 11.8292 72.9806 12.0549 72.9806 12.1452C73.8339 12.2806 73.9686 12.7321 73.9686 14.3122V17.7884C73.9686 21.5806 73.0704 31.016 68.0407 32.0092C64.1786 32.7316 62.1578 29.4811 62.1578 25.5534V10.836H61.8434L57.6221 11.8292C57.6221 11.8292 57.6221 12.0549 57.6221 12.1452C58.4753 12.2806 58.61 12.7321 58.61 14.3122V24.8762C58.61 30.2034 61.8883 32.8219 66.0199 32.8219C71.8579 32.8219 73.3848 26.6821 73.9686 21.5806V32.551H78.5492C78.5492 32.551 78.5492 32.3253 78.5492 32.235Z" fill="#FCFCFC"/>
<rect x="32.5386" y="10.5951" width="21.6056" height="21.7199" fill="#FCFCFC"/>
</svg>
