<svg width="44" height="42" viewBox="0 0 44 42" fill="none" xmlns="http://www.w3.org/2000/svg">
<path d="M22.5596 9.66275C17.8001 9.66275 15.8785 12.7371 15.8785 15.2027C15.8785 22.843 28.5904 20.7731 27.8218 27.2567C27.5852 29.1744 25.4863 30.8486 22.9735 30.8486C19.1008 30.8486 16.3515 28.0786 14.8438 24.9738H14.6369L13.75 28.4439C16.0559 30.2398 18.2435 31.4574 21.7614 31.4574C25.9593 31.4574 29.1225 28.9005 29.1225 25.2782C29.1225 17.6683 16.4402 19.6773 17.0019 13.5894C17.1793 11.7631 18.8643 10.0585 21.791 10.0585C24.1264 10.0585 26.2845 11.6109 27.9696 15.6898H28.1765L29.0634 12.5241C27.3192 11.1238 24.8359 9.66275 22.5596 9.66275Z" fill="#FCFCFC"/>
<path d="M33.1605 3.42276C23.6737 -2.47954 9.70701 -1.20668 2.66563 10.8504C-3.30888 21.0806 1.33342 32.138 10.891 38.0844C20.3778 43.9867 34.5579 42.3484 41.3859 30.6567C47.2751 20.5727 42.6473 9.32506 33.1605 3.42276ZM17.1105 40.1607C7.58872 37.6238 4.60386 27.1991 7.24697 16.8887C9.93276 6.50518 17.4618 -1.26349 26.941 1.34646C36.4201 3.95641 39.4477 14.308 36.8045 24.6184C34.1188 35.0019 26.5897 42.7706 17.1105 40.1607Z" fill="#3483FA"/>
</svg>
