<svg width="372" height="84" viewBox="0 0 372 84" fill="none" xmlns="http://www.w3.org/2000/svg">
<circle cx="42" cy="42" r="41.1867" stroke="#212121" stroke-width="1.62663"/>
<path d="M40.8393 37.824C44.9473 36.368 51.9153 34.6 51.9153 28.048C51.9153 23.732 48.4833 21.08 42.9193 21.08C38.4993 21.08 33.7153 23.316 30.7513 26.228L32.8833 31.636H33.2473C34.2353 24.616 38.3433 21.6 42.6593 21.6C45.8313 21.6 47.8073 23.784 47.9633 27.788C48.1713 32.52 44.5313 36.316 38.2913 38.552C38.2913 38.552 38.3433 38.708 38.4473 38.916C46.8713 35.848 51.4473 41.464 50.7193 48.952C50.3033 53.476 47.8073 57.948 41.5673 57.74C37.1993 57.636 32.5713 53.58 31.5833 46.612H31.1673L29.0873 53.112C32.0513 56.024 36.8873 58.312 41.8273 58.312C49.3153 58.312 54.0993 53.216 54.7753 48.692C56.0753 40.528 48.6913 35.692 40.8393 37.824Z" fill="#212121"/>
<line x1="96" y1="39.1867" x2="372" y2="39.1867" stroke="#212121" stroke-width="1.62663"/>
</svg>
