<svg width="372" height="84" viewBox="0 0 372 84" fill="none" xmlns="http://www.w3.org/2000/svg">
<circle cx="42" cy="42" r="41.1867" stroke="#212121" stroke-width="1.62663"/>
<path d="M53.6106 51.864C52.8826 53.58 51.6346 54.152 49.4506 54.152H34.8386C46.6426 44.688 54.6506 37.668 52.7266 28.568C51.7386 23.992 47.3706 20.716 41.8066 21.08C38.0106 21.34 33.7466 23.836 30.6266 26.54L32.7586 32.52H33.1226C34.1626 25.5 38.3746 21.548 42.0146 21.6C46.4346 21.704 48.2546 25.344 48.5146 29.608C49.1386 40.112 38.2706 51.292 29.9506 57.636V58H53.1946L54.0266 51.864C54.0266 51.864 53.7666 51.864 53.6106 51.864Z" fill="#212121"/>
<line x1="96" y1="39.1867" x2="372" y2="39.1867" stroke="#212121" stroke-width="1.62663"/>
</svg>
