<svg width="24" height="20" viewBox="0 0 24 20" fill="none" xmlns="http://www.w3.org/2000/svg">
<path d="M12.1869 19.2945C12.1178 19.3385 12.0559 19.3775 12.002 19.4115C11.9479 19.3775 11.886 19.3384 11.8168 19.2944C11.5306 19.1124 11.1195 18.8461 10.6222 18.5107C9.62703 17.8394 8.28959 16.8932 6.91776 15.7918C5.54414 14.689 4.14641 13.4389 3.02443 12.1609C1.89382 10.8729 1.08495 9.60293 0.8221 8.46126L0.816407 8.43653L0.80824 8.41251C0.609505 7.82792 0.5 7.2039 0.5 6.55324C0.5 4.28115 1.80136 2.29391 3.74043 1.25596C4.64454 0.775888 5.67654 0.5 6.77777 0.5C8.7297 0.5 10.4694 1.35781 11.623 2.69845L12.0029 3.13995L12.3818 2.69757C13.5291 1.35795 15.2701 0.5 17.2194 0.5C18.3238 0.5 19.3576 0.776032 20.259 1.2557C22.1987 2.29529 23.5 4.28213 23.5 6.55324C23.5 7.20243 23.3895 7.82738 23.1905 8.41251L23.1824 8.43646L23.1767 8.46111C22.9135 9.60297 22.1046 10.8731 20.9744 12.161C19.8528 13.4391 18.4558 14.6892 17.083 15.792C15.7119 16.8933 14.3753 17.8396 13.3807 18.5108C12.8837 18.8462 12.4729 19.1124 12.1869 19.2945Z" stroke="#212121"/>
</svg>
