<svg width="112" height="36" viewBox="0 0 112 36" fill="none" xmlns="http://www.w3.org/2000/svg">
<path d="M12.998 0.44751C6.64579 0.44751 4.08123 4.55124 4.08123 7.84235C4.08123 18.0407 21.0468 15.2778 20.021 23.9322C19.7053 26.492 16.904 28.7267 13.5504 28.7267C8.3818 28.7267 4.7125 25.0293 2.70031 20.8849H2.42412L1.24048 25.5168C4.31796 27.9141 7.23761 29.5393 11.9327 29.5393C17.5353 29.5393 21.757 26.1263 21.757 21.2912C21.757 11.1335 4.83087 13.8151 5.58051 5.68891C5.81724 3.25105 8.06617 0.975713 11.9722 0.975713C15.0891 0.975713 17.9693 3.04789 20.2183 8.49245H20.4944L21.6781 4.26682C19.3503 2.3978 16.036 0.44751 12.998 0.44751Z" fill="#FCFCFC"/>
<path d="M110.802 10.0775V9.75244H106.147V10.0775C107.922 11.5808 107.449 13.8155 105.989 17.5536L102.753 25.8423L98.0583 14.5469C97.1509 12.2716 96.8352 11.1745 97.8216 10.0775V9.75244H91.785V10.0775C93.6788 11.7027 94.5074 13.4499 96.1645 17.4317L101.215 29.6616C99.9127 32.6683 98.2951 35.35 96.2434 35.5938C94.0734 35.8376 93.6394 32.709 94.0339 30.4336L93.7972 30.2305L90.7197 33.1153C91.7061 34.9843 93.2448 36.0001 95.3754 36.0001C98.4923 36.0001 100.268 32.9527 101.688 29.296C103.109 25.6798 106.265 17.5942 106.265 17.5942C107.725 13.8562 109.106 11.8653 110.802 10.0775Z" fill="#FCFCFC"/>
<path d="M91.5855 22.1041C90.8753 25.2326 89.5733 28.4425 86.9692 28.8082C83.6156 29.2551 82.6687 26.5328 82.6687 22.9979V10.0773H87.3243V9.75224H78.6048C80.9721 9.63034 83.9707 7.31438 83.9707 4.18579H80.8537C80.8537 6.13608 80.5775 9.75224 77.2239 9.75224V10.0773H79.5517V22.3885C79.5517 27.1829 81.7217 29.5395 85.2332 29.5395C89.376 29.5395 91.0331 26.0046 91.7827 22.1853L91.5855 22.1041Z" fill="#FCFCFC"/>
<path d="M73.3531 26.6133V0H73.0769L69.3682 0.85325C69.3682 0.85325 69.3682 1.09704 69.3682 1.1783C70.1178 1.30019 70.2362 1.7065 70.2362 3.12859V26.6133C70.2362 28.0354 69.96 28.6449 69.3682 29.0105C69.3682 29.0918 69.3682 29.295 69.3682 29.295H74.2211C74.2211 29.295 74.2211 29.0918 74.2211 29.0105C73.6293 28.6449 73.3531 28.0354 73.3531 26.6133Z" fill="#FCFCFC"/>
<path d="M65.276 29.0115C64.6447 28.6459 64.3685 28.0364 64.3685 26.6143V9.75244H64.0923L60.3836 10.6463C60.3836 10.6463 60.3836 10.8495 60.3836 10.9307C61.1332 11.0526 61.2516 11.4589 61.2516 12.881V16.0096C61.2516 19.4226 60.4625 27.9145 56.0435 28.8084C52.6504 29.4585 50.875 26.533 50.875 22.9982V9.75244H50.5988L46.89 10.6463C46.89 10.6463 46.89 10.8495 46.89 10.9307C47.6397 11.0526 47.758 11.4589 47.758 12.881V22.3887C47.758 27.1831 50.6382 29.5397 54.2681 29.5397C59.3972 29.5397 60.7387 24.0139 61.2516 19.4226V29.296H65.276C65.276 29.296 65.276 29.0928 65.276 29.0115Z" fill="#FCFCFC"/>
<rect x="24.8524" y="9.53564" width="18.9821" height="19.5479" fill="#2E7BED"/>
</svg>
