<svg width="126" height="40" viewBox="0 0 126 40" fill="none" xmlns="http://www.w3.org/2000/svg">
<path d="M14.0457 0.497345C6.81548 0.497345 3.89646 5.05705 3.89646 8.71384C3.89646 20.0454 23.2069 16.9755 22.0393 26.5915C21.68 29.4356 18.4915 31.9186 14.6744 31.9186C8.79143 31.9186 4.61499 27.8104 2.32468 23.2056H2.01032L0.663086 28.3522C4.16591 31.0157 7.48909 32.8216 12.8331 32.8216C19.2101 32.8216 24.0152 29.0293 24.0152 23.657C24.0152 12.3706 4.74971 15.3502 5.60296 6.32112C5.87241 3.61239 8.43216 1.08424 12.878 1.08424C16.4258 1.08424 19.7041 3.38666 22.2638 9.43616H22.5782L23.9254 4.74103C21.2758 2.66433 17.5036 0.497345 14.0457 0.497345Z" fill="#FCFCFC"/>
<path d="M125.368 11.1971V10.836H120.069V11.1971C122.089 12.8675 121.55 15.3505 119.889 19.5039L116.206 28.7136L110.862 16.1631C109.83 13.635 109.47 12.4161 110.593 11.1971V10.836H103.722V11.1971C105.878 13.003 106.821 14.9442 108.707 19.3685L114.455 32.9573C112.973 36.2981 111.132 39.2777 108.797 39.5485C106.327 39.8194 105.833 36.3432 106.282 33.8151L106.012 33.5893L102.51 36.7947C103.632 38.8714 105.384 40 107.809 40C111.356 40 113.377 36.6141 114.994 32.551C116.611 28.533 120.203 19.5491 120.203 19.5491C121.865 15.3957 123.437 13.1835 125.368 11.1971Z" fill="#FCFCFC"/>
<path d="M103.495 24.5601C102.687 28.0363 101.205 31.6028 98.2407 32.0091C94.4235 32.5057 93.3457 29.4809 93.3457 25.5533V11.197H98.6449V10.8358H88.7202C91.4147 10.7004 94.8277 8.12709 94.8277 4.65088H91.28C91.28 6.81786 90.9656 10.8358 87.1484 10.8358V11.197H89.798V24.8761C89.798 30.2033 92.268 32.8217 96.2648 32.8217C100.98 32.8217 102.866 28.894 103.72 24.6504L103.495 24.5601Z" fill="#FCFCFC"/>
<path d="M82.7427 29.5703V0H82.4284L78.207 0.948055C78.207 0.948055 78.207 1.21893 78.207 1.30922C79.0603 1.44466 79.195 1.89611 79.195 3.47621V29.5703C79.195 31.1504 78.8807 31.8276 78.207 32.2339C78.207 32.3242 78.207 32.5499 78.207 32.5499H83.7307C83.7307 32.5499 83.7307 32.3242 83.7307 32.2339C83.0571 31.8276 82.7427 31.1504 82.7427 29.5703Z" fill="#FCFCFC"/>
<path d="M73.5492 32.235C72.8307 31.8287 72.5163 31.1515 72.5163 29.5714V10.836H72.202L67.9806 11.8292C67.9806 11.8292 67.9806 12.0549 67.9806 12.1452C68.8339 12.2806 68.9686 12.7321 68.9686 14.3122V17.7884C68.9686 21.5806 68.0704 31.016 63.0407 32.0092C59.1786 32.7316 57.1578 29.4811 57.1578 25.5534V10.836H56.8434L52.6221 11.8292C52.6221 11.8292 52.6221 12.0549 52.6221 12.1452C53.4753 12.2806 53.61 12.7321 53.61 14.3122V24.8762C53.61 30.2034 56.8883 32.8219 61.0199 32.8219C66.8579 32.8219 68.3848 26.6821 68.9686 21.5806V32.551H73.5492C73.5492 32.551 73.5492 32.3253 73.5492 32.235Z" fill="#FCFCFC"/>
<rect x="27.5386" y="10.5951" width="21.6056" height="21.7199" fill="#FCFCFC"/>
</svg>
