<svg width="112" height="36" viewBox="0 0 112 36" fill="none" xmlns="http://www.w3.org/2000/svg">
<path d="M12.4851 0.447632C6.05827 0.447632 3.46359 4.55136 3.46359 7.84247C3.46359 18.0409 20.6284 15.2779 19.5905 23.9323C19.2712 26.4921 16.437 28.7268 13.0439 28.7268C7.81467 28.7268 4.10228 25.0294 2.06645 20.885H1.78702L0.589478 25.517C3.7031 27.9142 6.65704 29.5394 11.4073 29.5394C17.0757 29.5394 21.3469 26.1264 21.3469 21.2913C21.3469 11.1336 4.22203 13.8152 4.98048 5.68903C5.21999 3.25117 7.49532 0.975835 11.4472 0.975835C14.6008 0.975835 17.5148 3.04802 19.7901 8.49257H20.0695L21.2671 4.26694C18.9119 2.39792 15.5588 0.447632 12.4851 0.447632Z" fill="#212121"/>
<path d="M111.438 10.0774V9.75232H106.728V10.0774C108.524 11.5807 108.045 13.8154 106.568 17.5535L103.295 25.8422L98.5444 14.5468C97.6263 12.2714 97.307 11.1744 98.3049 10.0774V9.75232H92.1974V10.0774C94.1135 11.7026 94.9518 13.4497 96.6283 17.4316L101.738 29.6615C100.421 32.6682 98.7839 35.3499 96.7082 35.5936C94.5127 35.8374 94.0736 32.7088 94.4728 30.4335L94.2332 30.2303L91.1196 33.1152C92.1176 34.9842 93.6744 36 95.83 36C98.9835 36 100.78 32.9526 102.217 29.2958C103.654 25.6797 106.847 17.5941 106.847 17.5941C108.324 13.8561 109.722 11.8651 111.438 10.0774Z" fill="#212121"/>
<path d="M91.9955 22.1041C91.2769 25.2326 89.9596 28.4425 87.325 28.8082C83.932 29.2551 82.9739 26.5328 82.9739 22.9979V10.0773H87.6843V9.75224H78.8623C81.2574 9.63034 84.2912 7.31438 84.2912 4.18579H81.1377C81.1377 6.13608 80.8583 9.75224 77.4652 9.75224V10.0773H79.8204V22.3885C79.8204 27.1829 82.0159 29.5395 85.5686 29.5395C89.76 29.5395 91.4366 26.0046 92.195 22.1853L91.9955 22.1041Z" fill="#212121"/>
<path d="M73.5489 26.6133V0H73.2695L69.5172 0.85325C69.5172 0.85325 69.5172 1.09704 69.5172 1.1783C70.2757 1.30019 70.3954 1.7065 70.3954 3.12859V26.6133C70.3954 28.0354 70.116 28.6449 69.5172 29.0105C69.5172 29.0918 69.5172 29.295 69.5172 29.295H74.4271C74.4271 29.295 74.4271 29.0918 74.4271 29.0105C73.8284 28.6449 73.5489 28.0354 73.5489 26.6133Z" fill="#212121"/>
<path d="M65.3769 29.0114C64.7382 28.6457 64.4588 28.0363 64.4588 26.6142V9.75232H64.1794L60.427 10.6462C60.427 10.6462 60.427 10.8494 60.427 10.9306C61.1855 11.0525 61.3052 11.4588 61.3052 12.8809V16.0095C61.3052 19.4225 60.5069 27.9144 56.036 28.8083C52.6031 29.4584 50.8068 26.5329 50.8068 22.998V9.75232H50.5273L46.775 10.6462C46.775 10.6462 46.775 10.8494 46.775 10.9306C47.5335 11.0525 47.6532 11.4588 47.6532 12.8809V22.3886C47.6532 27.183 50.5673 29.5396 54.2397 29.5396C59.4291 29.5396 60.7863 24.0138 61.3052 19.4225V29.2958H65.3769C65.3769 29.2958 65.3769 29.0927 65.3769 29.0114Z" fill="#212121"/>
<rect x="24.4786" y="9.53552" width="19.205" height="19.5479" fill="#3483FA"/>
</svg>
